<svg id="レイヤー_1" data-name="レイヤー 1" xmlns="http://www.w3.org/2000/svg" viewBox="0 0 82 62"><defs><style>.cls-1{fill:#00a0e9;}</style></defs><title>icon1</title><g id="レイヤー_2" data-name="レイヤー 2"><g id="レイヤー_1-2" data-name="レイヤー 1-2"><path class="cls-1" d="M49.58,35.38H31.46a1.32,1.32,0,0,0-1.31,1.32V46.88a1.32,1.32,0,0,0,1.31,1.32H49.58a1.32,1.32,0,0,0,1.32-1.32V36.7A1.32,1.32,0,0,0,49.58,35.38ZM48.26,45.56H32.78V38H48.26Z"/><path class="cls-1" d="M19.28,27.46H17a1.32,1.32,0,0,0,0,2.64h2.28a1.32,1.32,0,0,0,0-2.64Z"/><path class="cls-1" d="M28.18,27.46H25.9a1.32,1.32,0,0,0,0,2.64h2.28a1.32,1.32,0,0,0,0-2.64Z"/><path class="cls-1" d="M71.89,23.6a1.31,1.31,0,0,0-1.31,1.31h0v1l-10.24,4.3a1.3,1.3,0,0,0-.8,1.21v1.23H56.09v-6a4,4,0,0,0-4-4H14a4,4,0,0,0-3.95,4v23a4,4,0,0,0,4,4h1.69v3.47A1.32,1.32,0,0,0,17,58.4H48a1.32,1.32,0,0,0,1.32-1.32V53.62h2.87a4,4,0,0,0,4-3.95v-6h3.45c0,2.72-1.13,1.62,11,6.78v1a1.32,1.32,0,0,0,2.63.23.89.89,0,0,0,0-.23V24.93A1.3,1.3,0,0,0,72,23.6ZM46.63,55.77H18.37V53.62H46.63ZM52.14,51H14a1.32,1.32,0,0,1-1.32-1.32v-23A1.32,1.32,0,0,1,14,25.31H52.14a1.32,1.32,0,0,1,1.32,1.32v23A1.32,1.32,0,0,1,52.19,51h0Zm4-10V35.3h3.45V41Zm6.08,3V32.31l8.41-3.57v18.8Z"/><path class="cls-1" d="M42.5,22.44a9.22,9.22,0,1,0-9.21-9.23h0a9.22,9.22,0,0,0,9.21,9.23Zm0-15.8a6.58,6.58,0,1,1-6.57,6.59h0a6.57,6.57,0,0,1,6.56-6.58h0Z"/><path class="cls-1" d="M43.42,12.29a1.32,1.32,0,0,0-1.86,1.86,1.32,1.32,0,0,0,1.86-1.86Z"/><path class="cls-1" d="M43.42,8.14a1.32,1.32,0,1,0,.16.16A1.21,1.21,0,0,0,43.42,8.14Z"/><path class="cls-1" d="M43.43,16.43a1.32,1.32,0,1,0-.08,1.86l.08-.08A1.32,1.32,0,0,0,43.43,16.43Z"/><path class="cls-1" d="M47.94,13.22a1.32,1.32,0,1,0-1.32,1.32h0A1.32,1.32,0,0,0,47.94,13.22Z"/><path class="cls-1" d="M39.3,14.15a1.32,1.32,0,1,0-1.86-.08l.08.08A1.32,1.32,0,0,0,39.3,14.15Z"/><path class="cls-1" d="M22.59,22.44a9.22,9.22,0,1,0-9.2-9.24h0a9.22,9.22,0,0,0,9.2,9.24Zm0-15.8A6.58,6.58,0,1,1,16,13.22,6.59,6.59,0,0,1,22.59,6.64Z"/><path class="cls-1" d="M23.52,12.29c-1.21-1.29-3.09.71-1.85,1.86a1.31,1.31,0,0,0,1.85-1.86Z"/><path class="cls-1" d="M23.52,8.14c-1.23-1.23-3.09.69-1.85,1.86a1.31,1.31,0,0,0,1.85-1.86Z"/><path class="cls-1" d="M23.92,17.36a1.32,1.32,0,0,0-2.64,0,1.24,1.24,0,0,0,.38.93,1.33,1.33,0,0,0,2.26-.93Z"/><path class="cls-1" d="M27.66,12.29a1.32,1.32,0,1,0-.08,1.86l.08-.08A1.32,1.32,0,0,0,27.66,12.29Z"/><path class="cls-1" d="M19.39,14.15a1.32,1.32,0,1,0-1.87,0,1.37,1.37,0,0,0,.94.38A1.3,1.3,0,0,0,19.39,14.15Z"/></g></g></svg>