<svg id="レイヤー_1" data-name="レイヤー 1" xmlns="http://www.w3.org/2000/svg" viewBox="0 0 82 62"><defs><style>.cls-1{fill:#00a0e9;}</style></defs><title>icon6</title><g id="レイヤー_2" data-name="レイヤー 2"><g id="レイヤー_1-2" data-name="レイヤー 1-2"><path class="cls-1" d="M50,5.63V.68H17.4V43.26h4.93v5H55V5.63ZM19.38,41.28V2.66H48v3H22.33V41.31ZM53,46.23H24.33V7.62H53Z"/><path class="cls-1" d="M62.33,17.59V16.8a3.25,3.25,0,0,0-3.24-3.25H32a3.25,3.25,0,0,0-3.24,3.25v3.41A3.24,3.24,0,0,0,32,23.45H59.13a3.24,3.24,0,0,0,3.24-3.24h0v-.62a5,5,0,0,1-1,9.81H50.51a6.93,6.93,0,0,0-6.84,5.94A3.94,3.94,0,0,0,40,38l-1.15,3.5a4.09,4.09,0,0,0-.2,1.25V55.16a5.93,5.93,0,0,0,11.86,0V42.74a3.73,3.73,0,0,0-.18-1.24l-1.15-3.45a4,4,0,0,0-3.49-2.69,4.94,4.94,0,0,1,4.84-4H61.4a6.93,6.93,0,0,0,1-13.79Z"/></g></g></svg>