<svg id="レイヤー_1" data-name="レイヤー 1" xmlns="http://www.w3.org/2000/svg" viewBox="0 0 82 62"><defs><style>.cls-1{fill:#00a0e9;}</style></defs><title>icon9</title><g id="レイヤー_2" data-name="レイヤー 2"><g id="レイヤー_1-2" data-name="レイヤー 1-2"><path class="cls-1" d="M53.46,47.53A18,18,0,0,0,60.65,49l7,6.45L66.55,48a17.84,17.84,0,0,0-5.07-34.68,10.21,10.21,0,0,0-16.32-5.9,13.54,13.54,0,0,0-9.39-3.71A13.76,13.76,0,0,0,22.06,17.44a2.76,2.76,0,0,0,.07.76A15.58,15.58,0,0,0,29,48.6a16.24,16.24,0,0,0,2.28-.7,11.21,11.21,0,0,0,22.21-.41Z"/></g></g></svg>