<svg id="レイヤー_1" data-name="レイヤー 1" xmlns="http://www.w3.org/2000/svg" viewBox="0 0 92 86"><defs><style>.cls-1{fill:#009646;}</style></defs><title>mark2</title><g id="レイヤー_2" data-name="レイヤー 2"><g id="レイヤー_1-2" data-name="レイヤー 1-2"><path class="cls-1" d="M47.11,11.16c.76.6.23,1.48.68,2.18,2.08.08,4.68,0,6.66.05a1.58,1.58,0,0,1,1.23.9l.17.52-.07,4.11c-.18.38-.33.85-.78,1a1.61,1.61,0,0,1-1.45,0c-1.28-.77-.5-2.37-.85-3.55l-.08-.08h-2l-.23.23c-.22,1.13.46,2.83-1,3.46a1.84,1.84,0,0,1-1.58-.23c-.9-.85-.32-2.2-.47-3.28l-.2-.18a6.6,6.6,0,0,0-2.26.08c-.32,1.16.48,3.28-1.3,3.61a1.63,1.63,0,0,1-1.3-.31c-.77-.85-.4-2.17-.5-3.3a6.83,6.83,0,0,0-2.3-.08c-.36.88,0,1.86-.26,2.78a1.75,1.75,0,0,1-.87.85,1.43,1.43,0,0,1-1.6-.34A2.53,2.53,0,0,1,36.34,18V14.34a1.63,1.63,0,0,1,1.45-1c2.16.12,4.29-.08,6.44,0,.32-.51,0-1.18.32-1.68a1.91,1.91,0,0,1,1.23-.9C46.29,10.88,46.76,10.83,47.11,11.16Zm-9.82,9.69a2.13,2.13,0,0,0-.87,1.28v9.13c.18.43.46,1,1,1.08h3.66a2.83,2.83,0,0,0,1.22-1.08,1.69,1.69,0,0,0,.48.8c1.2.71,2.1-.67,3.13-1.13h.25c.88.45,1.68,1.3,2.68,1.35.35,0,.58-.35.85-.6a.84.84,0,0,0,.08-.9c-.33-.62-1.1-.57-1.38-1.2.53-.57,1.45-.73,1.35-1.68-.1-.3-.17-.65-.5-.8a1.43,1.43,0,0,0-1.53.23,11.26,11.26,0,0,1-1.62.92c-1-.47-1.81-1.43-3-1.43a1.4,1.4,0,0,0-.8,1.13c0,1,1.16,1,1.61,1.63-.53.45-1.25.7-1.61,1.3-.27-.3-.35-.7-.72-.95-.63-.42-1.58-.1-2.18-.45,0-.23-.1-.55.15-.73,1-.09,2.25,0,2.55-1.12a.82.82,0,0,0-.12-.81c-.38-.94-1.48-.77-2.35-.85-.33,0-.1-.37-.23-.55s.07-.37.27-.35c.86,0,2,.13,2.41-.82a1.7,1.7,0,0,0,0-1c-.45-1.05-1.68-.7-2.48-.9l-.18-.68a1.62,1.62,0,0,0-2.07-.82Zm5.59,0a1.29,1.29,0,0,0-.6,1c0,1,1.1,1,1.63,1.53-.38.55-1.23.7-1.48,1.4a1.1,1.1,0,0,0,.23,1c1.1,1,2.08-.42,3.05-.85.15-.15.4-.07.5-.22.95.42,1.73,1.45,2.88,1.25a1.65,1.65,0,0,0,.83-1.08c-.13-.82-1-.95-1.5-1.4v-.17c.42-.41,1-.6,1.27-1.13a1.34,1.34,0,0,0-.1-1c-1.1-1.3-2.2.4-3.23.8-.57.13-1-.47-1.5-.62s-1.25-.86-2-.46Zm11.72,0a1.39,1.39,0,0,0-1.53.55c-.27.3-.22.73-.42,1a7.59,7.59,0,0,0-1.58.1,1.64,1.64,0,0,0-.8.9,1.27,1.27,0,0,0,.27,1.21c.46.65,1.28.42,2,.45.38.12.23.5.23.78-.68.27-1.68-.21-2.21.4a1.42,1.42,0,0,0,.68,2.4c.47.05,1.1-.15,1.58.17.45,1.41-1.35.5-2,1a1.58,1.58,0,0,0-.75,1.36,1.46,1.46,0,0,0,1.08,1.15,16.44,16.44,0,0,0,3.71-.08c.42-.25.55-.68.8-1.07,0-3.13.17-6.09,0-9.22l-.23-.44A2.14,2.14,0,0,0,54.6,21ZM55,33.19A1.84,1.84,0,0,0,54,33H37.75a1.69,1.69,0,0,0-1.33.91v8c.13.85-.32,1.86.35,2.53a1.55,1.55,0,0,0,1.58.4,1.88,1.88,0,0,0,1-1V36.06l.23-.22H52.65l.1.07c.1,1.66,0,3.84.1,5.56,0,1.05-.4,2.26.53,3a1.68,1.68,0,0,0,1.27.27,1.52,1.52,0,0,0,1-1c.3-2,0-4.18.1-6.26a14.14,14.14,0,0,0-.23-3.73ZM41,36.54c-.3.08-.65.13-.75.48a.93.93,0,0,0,.12,1l2.53,2.53.07.23c-.84.3-1.92-.33-2.55.57a1.61,1.61,0,0,0-.15,1.35,1.57,1.57,0,0,0,1,.78h3c.43.21.25.86.48,1.23a1.62,1.62,0,0,0,1.55.78,1.54,1.54,0,0,0,1.2-1c.08-.27,0-.62.23-.85,1.2-.27,3,.48,3.88-.62a1.4,1.4,0,0,0,.13-1.18c-.33-1-1.43-.85-2.28-.9-.08-.07-.3,0-.23-.17a29.79,29.79,0,0,1,2.61-2.66c.07-.28.22-.63,0-.9a1.17,1.17,0,0,0-.83-.55c-3.3.1-6.65-.18-10.08-.08Zm6.36,2.66c-.25.52-.85.9-1.23,1.3a5,5,0,0,1-1.25-1.25c.12-.21.48,0,.68-.15a8.86,8.86,0,0,1,1.78.15ZM62.94,47c-2.25-.21-4.56-1.31-6.81-.46q-3.57,1.8-7.21,3.38c-1,.33-1.86,1.1-3,1C43.49,50,41,49.31,38.63,48.26c-2.26-.63-4.29-2.53-6.76-1.85a67.78,67.78,0,0,1-14.8,2v.14l1.45.63c4.1,1.5,9.17,1.3,13.7.85A37.55,37.55,0,0,0,40,53.41a.22.22,0,0,1,.15.23c-2.41,1.6-4.91,2.93-7.39,4.28.77.25,1.6.4,2.43.58,1.55-.88,3-2,4.55-3a.49.49,0,0,1,.48.27,44.09,44.09,0,0,1-4,2.93v.13c.58.05,1,.45,1.58.4l3.61-2.83c.15-.07.37.1.45.28-1.15.92-2.28,2-3.46,2.83a3.93,3.93,0,0,0,1.16.62c1.07-1,2.32-1.83,3.42-2.87a.51.51,0,0,1,.51.27,39.19,39.19,0,0,1-3.11,2.65l-.17.28a7.34,7.34,0,0,0,1.15.67,50.57,50.57,0,0,1,4-3.6c-.2-.58-.85-.83-1.18-1.36a.34.34,0,0,1,0-.22c0-.05.2-.28.4-.18a18.67,18.67,0,0,0,5.19,3.84,7.48,7.48,0,0,0,4.9,0,7.7,7.7,0,0,1,4.92-1.53c.5-.09,1,.43,1.35-.12a.61.61,0,0,0-.13-.45A67.45,67.45,0,0,1,52,54a16.64,16.64,0,0,1-1.65-.93,1,1,0,0,1,.53-.42,15.1,15.1,0,0,0,2.25,1c2-1.08,4-2.46,6-3.73a42.37,42.37,0,0,0,14.6-.2,9.91,9.91,0,0,0,3.11-1.16.22.22,0,0,0-.06-.19,19.5,19.5,0,0,1-4.58.15A52.77,52.77,0,0,1,62.94,47ZM55.8,56.78a.77.77,0,0,1-.07.68.66.66,0,0,1-.78.18c-.13-.11-.3-.16-.35-.31a1.1,1.1,0,0,1,.17-.77c.17-.25.91-.26,1,.21ZM45.26,1.39a3,3,0,0,0-2.08,2.25A3.21,3.21,0,0,0,44,6.32a3.07,3.07,0,0,0,3,.75A2.86,2.86,0,0,0,48.87,5.2a2.72,2.72,0,0,0-.13-2.36A3,3,0,0,0,45.26,1.39Zm-7.21,1.9C32.16,2.06,27,5.07,22.5,8.52v.13a6.83,6.83,0,0,1,6,1.58c1.58-1.08,3.09-2.3,5.09-2.38.15-.65.43-1.28.63-1.9.19-.2.42-.63.72-.53a3.55,3.55,0,0,0-.27,3,3.64,3.64,0,0,0,3.75,1.9,4,4,0,0,0,2.48-1.9,3.49,3.49,0,0,0-.2-3.29A4.32,4.32,0,0,0,38.05,3.29Zm22.45.13c-2.93-.55-7-1.08-8.84,1.85a3.42,3.42,0,0,0,3.38,5,3.61,3.61,0,0,0,3-2.48c.33-1-.37-1.63-.4-2.43a2.66,2.66,0,0,1,1,1.75,2.59,2.59,0,0,0,.17.73,8.79,8.79,0,0,1,3.93,1.58c.41.22.73.7,1.18.85A6,6,0,0,1,67.5,8.6c.78-.17,1.48.17,2.25.05V8.58A23.63,23.63,0,0,0,60.5,3.42ZM23.57,9.27c-5.58.83-9.92,5.84-12.42,10.65A11.05,11.05,0,0,0,10,22.67a11.62,11.62,0,0,1,5.41-2.48,10.29,10.29,0,0,1,2.48.1A7,7,0,0,1,21.29,16a3.43,3.43,0,0,1,.18-3.33c.15,0,.32-.05.4.13a3.13,3.13,0,0,0-.18,2A3.83,3.83,0,0,0,24.3,17,3.69,3.69,0,0,0,28,15.82a3.9,3.9,0,0,0,.53-4.23A5,5,0,0,0,23.57,9.27ZM74.71,11.9C72,10,68.28,8.2,65.05,10.18a4,4,0,0,0-1.55,4.21A3.89,3.89,0,0,0,66.13,17a4,4,0,0,0,4-1.35,2.64,2.64,0,0,0,.25-2.78.3.3,0,0,1,.37-.23h.06a3.08,3.08,0,0,1,.47,2.13A10.15,10.15,0,0,1,70.94,16a7.5,7.5,0,0,1,2.3,1.93c.53.67.73,1.5,1.2,2.15v.05a.17.17,0,0,0,0,.21h0a8.71,8.71,0,0,1,6.74,1.57c.35.2.62.63,1,.73a15.8,15.8,0,0,0-1.48-3.43A24.18,24.18,0,0,0,74.71,11.9ZM19.21,22A5.47,5.47,0,0,0,14,21.27c-.2.2-.5.17-.73.27-3,1.25-5.27,4.53-6.63,7.31-2.08,4.44-2.58,9.92-2.35,14.9h0C5.51,40.45,8,37,11.55,35.84a10.4,10.4,0,0,1,1-5.46c0-.68,1.45-1.3.37-1.9a3.16,3.16,0,0,1-.05-3.11.52.52,0,0,1,.28.13,3.22,3.22,0,0,0,0,1.63,3.13,3.13,0,0,0,2.3,2A4.4,4.4,0,0,0,20,27.53a4,4,0,0,0,.25-4.25A3.91,3.91,0,0,0,19.21,22Zm61,.17c-1.68-.85-3.73-1.63-5.69-1a4.41,4.41,0,0,0-3,3.83,4.18,4.18,0,0,0,6.41,3.61,2.51,2.51,0,0,0,1.25-2.23c.1-.3-.14-.68,0-1,.16,0,.23.14.33.22a3.21,3.21,0,0,1-.23,2.83,3.86,3.86,0,0,0-.44.62,10.66,10.66,0,0,1,1.75,6.74l.1.12c2.6.71,4.73,3.16,6.08,5.46a17.38,17.38,0,0,1,1,2.3,24.57,24.57,0,0,0,0-5c-.48-5-1.48-9.87-4.73-13.74a17.34,17.34,0,0,0-2.79-2.76ZM15,36.51a8.36,8.36,0,0,0-5.06,1.08,12.87,12.87,0,0,0-4,4.81C3.85,46.57,4.75,52.09,6,56.34c1.88,4.56,3.66,9.44,7.89,12.79H14a15.23,15.23,0,0,1,.17-13.79c1.08-.82-.42-1.58-.62-2.38a11.9,11.9,0,0,1-1.5-6.23c-.73-.71-1.66-1.35-1.86-2.43-.07-.42-.3-1-.07-1.4.15,0,.32-.2.45,0a3.91,3.91,0,0,0,.72,2A4,4,0,0,0,14.58,46a4.77,4.77,0,0,0,4-2.76,4.86,4.86,0,0,0-.5-4.68A5,5,0,0,0,15,36.51Zm65.17.23c-1.88-.45-4.36-.38-5.71,1.3a4.72,4.72,0,0,0,2.32,7.74c1.46.22,3.13.19,4.16-1.08.16-.3.53-.55.45-.9.28-.25.08-.85.46-.95a.31.31,0,0,1,.27.22,4.21,4.21,0,0,1-2,3.48,11.44,11.44,0,0,1-.7,4.56,19.24,19.24,0,0,1-1.86,3.5,14.38,14.38,0,0,1,2.08,9.51c-.1.68-.22,1.21-.33,1.91-.14.25,0,.58-.27.8-.23.78-.62,1.55-.85,2.25a12.75,12.75,0,0,0,2.88-2.75,26.13,26.13,0,0,0,3.3-5.76,24.46,24.46,0,0,0,1.71-3.93c0-.32.4-.63.22-.85a20.9,20.9,0,0,0,.35-12.57,15,15,0,0,0-2.5-4,8.15,8.15,0,0,0-4-2.48ZM24.57,53.19a5.76,5.76,0,0,0-6.41-.73c-3.7,2.2-4.86,6.43-4.68,10.64.5,9.56,10,16.2,18.08,18.95.55.15,1,.43,1.58.55v-.12A17.82,17.82,0,0,1,27.6,71.61c-.1-.7,0-1.35-.1-2A12.62,12.62,0,0,1,21.92,65c-.4-.4-.33-1-.68-1.43a4.51,4.51,0,0,1-3.7-1.8c-.21-.45-.76-.9-.4-1.4.12-.15.22.07.32.12a3.67,3.67,0,0,0,2.43,2,5.79,5.79,0,0,0,5.19-1.93A5.31,5.31,0,0,0,25.83,55,7.54,7.54,0,0,0,24.57,53.19Zm45.08-1.13a5.27,5.27,0,0,0-3.6,4.28,5.44,5.44,0,0,0,1.8,4.86,5.14,5.14,0,0,0,4.73,1.17,4.3,4.3,0,0,0,2-1.35c.18-.22.15-.6.5-.67.1,0,.1.17.1.27a4.76,4.76,0,0,1-4.2,3c-.88,2.83-3.66,4.85-6.17,6.08.26,5.21-2.2,9.54-5.78,12.89l.1.1a44.92,44.92,0,0,0,5-2C69.84,78.13,76,73.38,78,67.14a16,16,0,0,0,.5-8.38,22.52,22.52,0,0,0-.85-2.43C76.21,53.33,73.08,51.06,69.65,52.06ZM34.94,61.6A7.52,7.52,0,0,0,29.43,66C27.18,71.23,29.1,77.12,33,80.94,36.87,84.3,42.18,85,47.34,84.7c4.38,0,8.46-.78,11.84-3.43a15.29,15.29,0,0,0,4.61-9c.1-.6,0-1.13.1-1.73a13.32,13.32,0,0,0-1.4-5.35C61,62.78,58.26,61,55.35,61.68a6.08,6.08,0,0,0-4.51,4.8,6.18,6.18,0,0,0,3,6.14,5,5,0,0,0,5,0c.38-.15.68-.78,1.08-.63-.55,1.25-1.85,1.78-2.88,2.48a22.45,22.45,0,0,1-6.81,1.58c-4.36.22-8.69.28-12.75-.9a1.82,1.82,0,0,1-1-.51v.06a6.37,6.37,0,0,1-3.83-2.53.29.29,0,0,1,.13-.3,6.3,6.3,0,0,0,2,1.25,5.49,5.49,0,0,0,5.53-2A6,6,0,0,0,41,64.76,5.89,5.89,0,0,0,34.94,61.6Z"/></g></g></svg>