<svg id="レイヤー_1" data-name="レイヤー 1" xmlns="http://www.w3.org/2000/svg" viewBox="0 0 23 49"><defs><style>.cls-1{fill:#00a0e9;}</style></defs><title>person</title><polygon class="cls-1" points="23 24.47 15.9 12.36 14.14 12.36 14.14 49 15.9 49 15.9 15.82 21.48 25.34 23 24.47"/><polygon class="cls-1" points="0 24.47 1.52 25.34 7.1 15.82 7.1 49 8.86 49 8.86 12.36 7.1 12.36 0 24.47"/><path class="cls-1" d="M16.77,5.19a5.27,5.27,0,0,0-10.54,0,5.27,5.27,0,0,0,10.54,0ZM11.5,8.65A3.49,3.49,0,0,1,8,5.19a3.52,3.52,0,0,1,7,0A3.49,3.49,0,0,1,11.5,8.65Z"/></svg>