<?xml version="1.0" encoding="UTF-8"?>
<!-- Generator: Adobe Illustrator 22.1.0, SVG Export Plug-In . SVG Version: 6.00 Build 0)  -->
<svg version="1.1" id="レイヤー_1" xmlns="http://www.w3.org/2000/svg" xmlns:xlink="http://www.w3.org/1999/xlink" x="0px" y="0px" viewBox="0 0 60 60" style="enable-background:new 0 0 60 60;" xml:space="preserve">
<style type="text/css">
	.st0{opacity:0;}
	.st1{opacity:0;fill:#00A0E9;}
	.st2{fill:#FFFFFF;}
</style>
<g class="st0">
	<circle class="st1" cx="30" cy="30" r="30"/>
</g>
<g>
	<path class="st2" d="M12.8,26h3.4c1.6,0,2.5,1.1,2.5,2.5s-0.9,2.5-2.5,2.5H14V34h-1.2C12.8,34,12.8,26,12.8,26z M16,27.1h-2v2.8h2   c0.9,0,1.5-0.6,1.5-1.4S16.9,27.1,16,27.1z"/>
	<path class="st2" d="M22.4,26h1.2v6.9h3.6V34h-4.8V26z"/>
	<path class="st2" d="M36,32.3h-3.9L31.4,34h-1.3l3.2-8h1.5l3.2,8h-1.3L36,32.3z M32.4,31.3h3.2L34,27.1L32.4,31.3z"/>
	<path class="st2" d="M42.9,30.6L39.7,26h1.4l2.3,3.6l2.3-3.6h1.4l-3.1,4.6V34h-1.2L42.9,30.6L42.9,30.6z"/>
</g>
</svg>