<?xml version="1.0" encoding="UTF-8"?>
<!-- Generator: Adobe Illustrator 21.1.0, SVG Export Plug-In . SVG Version: 6.00 Build 0)  -->
<svg version="1.1" xmlns="http://www.w3.org/2000/svg" xmlns:xlink="http://www.w3.org/1999/xlink" x="0px" y="0px" width="16px" height="15px" viewBox="0 0 16 15" style="enable-background:new 0 0 16 15;" xml:space="preserve">
<style type="text/css">
	.st0{fill:#FFFFFF;}
</style>
<path class="st0" d="M15.7,2.7c-0.6,0.3-1.2,0.4-1.8,0.5c0.7-0.4,1.2-1,1.4-1.8c-0.6,0.4-1.3,0.6-2,0.8c-0.6-0.6-1.4-1-2.3-1  c-1.8,0-3.2,1.4-3.2,3.2c0,0.2,0,0.5,0.1,0.7C5.3,5,2.9,3.7,1.4,1.8c-0.3,0.5-0.4,1-0.4,1.6c0,1.1,0.6,2.1,1.4,2.6  c-0.5,0-1-0.2-1.4-0.4c0,0,0,0,0,0c0,1.5,1.1,2.8,2.5,3.1C3.2,8.9,2.9,8.9,2.6,8.9c-0.2,0-0.4,0-0.6-0.1C2.4,10.1,3.6,11,5,11  c-1.1,0.9-2.5,1.4-3.9,1.4c-0.3,0-0.5,0-0.8,0c1.4,0.9,3.1,1.4,4.9,1.4c5.8,0,9-4.8,9-9c0-0.1,0-0.3,0-0.4  C14.8,3.9,15.3,3.3,15.7,2.7z"/>
</svg>