<?xml version="1.0" encoding="utf-8"?>
<!-- Generator: Adobe Illustrator 21.1.0, SVG Export Plug-In . SVG Version: 6.00 Build 0)  -->
<svg version="1.1" id="レイヤー_1" xmlns="http://www.w3.org/2000/svg" xmlns:xlink="http://www.w3.org/1999/xlink" x="0px"
	 y="0px" viewBox="0 0 700 170" style="enable-background:new 0 0 700 170;" xml:space="preserve">
<style type="text/css">
	.st0{fill:#FFFFFF;}
</style>
<g>
	<path class="st0" d="M292.3,56.8c0.8-0.2,2.3-1.4,3.2-2.7c0.9-1.4,1.7-2.6,1.5-2.7c-0.1-0.1-1.4,0.1-2.8,0.5c-2.2,0.5-2.7,1-3,2.9
		C290.9,56.8,291.1,57.1,292.3,56.8z"/>
	<path class="st0" d="M64.1,62.6l0.3,0.6l0.1-0.5c0.1-0.8,0.1-2,0-2.5c0-0.1,0-0.2-0.1-0.3c-0.1,0.1-0.3,0.3-0.4,0.5
		C63.5,61.1,63.4,61.4,64.1,62.6z"/>
	<path class="st0" d="M63.1,69.5c0.2-1.7,0.1-2.2,0-2.3c0,0,0,0,0,0c-1.1,0.4-2.5,5-2.1,7.8c0.4,2.3,0.4,2.3,2.6,2.3
		c1.8,0,3-0.6,5-2.4c1.5-1.3,2.4-2.4,2.5-2.7c-0.1-0.2,0-0.5,0.1-0.6c0.2-0.2,0.4-0.4,0.7-0.4c0.2,0,0.3-0.3,0.3-0.5
		c0-0.9,1.1-3,9.2-11.4c2.9-3.1,4.7-5.1,5.1-5.7c-0.1,0-0.3-0.1-0.7-0.1c-3.1,0-10.6,2.5-11,3.7c-0.7,2.4-5.1,12.2-6.4,14.3
		c-1.1,1.8-2.3,2.8-3.3,2.8h0c-0.4,0-0.9-0.2-1.2-0.5C63.2,73,62.9,71.5,63.1,69.5z"/>
	<path class="st0" d="M458,77.3c-1.6,1.2-0.9,4.3,1,4.3c1.1,0,1.4-0.5,1.4-2.6C460.4,76.2,459.9,75.9,458,77.3z"/>
	<path class="st0" d="M297.1,84.2c-4.5,1.7-4.7,1.9-4.4,3.9c0.5,3.1,0.5,3.1,4.3,2.3c4.4-1,5.2-1.7,6-5.2
		C303.8,81.9,303.4,81.8,297.1,84.2z"/>
	<path class="st0" d="M281.3,57.5c-2.5,1.5-5.9,4.4-5.1,4.5c1.5,0.1,8-3.7,8.1-4.8C284.4,55.7,284.5,55.6,281.3,57.5z"/>
	<path class="st0" d="M50.7,47.4c-0.2,0.2-0.4,1.2,0.7,5.2c0.8,2.9,1.2,3.9,1.7,3.9c0.1,0,0.3,0,0.5-0.1c1.7-0.5,2.9-1.5,2.9-2.1
		c0-0.5,1.4-3.9,2.1-5.6c1.1-2.5,1.6-4.4,1.6-4.9c0,0-0.1,0-0.1,0C58.2,43.9,51.3,46.5,50.7,47.4z"/>
	<path class="st0" d="M571.8,35.2c0.6,0,1.5,0.1,2.1,0.4c0.8,0.3,1-0.7,1.2-4.7c0.1-2.8-0.1-5.3-0.4-5.4c-0.4-0.2-1.4,0.7-2.3,2
		C570.5,30.1,570.1,35.2,571.8,35.2z"/>
	<path class="st0" d="M0,0v170h700V0H0z M620.3,25.4c0.3-1.4,10.9-8.1,14.5-9.1c2.3-0.6,3.9-0.2,7.9,1.8c2.5,1.3,2.5,1.3,1.8,2.9
		c-0.3,0.8-1.4,1.2-3.4,1.2c-2.2,0-4.4,0.8-8.6,3.4c-3,1.9-6.1,3.4-6.7,3.4C623.5,29,620,26.7,620.3,25.4z M560.1,19.8
		c0.7,0,2.4,0.5,3.8,1.1c2.4,1,2.8,1,4.4-0.1c1-0.7,2.6-1,4-0.9c2.5,0.4,2.6-0.1,1.7-7.4c-0.4-3.2-0.7-4-2.1-4.6
		c-2.2-0.8-2.6-2.2-1.6-5.4c1-3,1.9-3.3,5.9-1.6c3.2,1.3,4,3.5,4.9,12.1c2,18.5,1.7,25-1.1,25c-1.5,0-9.6,5.6-10.2,6.9
		c-0.3,0.7-1.4,1.2-3,1.2c-3.2,0-4.9-2.2-4.6-5.9c1.5-12.4,1.3-13.8-1.8-16.9C558.7,21.7,558.6,19.8,560.1,19.8z M80.5,114.2
		c-0.6,3.2-1.5,8.8-2.1,12.5c-0.6,3.6-1.4,8.2-1.8,10.3c-0.4,2-1.3,5.8-1.8,8.5c-1.9,9-8.4,23.4-11,24.5c-1.1,0.4-7.1-2.1-7.1-3
		c0-0.3,1-1.6,2.2-2.9c2.4-2.5,6.4-11.3,7.1-15.9c0.2-1.6,0.3-1.7,1-3.2c0.3-1.5,0.6-4.5,1.2-7c1.6-6.3,1.4-6.6-4-8.5
		c-4.9-1.6-6.8-1.4-6.8,0.7c0,1.2-6,9-7.4,9.7c-2.1,1.1-1.8,0.6-4,1c-6,1-6,0-1.2-5.2c1.4-1.6,3.3-5.5,4.9-8.3
		c1.5-2.9,3.2-5.6,3.6-6.2c0.4-0.5,0.8-1.3,0.9-1.8c0.1-0.4,1.3-3.2,2.4-6.2c1.3-2.9,2.3-6,2.3-6.8c0-0.7,0.4-1.4,0.7-1.4
		c0.4,0,0.7-0.5,0.7-1.1c0-0.8,0.7-1.1,2.4-1c1.4,0.1,4.1-0.8,6.7-2.2c5-2.6,7.7-2.9,10.9-1C82.7,101.1,82.7,101.6,80.5,114.2z
		 M113.4,80.2c-0.4,6.2-12.1,25-18,28.9c-2.4,1.5-6.4,0.1-6.4-2.4c0-1,0.2-1.7,0.6-1.7c0.3,0,1.3-1.2,2.4-2.8c1-1.5,2.6-3.9,3.8-5.3
		c2.8-3.7,9-14.6,8.6-15.1c-0.2-0.1-2.3,0.4-4.6,1.2c-2.2,0.9-4.4,1.4-4.8,1.2c-0.4-0.3-0.9-0.1-1.2,0.3c-0.2,0.4-1.8,1.1-3.5,1.5
		c-1.7,0.4-3.2,1-3.5,1.3c-0.4,0.5-8.5,4.5-9.3,4.5c-0.3,0-4,1.7-17.7,8.2c-3.3,1.6-8,4-10.4,5.4c-2.4,1.4-4.9,2.6-5.4,2.6
		c-0.7,0-1.7,1.7-2.6,4.6c-1.8,5.2-4.4,9.4-5.9,9.4c-0.6,0-1.9-1-3-2.3l-2.1-2.2l2.4-5.7c1.3-3.1,2.8-7.6,3.3-9.8
		c1-4.5,1.5-4.7,5.2-3.2c2.4,1,2.8,0.9,9.3-2.2L64.3,90c1.5-0.6,2.6-0.9,2.6-0.7s0.6-0.1,1.3-0.7c2.6-2.4,13.5-6.8,18-7.4
		c0.7-0.1,1.6-0.5,1.8-1c0.7-1.1,13.1-5.3,17-5.7c2.4-0.3,4.1,0,6,1C113.5,76.7,113.6,77,113.4,80.2z M118,27.1
		c-2.5,0.2-5.1,0.7-5.9,1c-1.6,0.6-14.7,4.2-19.4,5.3l-0.3,0.1c-2,0.5-2,0.5-4,1.3l-0.2,0.1c-1.1,0.5-2.6,0.8-3.4,0.8
		c-0.7,0-1.9,0.3-2.7,0.7c-0.9,0.6-5.2,1.8-7,2.3c-4.3,1.1-5.5,1.7-6.1,2.9c-1.7,3.2-4.1,8.6-4.6,10.1c1.7-0.2,7.4-1.7,9.1-2.4
		c1.2-0.5,3.7-1,5.6-1c1.8-0.1,4.4-0.5,6-1.1c1.1-0.4,2.7-0.6,4.1-0.6c0.5,0,1,0,1.3,0.1c3.4,0.4,7.1,3,7.1,5
		c0,1.2-1.2,3.8-10.3,13.5l-2.4,2.6c-2.7,2.9-6.1,6.6-8.5,9.2c-4.9,5.3-6.3,6.4-8.1,6.4c-2.6,0-6.3,2.7-8.8,6.3
		c-1.5,2.2-2.7,3.2-4,3.2c-1.2,0-2.3-0.9-3.7-3c-1.3-2-1-2.3,1.6-5.7c1.6-2,3.5-3.9,4.4-4.3l1-0.5l-1.1-0.8
		c-1.9-1.6-3.2-6.3-3.1-10.7l0.1-2.6L52,67c-3.6,2.6-6.7,5.5-9,8.6c-1.2,1.6-1.5,2.6-1.2,3.8c0.5,2,2.2,5.8,3.9,8.3
		c0.8,1.2,1,2.3,0.6,3c-0.2,0.4-0.7,0.7-1.2,0.7c-0.4,0-0.9-0.1-1.5-0.4c-2.5-1.3-4-3.4-6.2-8.2c-2.2-4.7-3.1-7.7-3.8-12.8
		c-0.3-2-0.4-2.8,0-3.2c0.1-0.2,0.4-0.3,0.6-0.3c0.3,0,0.6,0.1,1.1,0.2c1,0.2,2.1,0.6,2.7,0.8c0.4,0,2.2-1.1,4.1-2.8
		c1.9-1.8,4.4-3.9,5.4-4.7l1.5-1.2l-1.6-3.3c-0.9-1.8-1.8-4-1.8-4.7c0-0.5-0.2-1-0.4-1.2c0,0,0,0-0.1,0c-1.4,0-7.4,2.2-13.1,5
		c-1.1,0.6-4.4,2.1-4.9,2.1c-0.4,0-1.8,0.8-6.9,3.5l-0.9,0.5c-8.4,4.7-12.6,6.8-15.1,6.8c-1.9,0-2.7-1.2-3.4-3.1
		c-0.5-1.3-0.8-2.2-0.5-2.8c0.3-0.7,1.2-0.9,3-1.5l0.1,0c2.5-0.7,7.1-2.9,14.9-7.1c3.9-2.2,13.8-6.5,17.1-7.7c2-0.7,3.7-1.5,4.1-1.8
		c0.3-0.2,0.7-0.5,1-0.5c0.2,0,0.3,0.1,0.4,0.2c0.2-0.1,0.6-0.3,1.2-0.7c1.5-0.9,1.5-1,1.2-7.7c-0.2-4.2-0.5-7.4-0.6-7.8
		c-0.1-0.4-0.1-0.7,0.1-0.9c0.1-0.2,0.4-0.4,0.9-0.4c1.1,0,2.8,0.9,4.1,2c2.2,2,2.3,2.3,2.2,7.4c-0.1,2.6-0.1,4.2,0.1,4.5
		c0,0,0,0,0.2,0c0.2,0,0.4,0,0.7-0.1c0.8-0.2,1.8-0.6,2.3-1c0.3-0.2,0.6-0.3,0.9-0.3c0.4,0,0.7,0.2,0.9,0.6c0.2,0.3,0.5,0.5,0.7,0.5
		c0,0,0.1,0,0.2-0.1c0-0.1,0.1-0.2,0-0.3c-0.3-1,3.1-2.4,4.1-2.8l4-1.6l3.3-6.8c2.3-4.8,3.5-7.4,3.5-7.7c0.1-0.7,0.8-1.8,1.3-2.3
		c0.6-0.6,1-1.6,1-2.1c0-0.9,1-2.9,1.8-4.4c1-1.7,1.9-3.9,2-5c0.2-1.2,0.5-2.9,0.6-3.8C77.5,1.9,77.8,1,78.8,1
		c0.7,0,1.5,0.4,2.9,1.4c2,1.5,2.2,2,1.9,4.6c-0.4,2.9-2.7,8.6-7.5,18.7c-1.4,2.8-2.4,5.2-2.6,5.9c0.1,0,0.2,0,0.4,0
		c1.4,0,4.5-0.7,8-1.7l1.1-0.3c0.8-0.2,1.9-0.5,3-0.7c1.8-0.4,3.3-1,3.6-1.2c0.5-0.4,3.1-1,4.6-1.3c2-0.4,6.4-1.5,9.9-2.6
		c3.5-1,8-1.9,10.2-2.1c1-0.1,1.9-0.2,2.5-0.2c1.7,0,2.4,0.5,3.7,1.8c0,0,2.1,2,2.1,2.6C122.7,26.1,122.7,26.7,118,27.1z
		 M150.3,108.6c-4,2.1-9.1,3.2-12.1,2.6c-1.3-0.2-3.8-1.8-5.9-3.8c-4.6-4.5-5.2-7.3-2.5-13.1c1-2.4,2.6-5,3.5-5.9l1.5-1.7l-1.5-1.7
		c-2.5-2.6-5.3-8.7-5.8-12.5c-0.3-2-0.2-3.5,0.2-3.5c1.1,0,6.3,2.9,7,3.8c0.3,0.5,0.6,2.1,0.6,3.3c0,1.3,0.6,3.4,1.3,4.6
		c1.1,1.8,1.5,2,2.6,1.2c0.7-0.5,1.3-1.2,1.3-1.5c0.1-0.4,0.9-1.6,1.8-2.9l1.8-2.1l3.2,1.1c3.9,1.5,4.3,3,1.5,6.1
		c-1.2,1.2-3,3.6-4.1,5.2c-1,1.6-2.9,4-4.1,5.3c-3.1,3.4-4.9,8.6-3.9,10.9c1.1,2.4,2.6,2.3,8.5-0.4c8-3.6,13.8-5.4,14.4-4.5
		c0.3,0.4,1.1,0.7,1.7,0.4c0.7-0.3,1.4-0.1,1.6,0.3C163.4,100.6,155.9,105.7,150.3,108.6z M190.9,84.5c0.5,4.6,1.2,12.7,1.4,17.9
		c0.6,13.6,1.5,20.9,2.9,24.3c1.7,4,1.5,4.9-1,4.9c-6,0-7.9-6.2-9.3-30c-0.2-4.9-0.7-9-1-9c-0.4,0-1.3,2.2-2.2,4.9s-2.4,5.7-3.4,6.8
		c-1.5,1.8-1.8,1.8-2.7,0.8c-0.4-0.6-1.4-1.3-2.1-1.5c-1-0.4-1.1-1-0.7-3.3c0.3-1.5,0.7-3.4,1-4.1c0.7-2.1,1.3-3.6,3.1-8.2
		c0.9-2.4,2.6-7.2,3.9-10.7c1.3-3.5,2.6-6.9,2.9-7.7c0.8-1.9,3.5-10.5,4-12.8c0.2-1-0.2-2.9-1.1-4.6l-1.4-2.8l2.4-0.7
		c3.2-0.9,3.5-0.9,6.7,0c1.5,0.4,2.9,1.2,3.2,1.7c0.4,1-0.9,5.4-5.5,19.6C190,76.1,190,76.1,190.9,84.5z M230.8,102.6
		c-6.1,3.4-8.9,3.9-11,1.9c-1.9-1.8-1.6-3.6,0.8-4.6c1.1-0.5,2.4-1.8,2.9-2.7c1-2.3,1.1-19.4,0.1-19.4c-1.3,0-10.6,5.3-13.6,7.7
		c-4.6,3.7-6,4.3-7.9,3.2c-2.9-1.5-3.6-3-2.3-4.6c0.7-0.7,1.6-1.2,2.2-1.2s0.9-0.3,0.7-0.7c-0.7-1,7.3-6,14.3-8.9l6.3-2.6l-0.2-4.3
		c-0.1-2.4,0-4.8,0.1-5.3c0.6-1.4,2.6-1.2,5.4,0.5c1.8,1.1,2.4,2,2.4,3.7c0,1.2,0.1,2.2,0.2,2.2c0.1,0,1.9-0.5,4-1
		c3.4-1,4.3-1,6.5,0c1.4,0.6,2.7,1.5,3,2.1c0.6,1.7-1.2,3.3-3.5,3.3c-1.1,0-3.9,0.7-6.1,1.5l-4.1,1.5l0.4,9.3
		c0.2,5.1,0.5,9.4,0.7,9.6c0.1,0.1,1.7-0.4,3.5-1.2c4.6-2.1,8-2.5,9.8-1.2c2.1,1.5,0.9,3-4.5,5.7
		C238.5,98.5,233.9,100.9,230.8,102.6z M336.5,74c-0.5,1.4-1,1.5-4,0.8c-2.6-0.6-4.9-0.4-10.8,1c-4.1,0.9-7.9,2.2-8.4,2.7
		c-0.7,0.8-3.7,9.5-4.6,13.7c-0.3,1.6-1.3,2-7,3.3c-8.5,1.9-8.2,1.5-7.6,11.1l0,0.1c-0.1,4.3,0.1,14.9,0.4,15.6
		c0.1,0.1,0.2,0.3,0.9,9.6c0.4,5.2,1,11.2,1.3,13.6c0.5,4.1,0,17.7-1,18.7c-0.3,0.3-0.8,0.4-1.7,0.4c-1.9,0-5.2-0.6-6.8-1.6
		c-1.8-1.1-2.5-1.8-2.3-2.6c0.1-0.6,0.7-0.9,1.8-1.1c0.2,0,0.4-0.1,0.6-0.1c2.6-0.5,2.6-0.5,2.6-8.9l0-1.7
		c-0.1-5.9-0.3-12.6-0.5-15.3c-0.6-6-1.4-16.3-1.6-21.2l0.1,0c-0.2-5.2-0.5-9.7-0.6-10.4c-0.3-1.1-1.2-0.6-5.7,3
		c-2.9,2.4-5.7,4.4-6.1,4.4c-0.4,0-1.6-0.9-2.7-2c-1.9-1.8-1.8-2-0.6-3.5c3.1-4,8.1-8.1,11.3-9.3c3.2-1.2,3.4-1.5,3.1-3.4
		c-0.2-1.1-0.4-2.1-0.5-2.2c-0.3-0.4-13.3,6.3-19.9,10.3c-3.8,2.2-9,5.9-11.6,8c-2.5,2.2-5.2,3.9-5.8,3.8c-1.2-0.1-4.5-3.5-4.4-4.6
		c0.1-0.8,9.4-8.4,14.6-11.9c2.1-1.4,5.3-3.2,7.2-4c1.9-0.9,5.1-2.4,7.1-3.4c2.1-1.1,4.3-2,5-2.1c0.7,0,2.1-0.6,3.2-1.2
		c1-0.6,2.3-1.1,2.7-1c1.4,0.1,2.3-3.6,1.3-4.8c-0.8-0.9-1.6-0.6-5.6,1.6c-2.5,1.5-5.7,3.6-7.1,4.6c-1.6,1.2-3,1.7-3.9,1.3
		c-1.8-0.7-3.6-3.7-2.9-5.2c0.6-1.3,9.2-6.7,14.6-9.3c2.1-1,4-1.9,4.1-2c0.2-0.1,0.1-0.8-0.1-1.5c-0.3-1.1-0.7-1-3.3,0.6
		c-1.6,1-3.1,2.1-3.4,2.5c-0.3,0.3-1.7,0.4-3.2,0c-2.4-0.6-2.7-1.2-5.3-7.7c-4.3-11-4.3-12.5,0.4-9.6c2,1.3,2.2,1.2,6.7-1.3
		c2.5-1.4,5.3-2.8,6.1-2.9c1.4-0.3,1.6-0.8,1.6-4c-0.1-2-0.3-3.9-0.5-4.1c-0.2-0.2-2.7,0.9-5.5,2.5c-2.9,1.6-5.5,3-5.9,2.9
		c-0.9-0.1-4.7-4.4-4.6-5.3c0.1-0.8,8.8-5.6,13.1-7.3l3.5-1.4l0.3-7.3c0.2-8.1,0.6-8.4,4.7-5.8c1.9,1.2,2,1.6,1.9,5.8l-0.1,4.6
		l4.4,0.2c3.4,0.1,5,0.5,6.7,1.8c3.8,2.7,2.8,4.3-2.3,3.6c-1-0.2-3.6,0.2-5.5,1l-3.6,1.2l0.2,4.3c0.1,2.3,0.3,4.3,0.3,4.4
		c0.1,0.1,1.9-0.1,4.2-0.6c4.8-0.9,8.9-0.7,8.8,0.3c0,0.4,0.5,0.8,1.3,0.8c0.8,0.1,1.9,0.7,2.5,1.5c1,1.4,0.9,1.6-1.4,4.5
		c-3.6,4.2-9.1,8.5-12.5,9.7c-1.9,0.7-3,1.6-3.1,2.5c-0.1,1.5,0.7,1.7,2.7,0.9c2.3-1,9.8-2.4,12.9-2.4c5.2,0,8.6,2.5,8.3,5.9
		c-0.2,2.1,0,2.1,7.1,0.4c6.7-1.6,8.9-1.6,11.9,0.2C336.8,71.4,337.2,72.1,336.5,74z M374.8,86.7c-12.5,12.4-29.6,8.8-29.2-6.1
		c0.1-4.2,2.3-11,4.2-13.1c1.1-1.2,1.1-1.5-0.4-4.7c-0.8-1.8-1.5-3.8-1.5-4.4c0-0.9-0.7-1.1-3-1c-2.6,0.1-3.4-0.2-4.9-2l-1.8-2.1
		l5.1-2.4c3.4-1.6,5.2-2.9,5.5-4c0.4-1.8,0.3-1.8,6.4-0.5c5.7,1.2,8.5,2.3,9.2,3.4c0.8,1.4-0.5,2.1-4.4,2.6
		c-4.3,0.5-5.6,1.8-5.2,5.1c0.1,1.2,0.3,2.6,0.4,3.1s0.9,0.7,1.8,0.5c2.2-0.4,8.5,2.3,8.5,3.7c0,0.6-0.5,1.5-1.1,2s-1.1,1.5-1.1,2.3
		c0,1.7-1.3,2.4-4.4,2.5c-2.4,0-2.6,0.1-4.2,4.4c-1.9,5.2-2.2,10.8-0.6,12.1c1.4,1.1,5.4,0.4,9.6-1.6c1.6-0.8,3.7-1.9,4.6-2.4
		c1-0.4,1.7-1,1.7-1.4c0-1,3.3-0.5,5,0.8l1.7,1.3L374.8,86.7z M417.3,58.4c-0.1,5.9-3.5,17.1-6.8,22.2c-1.6,2.5-2.4,3.1-4.2,3.1
		c-2.5,0-5.6-1.9-4.4-2.7c1.4-1,5.5-9.6,5.9-12.4c0.3-1.5,1-4.5,1.5-6.6c0.5-2.1,1-4.4,1-5.3c0-1.5,0-1.5-4.1-0.1
		c-5.1,1.8-10.2,5.1-13.8,9.3c-3.2,3.6-5.2,4-7.9,1.9c-2.1-1.7-1.6-3.4,1.6-6.7c3.8-3.9,8.7-6.9,14.6-9c6.8-2.4,9-2.5,13.2-0.4
		l3.3,1.6L417.3,58.4z M444.3,47.9c-2.4,7.1-6.8,25.9-6.8,28.7c0,1.8-0.4,3.5-0.9,3.6c-1.4,0.5-4-0.8-5.2-2.7c-1.5-2.2-1-8.7,1-14.6
		c0.7-2.1,1.6-5.3,1.9-7.1c0.5-2.9,0.4-3.3-1.8-5.3c-1.3-1.1-2.3-2.4-2.3-2.8c0-0.4,1.5-1.8,3.4-3.2c2.1-1.5,3.8-3.5,4.5-5.1
		c1.2-3,1.7-3.2,4.1-1.9c0.9,0.4,2.8,0.8,4.3,0.7c1.9-0.1,3.2,0.4,4.8,1.7l2.1,1.8l-4.2,1.9C445.9,45.2,444.9,46,444.3,47.9z
		 M470.1,72.7c-1.2,0-2.4,0.4-2.7,0.9c-0.3,0.5-0.6,3.4-0.6,6.4l-0.1,5.6l-3.1,0.2c-1.8,0.1-3.6-0.1-4.2-0.7
		c-7-6.2-10.1-9.6-9.7-10.5c0.2-0.6,2.4-2.1,4.9-3.3c4.7-2.4,4.8-2.4,3.7-7c-0.4-1.6-0.9-5.3-1.1-8.2c-0.4-4.3-0.3-5.4,0.7-6.4
		c1-1.1,1.3-1.1,3.5,0.1c2.3,1.2,2.4,1.4,2.8,7.9c0.6,8.7,1,9.8,3.6,9.8c2.3,0,7.4,2.1,7.4,3.1C475.1,71.6,472.4,72.7,470.1,72.7z
		 M479.1,47.8c-0.7,1.1-3.2,0.7-5.4-0.8c-1.7-1.2-2.8-1.4-7.4-1c-10.7,0.9-11,0.8-12.1-2.5c-0.4-1.2-0.1-1.8,1.3-2.4
		c1-0.4,5-0.7,9-0.5c6.5,0.1,7.7,0.4,10.8,2.2C478.7,44.8,479.9,46.5,479.1,47.8z M507.1,84.3c-1.3-0.6-2.1-1.8-2.6-3.8
		c-1.7-6.4-3.7-9.6-8.8-13.9c-2.7-2.4-5.1-4.9-5.4-5.7c-0.2-0.9,0.5-2.4,2.1-4.2c3.1-3.6,8.8-15,10-19.7c0.4-2.1,1-4.1,1.1-4.6
		c0.1-0.4,0.5-0.9,0.9-0.9c1.2,0,5.9,2.1,6.3,2.9c1.3,2-6.6,20.7-10.4,24.8c-1,1-1.6,2.1-1.5,2.5c0.1,0.3,1.9,2.4,4,4.5
		c4.9,5.1,7.2,8.9,8.3,13.6C512.4,85.1,511.4,86.3,507.1,84.3z M517.1,26.4c-2.4,0-4-2.7-4.9-8.1c-0.5-3.1-0.4-3.2,1.3-2.6
		c1,0.3,2.2,0.6,2.8,0.7c1.8,0.4,2.9,2.7,2.9,6.4C519.1,26.2,519.1,26.4,517.1,26.4z M520.8,9.2c0-0.7,1.9-0.5,4.6,0.7
		c2.2,0.9,2.7,1.6,3.5,4.3c1,3.8,1,7.6,0.2,8c-0.3,0.2-1.4,0.2-2.5,0c-1.8-0.4-2.2-1-3.9-6.5C521.6,12.3,520.8,9.4,520.8,9.2z
		 M606,66.9c-1.9,9.3-2.8,16.1-3.2,26c-0.4,8.5-2.7,17.8-4.9,19.1c-1.3,0.8-5.1-0.4-5.9-2c-0.6-1.1-0.6-2,0-3.4
		c1.3-2.8,2.9-10.8,3.4-17.4c1-12.3,1.3-14.9,2.6-22.3c0.7-4.2,1.4-7.9,1.4-8.2s-1.7-0.1-3.8,0.7l-3.8,1.2l-0.1,5.9
		c-0.1,6-2.7,17-5.7,23.7c-4.6,10.3-5.4,11.8-7,12.5c-2.5,1.1-4.9-0.1-3.3-1.7c0.3-0.3,0.6-1.6,0.7-2.9c0.1-2.5,0.7-4.8,4.9-18.2
		c2.5-8,4.1-16.2,3.2-16.2c-0.3,0-1.6,0.6-3.1,1.2c-2.9,1.4-3,1.8-3.7,9.5c-0.6,7.4-4.3,17.9-6.3,17.9c-0.4,0-0.7,0.4-0.7,1
		c0,1.2-3.6,2-5.2,1.1c-1.1-0.6-1.1-1,0.6-5.1c1.8-4.6,4.6-14.8,4.6-16.9c0-2.1-3.7-0.9-5.1,1.5c-0.7,1.2-1.4,2.1-1.7,2.1
		c-0.4,0-0.6,0.4-0.6,0.8s-1,2.3-2.2,4.1c-1.3,1.8-2.7,4.2-3.3,5.3c-1.6,3.2-7.7,3.6-7.7,0.4c0-1.2,4.6-10.1,6.9-13.2
		c1.4-1.9,4.9-8.7,4.9-9.5c0-0.1-1.2-0.2-2.6-0.3c-1.6-0.1-3.2-0.7-4.1-1.5c-1.4-1.3-1.5-1.4-2.7-0.2c-2.7,2.7-11.2,13.8-12.1,15.7
		c-1.5,3.6-5.7,3.4-7.8-0.4c-0.9-1.7-0.7-2.1,2.2-6.1c1.8-2.4,4-5.1,5-6c1.5-1.3,1.8-2.4,1.8-5.1c0-3.1-0.5-6-1.4-8.8
		c-0.2-0.7-1.3-0.4-4.3,1.2c-2.2,1.3-5,2.3-6.3,2.3c-2.4,0-5.1-1.7-5.1-3.2c0-0.4,3.4-2.5,7.4-4.5c4-2.1,7.5-3.9,7.6-4.1
		c0.1-0.2,0.5-2.7,0.8-5.5c0.2-2.8,0.8-5.3,1.3-5.6c0.7-0.4,3.7,0.5,5.5,1.8c0.4,0.4,0.9,1.7,0.9,2.9c0,2.1,0.1,2.2,2.8,1.7
		c2.1-0.4,3.2-0.1,4.4,1l1.7,1.4l-2,1.8c-1.1,1-3.1,2.5-4.4,3.2c-3,1.6-3.2,2.1-2.7,6.5c0.4,3.5,0.5,3.5,2.5,3.1
		c2.1-0.4,5.8,0.7,5.8,1.8c0,0.2-0.4,1-0.9,1.5c-0.5,0.6,0.4-0.1,2-1.5c7.3-6.5,17.1-12.1,27.4-15.8c8.3-2.9,8.6-2.9,11.7-1
		c3.3,2,2.5,3.2-3.3,4.8c-9,2.5-23.5,10.4-22.6,12.4c0.2,0.4,0.6,1.4,0.8,2.1c0.6,1.8,2,1.7,8-0.6c18-6.7,22.4-7.7,25.9-5.9
		c1.3,0.6,2.4,1.8,2.6,2.5C607.9,56.4,607.2,61.5,606,66.9z M645.4,42.9c-0.1,3.5-0.4,6.6-0.7,6.8c-0.3,0.3-0.3,1.3-0.1,2.3
		c0.5,1.8-1.3,4.7-3,4.7c-1.2,0.1-3.8,2.4-4.9,4.3c-0.5,1-1.6,1.6-2.6,1.6c-1.5,0-1.8,0.4-2.2,3.4c-0.2,1.9-0.7,3.9-1.1,4.3
		c-0.3,0.4-0.8,2.6-1,4.9c-0.3,2.2-1.1,5.1-1.9,6.4c-0.7,1.3-1.6,3.5-1.9,4.8c-0.6,2.8-2.6,7-3.7,7.7c-1.1,0.7-4.3,0.7-5.5,0
		c-0.7-0.5-0.7-1.5,0.5-4.7c0.8-2.2,2-6.1,2.8-8.5c0.7-2.5,1.7-6,2.2-7.9c2.3-7.5,3.1-15.1,2.1-20.2c-0.5-2.7-1.2-5.7-1.5-6.7
		c-0.5-1.7-0.4-1.8,2.2-1.3c2.6,0.4,2.7,0.4,1.9-1.3c-1-2.2,0.1-3.7,3.5-5.4c1.3-0.6,3.4-1.7,4.9-2.5c3.1-1.7,5.3-1.8,8.3-0.2
		l2.2,1.1L645.4,42.9z M699.1,26.5c-0.7,0.5-2,1-2.8,1c-3.3,0-13.1,3.1-13.6,4.3c-0.5,1.3-0.4,16.3,0.1,21.1
		c0.1,1.4,0.4,12.7,0.7,25.1c0.4,22.9,1,45.5,1.5,50.9c0.5,7,0.6,12.1,0.1,12.9c-0.3,0.4-0.1,1.8,0.1,3.1c0.4,1.3,0.4,3.4,0.1,4.9
		c-0.3,1.4-0.4,2.8-0.1,3.1c0.2,0.3,0.1,0.3-0.4,0c-0.5-0.2-1,0.1-1.3,1c-0.2,0.8-0.9,1.5-1.5,1.5c-1.1,0-1.7-3.5-2.7-15.7
		c-1.6-21.3-2.1-32.1-2.3-57.8c-0.1-15.2-0.4-27.6-0.7-27.6s-0.7-4-1-8.8c-0.3-4.9-0.7-8.9-0.8-9.1c-0.5-0.5-4.3,2.2-6.7,4.9
		c-1.3,1.3-2.7,2.5-3.2,2.5c-0.9,0-1,0.4-1.3,5.6c-0.3,5.9-1.1,12.5-1.9,15.3c-0.4,1.6-0.9,5-1.1,7.6c-0.2,2.6-0.6,5-0.8,5.3
		c-0.2,0.4-0.6,2.2-0.8,4.2c-0.2,2-0.7,3.9-0.9,4.3c-0.3,0.4-0.7,2.1-0.7,3.7c-0.1,3.6-0.5,4.2-2.4,4.2c-2.5,0-4.4-1.4-4.4-3.4
		c0-1,1-7.6,2.2-14.8c2.7-15.8,4-28.1,3.7-33.5c-0.2-3.6-0.4-4.1-1.9-4.3c-0.9-0.1-2.2-1-2.8-2c-1.1-1.6-1-2,0.3-4.3
		c0.8-1.3,2-3.5,2.7-4.7c0.7-1.3,1.5-2.4,1.8-2.6c0.7-0.5,3.1-5.4,6-12.2c1.9-4.5,2.7-5.8,3.9-5.8c1.6,0,5.8,2.2,5.8,3
		c0,1-4.8,10.2-8.2,15.8c-2.1,3.3-3.7,6.3-3.7,6.5c0,0.3,0.6,1.3,1.3,2.2l1.3,1.7l3.5-2.7c4.8-3.7,10.9-6.5,18.6-8.9
		c7.9-2.4,10.6-2.5,13.6-0.3C700.4,25.4,700.5,25.6,699.1,26.5z"/>
	<path class="st0" d="M72.5,107.1c-0.2,0.4-1.5,1.2-3,1.9c-1.7,0.8-2.7,1.9-3.1,3.2c-0.2,1.1-1.4,4-2.5,6.5l-2.1,4.6l1.6,1
		c2.3,1.4,6.3,2.7,6.7,2.1c0.1-0.3,1-4.8,1.9-9.9C73.5,108,73.7,105.3,72.5,107.1z"/>
	<path class="st0" d="M634.5,44.4c-1.3,1-3,1.9-3.9,1.9c-1.3,0-1.5,0.2-0.9,0.9c0.4,0.5,1,2.2,1.3,3.7c0.3,1.6,0.7,2.8,0.9,2.8
		c1.6,0,5.5-3.4,5.5-4.7c0.1-0.9,0.1-2.8,0.2-4C637.7,42,637.4,42,634.5,44.4z"/>
	<path class="st0" d="M301.3,70.1c-9.3,2.7-9.4,2.7-9.6,5.4c-0.1,1.2,0.2,2.6,0.5,2.8c0.8,0.6,12.8-3.7,13.8-4.8
		c0.3-0.3,0.7-1.6,0.8-2.7C307,68.4,307.2,68.4,301.3,70.1z"/>
</g>
</svg>
