<?xml version="1.0" encoding="utf-8"?>
<!-- Generator: Adobe Illustrator 21.1.0, SVG Export Plug-In . SVG Version: 6.00 Build 0)  -->
<svg version="1.1" id="レイヤー_1" xmlns="http://www.w3.org/2000/svg" xmlns:xlink="http://www.w3.org/1999/xlink" x="0px"
	 y="0px" viewBox="0 0 700 170" style="enable-background:new 0 0 700 170;" xml:space="preserve">
<style type="text/css">
	.st0{fill:#FFFFFF;}
</style>
<g>
	<g>
		<path class="st0" d="M520.8,9.2c0,0.2,0.8,3.2,1.8,6.5c1.7,5.4,2.1,6.1,3.9,6.5c1.1,0.2,2.2,0.2,2.5,0c0.8-0.4,0.7-4.2-0.2-8
			c-0.7-2.7-1.3-3.5-3.5-4.3C522.7,8.7,520.8,8.5,520.8,9.2z"/>
		<path class="st0" d="M512.2,18.3c0.8,5.4,2.5,8.1,4.9,8.1c2,0,2.1-0.1,2.1-3.6c0.1-3.7-1-6-2.9-6.4c-0.6-0.1-1.8-0.4-2.8-0.7
			C511.8,15.1,511.7,15.2,512.2,18.3z"/>
		<path class="st0" d="M503.5,32.4c-0.1,0.5-0.7,2.6-1.1,4.6c-1.2,4.7-6.9,16.1-10,19.7c-1.5,1.8-2.3,3.3-2.1,4.2
			c0.2,0.7,2.6,3.3,5.4,5.7c5.1,4.3,7.1,7.5,8.8,13.9c0.5,2.1,1.4,3.2,2.6,3.8c4.3,2,5.3,0.8,4-4.5c-1.1-4.7-3.5-8.5-8.3-13.6
			c-2.1-2.1-3.8-4.2-4-4.5c-0.1-0.4,0.5-1.5,1.5-2.5c3.8-4.1,11.7-22.9,10.4-24.8c-0.4-0.7-5.1-2.9-6.3-2.9
			C504.1,31.5,503.7,32,503.5,32.4z"/>
	</g>
	<g>
		<path class="st0" d="M570.3,2.6c-1,3.2-0.6,4.6,1.6,5.4c1.3,0.5,1.7,1.4,2.1,4.6c0.9,7.3,0.8,7.7-1.7,7.4c-1.3-0.1-2.9,0.1-4,0.9
			c-1.6,1-2.1,1-4.4,0.1c-1.4-0.6-3.1-1.1-3.8-1.1c-1.5,0-1.4,1.9,0.4,3.7c3.1,3.1,3.2,4.5,1.8,16.9c-0.4,3.7,1.3,5.9,4.6,5.9
			c1.6,0,2.7-0.4,3-1.2c0.5-1.3,8.7-6.9,10.2-6.9c2.8,0,3.1-6.5,1.1-25c-0.9-8.6-1.8-10.8-4.9-12.1C572.2-0.7,571.2-0.4,570.3,2.6z
			 M575,30.9c-0.1,4-0.4,5-1.2,4.7c-0.5-0.2-1.5-0.4-2.1-0.4c-1.7,0-1.3-5.1,0.6-7.8c0.9-1.3,1.9-2.2,2.3-2
			C575,25.6,575.2,28.1,575,30.9z"/>
		<path class="st0" d="M541.6,32.1c-0.4,0.3-1,2.8-1.3,5.6c-0.3,2.8-0.7,5.3-0.8,5.5c-0.1,0.2-3.6,2.1-7.6,4.1c-4,2-7.4,4-7.4,4.5
			c0,1.5,2.7,3.2,5.1,3.2c1.3,0,4.1-1,6.3-2.3c2.9-1.6,4-2,4.3-1.2c0.9,2.8,1.4,5.7,1.4,8.8c0.1,2.8-0.3,3.8-1.8,5.1
			c-1,1-3.2,3.6-5,6c-2.9,4-3.1,4.4-2.2,6.1c2.1,3.8,6.3,4,7.8,0.4c0.9-1.9,9.3-13,12.1-15.7c1.2-1.2,1.3-1.1,2.7,0.2
			c0.9,0.9,2.5,1.5,4.1,1.5c1.5,0.1,2.6,0.1,2.6,0.3c0,0.8-3.5,7.6-4.9,9.5c-2.3,3.1-6.9,12-6.9,13.2c0,3.2,6.1,2.8,7.7-0.4
			c0.6-1.1,2.1-3.5,3.3-5.3c1.2-1.8,2.2-3.7,2.2-4.1c0-0.4,0.2-0.8,0.6-0.8c0.3,0,1-1,1.7-2.1c1.4-2.4,5.1-3.6,5.1-1.5
			c0,2.1-2.8,12.3-4.6,16.9c-1.7,4-1.7,4.5-0.6,5.1c1.6,0.9,5.2,0.1,5.2-1.1c0-0.6,0.3-1,0.7-1c1.9,0,5.7-10.5,6.3-17.9
			c0.7-7.7,0.8-8.1,3.7-9.5c1.5-0.7,2.8-1.2,3.1-1.2c1,0-0.7,8.2-3.2,16.2c-4.2,13.4-4.8,15.7-4.9,18.2c-0.1,1.2-0.4,2.6-0.7,2.9
			c-1.6,1.6,0.8,2.8,3.3,1.7c1.6-0.7,2.4-2.2,7-12.5c3-6.8,5.7-17.7,5.7-23.7l0.1-5.9l3.8-1.2c2.1-0.7,3.8-1,3.8-0.7s-0.7,4-1.4,8.2
			c-1.4,7.4-1.7,9.9-2.6,22.3c-0.5,6.6-2.1,14.6-3.4,17.4c-0.6,1.4-0.6,2.3,0,3.4c0.8,1.5,4.6,2.8,5.9,2c2.2-1.3,4.6-10.6,4.9-19.1
			c0.4-9.9,1.3-16.7,3.2-26c1.2-5.4,1.9-10.5,1.7-11.2c-0.1-0.7-1.3-1.9-2.6-2.5c-3.5-1.8-7.9-0.8-25.9,5.9c-6,2.3-7.4,2.4-8,0.6
			c-0.2-0.7-0.6-1.6-0.8-2.1c-1-2,13.5-9.9,22.6-12.4c5.8-1.5,6.6-2.8,3.3-4.8c-3.1-1.9-3.4-1.9-11.7,1
			c-10.4,3.7-20.2,9.3-27.4,15.8c-1.6,1.5-2.5,2.1-2,1.5c0.4-0.5,0.9-1.2,0.9-1.5c0-1-3.8-2.1-5.8-1.8c-2,0.4-2.1,0.4-2.5-3.1
			c-0.4-4.4-0.3-4.9,2.7-6.5c1.3-0.7,3.3-2.1,4.4-3.2l2-1.8l-1.7-1.4c-1.3-1.2-2.3-1.4-4.4-1C548,39,548,39,548,36.8
			c0-1.2-0.4-2.5-0.9-2.9C545.2,32.6,542.3,31.7,541.6,32.1z"/>
	</g>
	<g>
		<path class="st0" d="M662.1,12.3c-2.8,6.8-5.2,11.7-6,12.2c-0.3,0.2-1.1,1.3-1.8,2.6c-0.7,1.2-1.9,3.4-2.7,4.7
			c-1.3,2.2-1.4,2.6-0.3,4.3c0.6,1,1.9,1.9,2.8,2c1.4,0.2,1.6,0.7,1.9,4.3c0.4,5.5-1,17.7-3.7,33.5c-1.2,7.1-2.2,13.8-2.2,14.8
			c0,1.9,1.9,3.4,4.4,3.4c1.9,0,2.2-0.6,2.4-4.2c0.1-1.6,0.4-3.3,0.7-3.7c0.2-0.4,0.7-2.3,0.9-4.3c0.2-1.9,0.6-3.8,0.8-4.2
			c0.2-0.3,0.6-2.7,0.8-5.3c0.2-2.5,0.7-6,1.1-7.6c0.7-2.8,1.6-9.4,1.9-15.3c0.2-5.2,0.4-5.6,1.3-5.6c0.5,0,1.9-1.1,3.2-2.5
			c2.4-2.7,6.2-5.5,6.7-4.9c0.1,0.2,0.5,4.3,0.8,9.1c0.3,4.8,0.7,8.8,1,8.8s0.5,12.4,0.7,27.6c0.2,25.7,0.7,36.5,2.3,57.8
			c1,12.2,1.6,15.7,2.7,15.7c0.6,0,1.3-0.7,1.5-1.5c0.3-0.9,0.8-1.3,1.3-1c0.5,0.3,0.7,0.3,0.4,0c-0.3-0.3-0.2-1.7,0.1-3.1
			c0.4-1.5,0.3-3.7-0.1-4.9c-0.3-1.3-0.4-2.6-0.1-3.1c0.4-0.7,0.4-5.8-0.1-12.9c-0.4-5.4-1.1-28-1.5-50.9
			c-0.2-12.4-0.5-23.7-0.7-25.1c-0.5-4.8-0.6-19.8-0.1-21.1c0.4-1.2,10.3-4.3,13.6-4.3c0.8,0,2.1-0.4,2.8-1c1.3-1,1.3-1.1-0.9-2.6
			c-2.9-2.2-5.6-2.1-13.6,0.3c-7.7,2.4-13.8,5.2-18.6,8.9l-3.5,2.7l-1.3-1.7c-0.7-1-1.3-1.9-1.3-2.2c0-0.2,1.6-3.2,3.7-6.5
			c3.4-5.6,8.2-14.8,8.2-15.8c0-0.7-4.3-3-5.8-3C664.8,6.5,664,7.8,662.1,12.3z"/>
		<path class="st0" d="M634.7,16.4c-3.5,1-14.2,7.6-14.5,9.1c-0.2,1.3,3.2,3.6,5.4,3.6c0.6,0,3.7-1.5,6.7-3.4
			c4.2-2.5,6.4-3.4,8.6-3.4c2,0,3.1-0.4,3.4-1.2c0.7-1.6,0.7-1.6-1.8-2.9C638.6,16.1,637.1,15.8,634.7,16.4z"/>
		<path class="st0" d="M635.1,35.7c-1.4,0.8-3.6,1.9-4.9,2.5c-3.4,1.6-4.5,3.2-3.5,5.4c0.8,1.7,0.7,1.7-1.9,1.3
			c-2.6-0.4-2.7-0.4-2.2,1.3c0.3,1,1,4,1.5,6.7c1,5.2,0.2,12.7-2.1,20.2c-0.5,1.9-1.6,5.4-2.2,7.9c-0.7,2.5-1.9,6.3-2.8,8.5
			c-1.2,3.2-1.3,4.2-0.5,4.7c1.2,0.7,4.4,0.7,5.5,0c1-0.7,3.1-4.9,3.7-7.7c0.3-1.3,1.2-3.4,1.9-4.8c0.8-1.3,1.6-4.3,1.9-6.4
			c0.2-2.2,0.7-4.4,1-4.9c0.4-0.4,0.9-2.4,1.1-4.3c0.4-3,0.7-3.4,2.2-3.4c1,0,2.1-0.7,2.6-1.6c1-1.9,3.7-4.3,4.9-4.3
			c1.6,0,3.5-2.9,3-4.7c-0.2-1-0.2-2,0.1-2.3c0.3-0.2,0.6-3.3,0.7-6.8l0.3-6.3l-2.2-1.1C640.4,33.9,638.3,34,635.1,35.7z M637.7,45
			c-0.1,1.3-0.1,3.1-0.2,4c-0.1,1.3-4,4.7-5.5,4.7c-0.1,0-0.6-1.3-0.9-2.8c-0.3-1.5-0.8-3.2-1.3-3.7c-0.6-0.7-0.4-0.9,0.9-0.9
			c0.9,0,2.6-0.8,3.9-1.9C637.4,42,637.7,42,637.7,45z"/>
	</g>
	<path class="st0" d="M348.9,47c-0.3,1.1-2.1,2.4-5.5,4l-5.1,2.4l1.8,2.1c1.5,1.8,2.3,2.1,4.9,2c2.3-0.1,3,0.1,3,1
		c0,0.6,0.7,2.6,1.5,4.4c1.5,3.2,1.5,3.5,0.4,4.7c-1.9,2.1-4.1,8.9-4.2,13.1c-0.4,14.9,16.7,18.5,29.2,6.1l1.8-1.8l-1.7-1.3
		c-1.7-1.3-5-1.8-5-0.8c0,0.4-0.7,1-1.7,1.4c-0.9,0.4-2.9,1.5-4.6,2.4c-4.1,2.1-8.2,2.7-9.6,1.6c-1.6-1.3-1.3-6.9,0.6-12.1
		c1.5-4.3,1.8-4.4,4.2-4.4c3.2-0.1,4.4-0.8,4.4-2.5c0-0.7,0.5-1.8,1.1-2.3c0.6-0.5,1.1-1.4,1.1-2c0-1.4-6.3-4.1-8.5-3.7
		c-1,0.1-1.8-0.1-1.8-0.5c-0.1-0.4-0.2-1.8-0.4-3.1c-0.4-3.2,1-4.6,5.2-5.1c3.9-0.4,5.2-1.2,4.4-2.6c-0.7-1.1-3.5-2.1-9.2-3.4
		C349.1,45.2,349.3,45.2,348.9,47z"/>
	<g>
		<path class="st0" d="M438.1,39.5c-0.7,1.7-2.4,3.7-4.5,5.1c-1.8,1.3-3.4,2.8-3.4,3.2c0,0.4,1,1.7,2.3,2.8c2.1,2,2.3,2.4,1.8,5.3
			c-0.3,1.8-1.2,4.9-1.9,7.1c-2,5.9-2.5,12.4-1,14.6c1.3,1.9,3.8,3.2,5.2,2.7c0.4-0.1,0.9-1.8,0.9-3.6c0.1-2.9,4.5-21.6,6.8-28.7
			c0.6-1.9,1.6-2.7,4.9-4.3l4.2-1.9l-2.1-1.8c-1.5-1.3-2.9-1.8-4.8-1.7c-1.5,0.1-3.5-0.2-4.3-0.7C439.8,36.2,439.3,36.5,438.1,39.5z
			"/>
		<path class="st0" d="M455.4,41.1c-1.3,0.6-1.6,1.1-1.3,2.4c1,3.3,1.3,3.4,12.1,2.5c4.6-0.4,5.7-0.2,7.4,1c2.2,1.5,4.8,1.9,5.4,0.8
			c0.8-1.3-0.4-2.9-3.8-5c-3.1-1.8-4.3-2.1-10.8-2.2C460.4,40.4,456.4,40.7,455.4,41.1z"/>
		<path class="st0" d="M457.9,49.7c-1,1-1.1,2.1-0.7,6.4c0.2,2.9,0.7,6.5,1.1,8.2c1.1,4.6,1,4.6-3.7,7c-2.5,1.2-4.6,2.7-4.9,3.3
			c-0.4,1,2.7,4.3,9.7,10.5c0.6,0.6,2.4,0.9,4.2,0.7l3.1-0.2l0.1-5.6c0-3,0.3-5.9,0.6-6.4c0.3-0.5,1.5-0.9,2.7-0.9
			c2.4,0,5.1-1.1,5.1-2.1s-5.1-3.1-7.4-3.1c-2.6,0-3-1.1-3.6-9.8c-0.4-6.5-0.5-6.6-2.8-7.9C459.2,48.6,458.9,48.6,457.9,49.7z
			 M460.4,78.9c0,2.1-0.3,2.6-1.4,2.6c-1.9,0-2.6-3-1-4.3C459.9,75.9,460.4,76.2,460.4,78.9z"/>
	</g>
	<path class="st0" d="M400.9,52c-5.9,2.1-10.7,5.1-14.6,9c-3.2,3.3-3.7,5-1.6,6.7c2.6,2.1,4.7,1.7,7.9-1.9c3.6-4.1,8.6-7.5,13.8-9.3
		c4.1-1.4,4.1-1.4,4.1,0.1c0,0.9-0.5,3.2-1,5.3c-0.6,2.1-1.3,5.1-1.5,6.6c-0.4,2.8-4.5,11.4-5.9,12.4c-1.2,0.8,1.9,2.7,4.4,2.7
		c1.8,0,2.6-0.6,4.2-3.1c3.2-5.1,6.6-16.3,6.8-22.2l0.1-5.1l-3.3-1.6C409.9,49.5,407.7,49.6,400.9,52z"/>
	<g>
		<path class="st0" d="M187.7,48.5l-2.4,0.7l1.4,2.8c0.9,1.6,1.3,3.5,1.1,4.6c-0.5,2.3-3.2,10.9-4,12.8c-0.4,0.8-1.7,4.3-2.9,7.7
			c-1.3,3.5-3,8.2-3.9,10.7c-1.8,4.6-2.4,6.1-3.1,8.2c-0.3,0.7-0.7,2.6-1,4.1c-0.4,2.3-0.3,2.9,0.7,3.3c0.7,0.2,1.6,1,2.1,1.5
			c0.9,1,1.2,1,2.7-0.8c1-1.1,2.5-4.1,3.4-6.8c0.9-2.6,1.8-4.9,2.2-4.9c0.3,0,0.8,4,1,9c1.3,23.7,3.2,30,9.3,30c2.6,0,2.7-0.8,1-4.9
			c-1.4-3.3-2.3-10.7-2.9-24.3c-0.2-5.2-0.9-13.3-1.4-17.9c-1-8.4-1-8.4,1.1-14.7c4.6-14.1,5.9-18.6,5.5-19.6
			c-0.2-0.5-1.6-1.3-3.2-1.7C191.2,47.6,190.9,47.6,187.7,48.5z"/>
		<path class="st0" d="M223.2,61.2c-0.1,0.5-0.2,2.9-0.1,5.3l0.2,4.3l-6.3,2.6c-7,2.9-14.9,7.9-14.3,8.9c0.2,0.4-0.1,0.7-0.7,0.7
			c-0.6,0-1.5,0.6-2.2,1.2c-1.3,1.5-0.6,3,2.3,4.6c1.9,1,3.3,0.4,7.9-3.2c3-2.4,12.4-7.7,13.6-7.7c1,0,1,17.1-0.1,19.4
			c-0.5,1-1.8,2.2-2.9,2.7c-2.4,1-2.7,2.8-0.8,4.6c2.1,2,4.9,1.5,11-1.9c3.1-1.7,7.6-4.1,10-5.4c5.4-2.7,6.5-4.2,4.5-5.7
			c-1.8-1.3-5.1-1-9.8,1.2c-1.8,0.8-3.3,1.3-3.5,1.2c-0.1-0.1-0.4-4.4-0.7-9.6l-0.4-9.3l4.1-1.5c2.2-0.9,5-1.5,6.1-1.5
			c2.4,0,4.1-1.6,3.5-3.3c-0.3-0.6-1.6-1.5-3-2.1c-2.2-1-3.1-1-6.5,0c-2.1,0.5-4,1-4,1c-0.1,0-0.2-1-0.2-2.2c0-1.7-0.5-2.6-2.4-3.7
			C225.8,60,223.7,59.8,223.2,61.2z"/>
	</g>
	<path class="st0" d="M127.5,72.5c0.5,3.7,3.3,9.8,5.8,12.5l1.5,1.7l-1.5,1.7c-0.8,0.9-2.4,3.5-3.5,5.9c-2.7,5.8-2.1,8.6,2.5,13.1
		c2.1,2,4.6,3.6,5.9,3.8c2.9,0.6,8-0.5,12.1-2.6c5.7-2.9,13.1-8,12.6-8.7c-0.2-0.4-1-0.6-1.6-0.3c-0.6,0.2-1.4,0-1.7-0.4
		c-0.6-1-6.4,0.9-14.4,4.5c-5.9,2.6-7.4,2.7-8.5,0.4c-1-2.3,0.8-7.5,3.9-10.9c1.2-1.3,3.1-3.7,4.1-5.3c1.1-1.6,2.9-4,4.1-5.2
		c2.8-3.1,2.4-4.6-1.5-6.1l-3.2-1.1l-1.8,2.1c-1,1.2-1.8,2.5-1.8,2.9c0,0.4-0.6,1-1.3,1.5c-1.1,0.8-1.5,0.7-2.6-1.2
		c-0.7-1.2-1.3-3.2-1.3-4.6c0-1.2-0.3-2.8-0.6-3.3c-0.7-1-5.9-3.8-7-3.8C127.3,69,127.2,70.5,127.5,72.5z"/>
	<g>
		<path class="st0" d="M50.5,96.5c-6.5,3.1-6.8,3.2-9.3,2.2c-3.8-1.5-4.2-1.3-5.2,3.2c-0.5,2.3-2,6.8-3.3,9.8l-2.4,5.7l2.1,2.2
			c1.1,1.2,2.4,2.3,3,2.3c1.5,0,4.1-4.2,5.9-9.4c1-2.9,1.9-4.6,2.6-4.6c0.6,0,3-1.2,5.4-2.6c2.4-1.4,7.1-3.8,10.4-5.4
			c13.8-6.5,17.4-8.2,17.7-8.2c0.7,0,8.9-4,9.3-4.5c0.2-0.3,1.8-0.9,3.5-1.3s3.3-1.2,3.5-1.5c0.3-0.4,0.8-0.6,1.2-0.3
			c0.4,0.2,2.6-0.3,4.8-1.2c2.3-0.8,4.3-1.3,4.6-1.2c0.4,0.5-5.8,11.4-8.6,15.1c-1.1,1.4-2.8,3.8-3.8,5.3c-1,1.5-2.1,2.8-2.4,2.8
			c-0.4,0-0.6,0.7-0.6,1.7c0,2.4,4,3.9,6.4,2.4c5.9-3.9,17.7-22.7,18-28.9c0.2-3.2,0.1-3.5-2.4-4.7c-1.8-1-3.5-1.2-6-1
			c-3.9,0.4-16.3,4.6-17,5.7c-0.2,0.4-1.1,0.9-1.8,1c-4.6,0.7-15.4,5.1-18,7.4c-0.7,0.7-1.3,1-1.3,0.7s-1.2,0.1-2.6,0.7L50.5,96.5z"
			/>
		<path class="st0" d="M69.4,100.7c-2.6,1.4-5.3,2.3-6.7,2.2c-1.8-0.1-2.4,0.2-2.4,1c0,0.6-0.3,1.1-0.7,1.1c-0.4,0-0.7,0.7-0.7,1.4
			s-1,3.8-2.3,6.8c-1.2,3-2.3,5.8-2.4,6.2c-0.1,0.5-0.5,1.3-0.9,1.8c-0.4,0.6-2.1,3.3-3.6,6.2c-1.5,2.8-3.4,6.7-4.9,8.3
			C40,141,40,142,46,141c2.2-0.4,1.9,0.1,4-1c1.4-0.7,7.4-8.6,7.4-9.7c0-2.1,2-2.4,6.8-0.7c5.4,1.8,5.7,2.1,4,8.5
			c-0.7,2.6-1,5.5-1.2,7c-0.7,1.5-0.8,1.6-1,3.2c-0.7,4.6-4.7,13.4-7.1,15.9c-1.2,1.2-2.2,2.6-2.2,2.9c0,1,6,3.5,7.1,3
			c2.6-1,9.1-15.4,11-24.5c0.5-2.6,1.3-6.5,1.8-8.5c0.4-2.1,1.3-6.7,1.8-10.3c0.6-3.7,1.5-9.3,2.1-12.5c2.3-12.6,2.3-13.1-0.1-14.6
			C77.1,97.8,74.4,98.1,69.4,100.7z M72.1,116.6c-0.9,5.1-1.8,9.6-1.9,9.9c-0.4,0.6-4.4-0.7-6.7-2.1l-1.6-1l2.1-4.6
			c1.1-2.5,2.3-5.4,2.5-6.5c0.4-1.3,1.4-2.4,3.1-3.2c1.5-0.7,2.8-1.5,3-1.9C73.7,105.3,73.5,108,72.1,116.6z"/>
		<path class="st0" d="M55.2,93c-1.2,0-2.3-0.9-3.7-3c-1.3-2-1-2.3,1.6-5.7c1.6-2,3.5-3.9,4.4-4.3l1-0.5l-1.1-0.8
			c-1.9-1.6-3.2-6.3-3.1-10.7l0.1-2.6L52,67c-3.6,2.6-6.7,5.5-9,8.6c-1.2,1.6-1.5,2.6-1.2,3.8c0.5,2,2.2,5.8,3.9,8.3
			c0.8,1.2,1,2.3,0.6,3c-0.2,0.4-0.7,0.7-1.2,0.7c-0.4,0-0.9-0.1-1.5-0.4c-2.5-1.3-4-3.4-6.2-8.2c-2.2-4.7-3.1-7.7-3.8-12.8
			c-0.3-2-0.4-2.8,0-3.2c0.1-0.2,0.4-0.3,0.6-0.3c0.3,0,0.6,0.1,1.1,0.2c1,0.2,2.1,0.6,2.7,0.8c0.4,0,2.2-1.1,4.1-2.8
			c1.9-1.8,4.4-3.9,5.4-4.7l1.5-1.2l-1.6-3.3c-0.9-1.8-1.8-4-1.8-4.7c0-0.5-0.2-1-0.4-1.2c0,0,0,0-0.1,0c-1.4,0-7.4,2.2-13.1,5
			c-1.1,0.6-4.4,2.1-4.9,2.1c-0.4,0-1.8,0.8-6.9,3.5l-0.9,0.5c-8.4,4.7-12.6,6.8-15.1,6.8c-1.9,0-2.7-1.2-3.4-3.1
			c-0.5-1.3-0.8-2.2-0.5-2.8c0.3-0.7,1.2-0.9,3-1.5l0.1,0c2.5-0.7,7.1-2.9,14.9-7.1c3.9-2.2,13.8-6.5,17.1-7.7
			c2-0.7,3.7-1.5,4.1-1.8c0.3-0.2,0.7-0.5,1-0.5c0.2,0,0.3,0.1,0.4,0.2c0.2-0.1,0.6-0.3,1.2-0.7c1.5-0.9,1.5-1,1.2-7.7
			c-0.2-4.2-0.5-7.4-0.6-7.8c-0.1-0.4-0.1-0.7,0.1-0.9c0.1-0.2,0.4-0.4,0.9-0.4c1.1,0,2.8,0.9,4.1,2c2.2,2,2.3,2.3,2.2,7.4
			c-0.1,2.6-0.1,4.2,0.1,4.5c0,0,0,0,0.2,0c0.2,0,0.4,0,0.7-0.1c0.8-0.2,1.8-0.6,2.3-1c0.3-0.2,0.6-0.3,0.9-0.3
			c0.4,0,0.7,0.2,0.9,0.6c0.2,0.3,0.5,0.5,0.7,0.5c0,0,0.1,0,0.2-0.1c0-0.1,0.1-0.2,0-0.3c-0.3-1,3.1-2.4,4.1-2.8l4-1.6l3.3-6.8
			c2.3-4.8,3.5-7.4,3.5-7.7c0.1-0.7,0.8-1.8,1.3-2.3c0.6-0.6,1-1.6,1-2.1c0-0.9,1-2.9,1.8-4.4c1-1.7,1.9-3.9,2-5
			c0.2-1.2,0.5-2.9,0.6-3.8C77.5,1.9,77.8,1,78.8,1c0.7,0,1.5,0.4,2.9,1.4c2,1.5,2.2,2,1.9,4.6c-0.4,2.9-2.7,8.6-7.5,18.7
			c-1.4,2.8-2.4,5.2-2.6,5.9c0.1,0,0.2,0,0.4,0c1.4,0,4.5-0.7,8-1.7l1.1-0.3c0.8-0.2,1.9-0.5,3-0.7c1.8-0.4,3.3-1,3.6-1.2
			c0.5-0.4,3.1-1,4.6-1.3c2-0.4,6.4-1.5,9.9-2.6c3.5-1,8-1.9,10.2-2.1c1-0.1,1.9-0.2,2.5-0.2c1.7,0,2.4,0.5,3.7,1.8
			c0,0,2.1,2,2.1,2.6c0,0.2,0,0.8-4.6,1.3c-2.5,0.2-5.1,0.7-5.9,1c-1.6,0.6-14.7,4.2-19.4,5.3l-0.3,0.1c-2,0.5-2,0.5-4,1.3l-0.2,0.1
			c-1.1,0.5-2.6,0.8-3.4,0.8c-0.7,0-1.9,0.3-2.7,0.7c-0.9,0.6-5.2,1.8-7,2.3c-4.3,1.1-5.5,1.7-6.1,2.9c-1.7,3.2-4.1,8.6-4.6,10.1
			c1.7-0.2,7.4-1.7,9.1-2.4c1.2-0.5,3.7-1,5.6-1c1.8-0.1,4.4-0.5,6-1.1c1.1-0.4,2.7-0.6,4.1-0.6c0.5,0,1,0,1.3,0.1
			c3.4,0.4,7.1,3,7.1,5c0,1.2-1.2,3.8-10.3,13.5l-2.4,2.6c-2.7,2.9-6.1,6.6-8.5,9.2c-4.9,5.3-6.3,6.4-8.1,6.4
			c-2.6,0-6.3,2.7-8.8,6.3C57.7,92,56.4,93,55.2,93z M63,67.2c-1.1,0.4-2.5,5-2.1,7.8c0.4,2.3,0.4,2.3,2.6,2.3c1.8,0,3-0.6,5-2.4
			c1.5-1.3,2.4-2.4,2.5-2.7c-0.1-0.2,0-0.5,0.1-0.6c0.2-0.2,0.4-0.4,0.7-0.4c0.2,0,0.3-0.3,0.3-0.5c0-0.9,1.1-3,9.2-11.4
			c2.9-3.1,4.7-5.1,5.1-5.7c-0.1,0-0.3-0.1-0.7-0.1c-3.1,0-10.6,2.5-11,3.7c-0.7,2.4-5.1,12.2-6.4,14.3c-1.1,1.8-2.3,2.8-3.3,2.8h0
			c-0.4,0-0.9-0.2-1.2-0.5c-0.7-0.8-1-2.3-0.8-4.3C63.2,67.8,63.1,67.3,63,67.2C63,67.2,63,67.2,63,67.2z M64.5,59.9
			c-0.1,0.1-0.3,0.3-0.4,0.5c-0.6,0.7-0.7,1,0,2.2l0.3,0.6l0.1-0.5c0.1-0.8,0.1-2,0-2.5C64.5,60.1,64.5,60,64.5,59.9z M60.1,43.9
			c-1.9,0-8.8,2.6-9.3,3.5c-0.2,0.2-0.4,1.2,0.7,5.2c0.8,2.9,1.2,3.9,1.7,3.9c0.1,0,0.3,0,0.5-0.1c1.7-0.5,2.9-1.5,2.9-2.1
			c0-0.5,1.4-3.9,2.1-5.6c1.1-2.5,1.6-4.4,1.6-4.9C60.1,43.9,60.1,43.9,60.1,43.9z"/>
	</g>
	<path class="st0" d="M334,69.8c-3-1.9-5.2-1.9-11.9-0.2c-7.1,1.7-7.2,1.7-7.1-0.4c0.3-3.4-3.2-5.9-8.3-5.9
		c-3.2,0.1-10.7,1.4-12.9,2.4c-2.1,0.9-2.8,0.6-2.7-0.9c0.1-0.9,1.2-1.8,3.1-2.5c3.5-1.2,8.9-5.5,12.5-9.7c2.4-2.8,2.4-3.1,1.4-4.5
		c-0.7-0.8-1.7-1.5-2.5-1.5c-0.7-0.1-1.3-0.5-1.3-0.8c0.1-1-4-1.2-8.8-0.3c-2.2,0.4-4.1,0.6-4.2,0.6c-0.1-0.1-0.2-2.1-0.3-4.4
		l-0.2-4.3l3.6-1.2c2-0.7,4.5-1.1,5.5-1c5.1,0.7,6.1-0.9,2.3-3.6c-1.7-1.3-3.3-1.7-6.7-1.8l-4.4-0.2l0.1-4.6c0.1-4.2,0-4.6-1.9-5.8
		c-4.2-2.6-4.5-2.3-4.7,5.8l-0.3,7.3l-3.5,1.4c-4.3,1.7-13,6.5-13.1,7.3c-0.1,0.9,3.7,5.2,4.6,5.3c0.4,0,3.1-1.3,5.9-2.9
		c2.8-1.6,5.3-2.8,5.5-2.5c0.2,0.2,0.4,2.1,0.5,4.1c0.1,3.2-0.1,3.7-1.6,4c-0.8,0.2-3.6,1.5-6.1,2.9c-4.5,2.5-4.7,2.6-6.7,1.3
		c-4.7-2.9-4.7-1.4-0.4,9.6c2.6,6.5,2.9,7.1,5.3,7.7c1.4,0.4,2.8,0.4,3.2,0c0.2-0.3,1.8-1.5,3.4-2.5c2.6-1.6,3-1.7,3.3-0.6
		c0.2,0.7,0.3,1.3,0.1,1.5c-0.2,0.1-2,1-4.1,2c-5.4,2.5-14,8-14.6,9.3c-0.7,1.4,1.1,4.5,2.9,5.2c0.9,0.4,2.3-0.1,3.9-1.3
		c1.4-1.1,4.6-3.1,7.1-4.6c3.9-2.3,4.8-2.5,5.6-1.6c1,1.3,0.1,4.9-1.3,4.8c-0.4,0-1.7,0.5-2.7,1c-1.1,0.7-2.5,1.2-3.2,1.2
		c-0.7,0-2.9,1-5,2.1c-2,1-5.2,2.6-7.1,3.4c-1.9,0.8-5.1,2.6-7.2,4c-5.2,3.4-14.6,11.1-14.6,11.9c-0.1,1.1,3.2,4.5,4.4,4.6
		c0.6,0,3.2-1.7,5.8-3.8c2.6-2.1,7.8-5.7,11.6-8c6.6-4,19.6-10.7,19.9-10.3c0.1,0.2,0.3,1.1,0.5,2.2c0.3,1.9,0.1,2.1-3.1,3.4
		c-3.3,1.2-8.2,5.3-11.3,9.3c-1.2,1.5-1.2,1.7,0.6,3.5c1,1,2.2,1.9,2.7,2c0.4,0,3.2-2,6.1-4.4c4.5-3.6,5.4-4.2,5.7-3
		c0.1,0.7,0.4,5.2,0.6,10.4l-0.1,0c0.3,4.9,1.1,15.3,1.6,21.2c0.2,2.6,0.4,9.3,0.5,15.3l0,1.7c0,8.4,0,8.4-2.6,8.9
		c-0.2,0-0.4,0.1-0.6,0.1c-1.1,0.2-1.7,0.5-1.8,1.1c-0.1,0.7,0.6,1.5,2.3,2.6c1.6,1,4.8,1.6,6.8,1.6c0.8,0,1.4-0.2,1.7-0.4
		c1-1,1.5-14.6,1-18.7c-0.3-2.4-0.8-8.4-1.3-13.6c-0.7-9.3-0.9-9.5-0.9-9.6c-0.3-0.7-0.5-11.3-0.4-15.6l0-0.1
		c-0.6-9.6-0.9-9.1,7.6-11.1c5.7-1.3,6.6-1.7,7-3.3c0.9-4.2,3.9-12.9,4.6-13.7c0.5-0.5,4.3-1.7,8.4-2.7c5.9-1.4,8.2-1.6,10.8-1
		c3,0.7,3.5,0.6,4-0.8C337.2,72.1,336.8,71.4,334,69.8z M291.2,54.9c0.3-1.9,0.8-2.4,3-2.9c1.4-0.4,2.7-0.6,2.8-0.5
		c0.1,0.1-0.6,1.3-1.5,2.7c-0.9,1.3-2.4,2.5-3.2,2.7C291.1,57.1,290.9,56.8,291.2,54.9z M284.3,57.2c-0.1,1.1-6.6,4.9-8.1,4.8
		c-0.8-0.1,2.6-3,5.1-4.5C284.5,55.6,284.4,55.7,284.3,57.2z M303,85.2c-0.8,3.6-1.6,4.2-6,5.2c-3.8,0.8-3.8,0.8-4.3-2.3
		c-0.3-1.9-0.1-2.1,4.4-3.9C303.4,81.8,303.8,81.9,303,85.2z M306.8,70.7c-0.1,1.2-0.5,2.4-0.8,2.7c-1,1.2-13,5.4-13.8,4.8
		c-0.3-0.2-0.6-1.6-0.5-2.8c0.2-2.6,0.4-2.7,9.6-5.4C307.2,68.4,307,68.4,306.8,70.7z"/>
</g>
</svg>
