<?xml version="1.0" encoding="utf-8"?>
<!-- Generator: Adobe Illustrator 22.1.0, SVG Export Plug-In . SVG Version: 6.00 Build 0)  -->
<svg version="1.1" id="レイヤー_1" xmlns="http://www.w3.org/2000/svg" xmlns:xlink="http://www.w3.org/1999/xlink" x="0px"
	 y="0px" viewBox="0 0 460 58" style="enable-background:new 0 0 460 58;" xml:space="preserve">
<style type="text/css">
	.st0{fill:#FFFF00;}
	.st1{fill:#00A0E9;}
	.st2{fill:#FFFFFF;}
</style>
<title>feature_hd2</title>
<g>
	<rect x="70" y="41.1" class="st0" width="346" height="16"/>
	<circle class="st1" cx="28" cy="28" r="28"/>
	<g>
		<path class="st2" d="M20.4,18.9v18.2H18l-3.2-11.1c-0.3-1.1-0.7-2.8-1-4.1c0.1,1.3,0.2,3.1,0.2,4.2v11H12V18.9h3l2.8,9.5
			c0.3,1.1,0.7,2.8,1,4.1c-0.1-1.3-0.2-3.1-0.2-4.2v-9.5H20.4z"/>
		<path class="st2" d="M26.4,37.4c-2.4,0-3.7-1.2-3.7-4v-6c0-2.8,1.4-4,3.7-4c2.3,0,3.7,1.2,3.7,4v6C30.1,36.2,28.8,37.4,26.4,37.4z
			 M26.4,25.1c-1.2,0-1.7,0.7-1.7,2.1v6.5c0,1.4,0.5,2.1,1.7,2.1c1.2,0,1.7-0.7,1.7-2.1v-6.5C28.1,25.8,27.6,25.1,26.4,25.1z"/>
		<path class="st2" d="M32.4,33.7h2v3.4h-2V33.7z"/>
		<path class="st2" d="M36.7,25.5v-2.8c0-2.8,1.3-4.1,3.6-4.1c2.3,0,3.6,1.3,3.6,4.1v0.3c0,6-5.4,6.5-5.4,11.7v0.4h5.4v2h-7.3v-2.2
			c0-6.4,5.5-6.8,5.5-11.8v-0.7c0-1.3-0.5-2.1-1.7-2.1s-1.7,0.8-1.7,2.1v3.1H36.7z"/>
	</g>
	<g>
		<path class="st1" d="M83.6,40.1l0.2,1.6c-0.9,0.3-1.9,0.6-2.8,0.9v7.2c0,3.3-1.2,4-5.8,4c-0.1-1-0.5-2.5-1-3.5c0.6,0,1.2,0,1.7,0
			c1.6,0,1.6,0,1.6-0.6v-6.2L75,44.4c0,0.3-0.3,0.5-0.5,0.5l-0.9-4c1.1-0.2,2.5-0.5,4-0.9v-5.4H74v-3.3h3.6v-5.8l4.2,0.2
			c0,0.3-0.2,0.5-0.8,0.6v5h2.9v3.3H81v4.6l2.4-0.6v-3.9h3.1c-0.3-1-1-2.5-1.6-3.7l2.7-0.9c0.7,1.2,1.5,2.8,1.7,3.8l-2.2,0.8h9.4
			l-1.4-0.6c0.9-1.3,2-3.4,2.6-4.9l3.7,1.4c-0.1,0.2-0.4,0.3-0.8,0.3c-0.6,1.1-1.6,2.6-2.5,3.8h3.5v5.5h-3.3v-2.5H86.6v2.5H83.6z
			 M98,40.3l2.2,0.9c-0.1,0.2-0.2,0.3-0.3,0.4c-1,2.9-2.5,5.3-4.6,7.1c2,1,4.4,1.7,7.1,2c-0.8,0.8-1.7,2.2-2.1,3.1
			c-3.2-0.6-5.8-1.6-8-3c-2.4,1.4-5.2,2.3-8.3,2.9c-0.3-0.9-1-2.5-1.6-3.2c2.6-0.4,5-1,7.1-2c-1.3-1.3-2.3-2.8-3.2-4.5l2.3-0.7h-3.5
			v-2.9h12.5L98,40.3z M100.8,28.2c-0.1,0.1-0.2,0.1-0.4,0.1c-0.1,0-0.2,0-0.3,0c-4,1-10.4,1.7-15.8,2c-0.1-0.8-0.5-2-0.8-2.7
			c5.3-0.4,11.4-1.1,15.1-2.1L100.8,28.2z M89.3,43.3c0.7,1.3,1.7,2.5,2.9,3.5c1.3-1,2.4-2.1,3.2-3.5H89.3z M92.9,29.8
			c0.5,1.2,1,2.9,1.3,3.9l-3,0.8c-0.1-1-0.7-2.8-1.1-4L92.9,29.8z"/>
		<path class="st1" d="M134.7,46.8H126c2.5,1.6,6.1,2.7,9.6,3.3c-0.8,0.8-1.9,2.3-2.4,3.3c-3.7-0.9-7.4-2.8-10.2-5.1v5.4h-3.6v-5.2
			c-2.8,2.2-6.5,3.9-10.1,4.9c-0.5-0.9-1.6-2.3-2.3-3c3.4-0.7,7-1.9,9.6-3.5h-8.7v-3h11.5v-1.3h-8.7v-2.6h8.7v-1.4h-10.2v-2.8h5.8
			c-0.2-0.8-0.6-1.7-1-2.4l0.4-0.1v0l-6.3,0v-2.9h4c-0.4-1.1-1.2-2.6-1.9-3.7l3.1-1.1c0.9,1.3,1.9,3.1,2.3,4.3l-1.5,0.5h2.8v-4.9
			l4.1,0.2c0,0.3-0.3,0.5-0.8,0.6v4.2h2.2v-4.9l4.2,0.2c0,0.3-0.3,0.5-0.8,0.6v4.1h2.5l-1-0.4c0.7-1.2,1.6-3,2-4.3l4,1.3
			c-0.1,0.2-0.4,0.4-0.8,0.3c-0.5,0.9-1.2,2.1-1.9,3.1h4v2.9h-5.5l0.3,0.1c-0.1,0.2-0.4,0.3-0.8,0.3c-0.3,0.6-0.7,1.4-1.2,2h6v2.8
			h-10.5v1.4h9.1v2.6h-9.1v1.3h11.8V46.8z M123.8,35.7c0.3-0.7,0.8-1.6,1.1-2.4h-7.2c0.4,0.8,0.8,1.7,1,2.3l-0.5,0.1v0L123.8,35.7z"
			/>
		<path class="st1" d="M148.9,39.7c1,0.8,4,3.6,4.6,4.2l-2,2.9c-0.6-0.9-1.6-2.2-2.6-3.4v10.3h-3.4v-9.4c-1.1,2.3-2.3,4.5-3.7,6
			c-0.3-1.1-1.1-2.7-1.7-3.7c1.7-1.8,3.5-4.8,4.6-7.6h-4v-3.4h4.7V25.4l4.2,0.2c0,0.3-0.2,0.4-0.8,0.5v9.5h4.4v3.4h-4.4V39.7z
			 M143.4,27.3c0.9,2.1,1.5,4.8,1.7,6.7l-2.9,0.8c-0.1-1.8-0.8-4.6-1.6-6.7L143.4,27.3z M154.7,28.3c-0.1,0.2-0.4,0.4-0.8,0.4
			c-0.6,1.9-1.6,4.6-2.5,6.2c-0.8-0.3-1.7-0.6-2.5-0.9c0.8-1.8,1.6-4.7,2-6.8L154.7,28.3z M168.8,45.4l-3.8,0.7v7.6h-3.5v-6.9
			l-7.5,1.4l-0.6-3.4l8.1-1.5V25.6l4.3,0.2c0,0.3-0.2,0.5-0.8,0.6v16.3l3.2-0.6L168.8,45.4z M156.3,35.3c1.6,1.3,3.6,3.2,4.5,4.6
			c-2.6,2-2.7,2-2.7,2.1c-0.8-1.3-2.7-3.4-4.4-4.8L156.3,35.3z M157.2,27.7c1.5,1.3,3.2,3.1,3.9,4.4l-2.8,1.9
			c-0.7-1.3-2.3-3.3-3.8-4.6L157.2,27.7z"/>
		<path class="st1" d="M193.5,39c0,3.8-1,8.3-2.6,10.8c-1,1.6-2.2,2.2-3.7,2.2c-1.4,0-3.6-0.6-5.1-1.4c-0.3-1.1-0.3-3.2-0.1-4.1
			c1.2,0.7,3.1,1.5,4.2,1.5c0.8,0,1.3-0.2,1.8-1c1.1-1.6,1.8-5.1,1.8-7.7c0-2.3-1-3.1-2.9-3.1c-0.5,0-1.4,0.1-2.4,0.3
			c-1.6,4.5-4.6,12.4-6.4,15.8c-1.1-0.3-2.9-1.2-3.8-1.9c2.3-3.7,4.7-9.3,6.1-13.1c-1.5,0.3-3.2,0.5-4.8,0.7
			c-0.4-0.9-0.8-2.6-0.9-3.8c1.1,0.1,2.4-0.1,3.6-0.1c0.9-0.1,2.1-0.2,3.3-0.4c0.5-1.9,1.2-4.4,1.5-6.3c1.4,0.2,3.2,0.9,4.1,1.4
			c-0.3,1-0.8,2.4-1.5,4.4c0.9-0.1,1.8-0.2,2.5-0.2C191,32.8,193.5,34.8,193.5,39z M201.9,41.3c-0.6,0.7-2.2,1.7-3.3,2.1
			c-1-3.3-3.1-7-4.9-9c0.8-0.6,2.2-1.4,3-1.8C198.6,34.5,201,38.8,201.9,41.3z M196.8,32.2c-0.6-1.1-1.5-2.4-2.4-3.3
			c0.5-0.5,1.3-1,1.8-1.1c0.8,0.8,1.9,2.3,2.5,3.3C198.3,31.4,197.4,32,196.8,32.2z M199.8,30.3c-0.7-1.1-1.5-2.3-2.5-3.2
			c0.5-0.4,1.3-1,1.8-1.2c0.8,0.8,1.9,2.2,2.5,3.2C201.3,29.5,200.5,30,199.8,30.3z"/>
		<path class="st1" d="M230,39.5h-7.1V43h8.5v3.1h-8.5v3.6h11.2V53h-25.8v-3.2h10.8v-3.6h-8.4V43h8.4v-3.5h-6.8v-2.4
			c-1.1,0.8-2.2,1.5-3.4,2.1c-0.5-0.8-1.5-2.2-2.2-2.9c5.2-2.6,10.2-7.3,12.4-11.1l4.8,0.3c-0.1,0.3-0.4,0.5-0.8,0.6
			c2.9,3.9,8,7.8,12.6,9.8c-0.9,0.9-1.7,2.2-2.4,3.2c-1.1-0.6-2.2-1.3-3.3-2V39.5z M228.9,36.3c-3.2-2.3-6.1-5-7.9-7.5
			c-1.7,2.4-4.4,5.1-7.6,7.5H228.9z"/>
		<path class="st1" d="M252.1,45v6.1c2-0.8,4.1-2.2,5.2-3.3l3,1.9c-0.1,0.1-0.3,0.2-0.5,0.2c-1.2,1.3-3.8,2.9-6,3.8
			c-0.4-0.5-1.1-1.1-1.7-1.7h-6.7v1.3h-3v-7.9l-0.6,0.3c-0.4-0.8-1.2-2-1.8-2.6c2-0.7,3.9-1.8,5.5-3.1c-0.7-0.5-1.4-1-2-1.4
			c-0.4,0.4-0.8,0.7-1.3,1c-0.5-0.6-1.5-1.5-2.1-2c2.2-1.3,4.4-3.8,5.5-6.4l3.4,1c-0.1,0.2-0.3,0.3-0.7,0.3
			c-0.1,0.3-0.3,0.5-0.4,0.8h2.9l0.5-0.1c0.8,0.4,1.4,0.6,2.1,0.9c-0.1,0.2-0.2,0.3-0.4,0.4c-0.7,1.9-1.6,3.5-2.9,5
			c1.6,1.1,3.1,2.2,4.1,3L252.1,45z M243.5,30.9V33h-2.9v-5h4.8v-2.6l4.1,0.2c0,0.3-0.2,0.5-0.8,0.5V28h5v5h-3v-2.1H243.5z
			 M250.5,43.7c-0.8-0.6-1.7-1.3-2.6-2c-0.8,0.8-1.7,1.4-2.6,2H250.5z M249,49.2v-2.8h-3.6v2.8H249z M247.5,37.8
			c0.6-0.7,1.1-1.4,1.5-2.2h-2.9c-0.2,0.3-0.5,0.5-0.7,0.8L247.5,37.8z M267.5,31.8v16h-12.6v-16h3.8c0.1-0.7,0.3-1.4,0.4-2.1h-5.2
			v-3.1h14.7v3.1h-5.9c-0.2,0.7-0.4,1.4-0.6,2.1H267.5z M264.1,36.4v-1.9h-6v1.9H264.1z M264.1,40.8v-1.9h-6v1.9H264.1z M264.1,45.1
			v-1.9h-6v1.9H264.1z M266.3,53.8c-1-1.1-3.1-2.9-4.7-4.1l2.6-1.6c1.6,1.1,3.8,2.8,4.9,3.9L266.3,53.8z"/>
		<path class="st1" d="M286.5,44c-0.1,0.2-0.3,0.4-0.8,0.5c-1,4.2-2.4,7.5-10.4,9.4c-0.3-0.9-1.3-2.4-2-3.2c7.1-1.3,8.1-3.7,8.6-7.2
			L286.5,44z M293,49.2c0,1,0.2,1.1,1.2,1.1h2.9c1,0,1.2-0.5,1.3-3.9c0.8,0.6,2.3,1.2,3.3,1.4c-0.4,4.6-1.4,5.8-4.3,5.8h-3.8
			c-3.5,0-4.4-1.1-4.4-4.4v-6.1h-12.5v-7.4c-0.3,0.1-0.5,0.3-0.8,0.5c-0.5-0.9-1.6-2.2-2.5-2.8c4.1-2.3,6.9-5.4,8.4-8.2l4.4,0.8
			c-0.1,0.3-0.3,0.5-0.8,0.5l-0.5,0.8h6.1l0.5-0.2l2.9,1.7c-0.1,0.2-0.4,0.4-0.7,0.4c-0.6,1-1.5,2.2-2.4,3.4h8v10.4h-6.2l-0.1,0
			V49.2z M280.3,36v4h5.6v-4H280.3z M287.1,32.8c0.6-0.7,1.2-1.6,1.7-2.4h-6.1c-0.7,0.8-1.4,1.6-2.3,2.4H287.1z M295.5,39.9v-4h-6.1
			v4H295.5z"/>
		<path class="st1" d="M315.5,26.6l2.2,1.1c0,0.2-0.2,0.4-0.3,0.5c-0.6,2.4-1.6,5.6-2.5,8c1.9,2.3,2.6,4.1,2.6,5.9
			c0,4.5-2.7,4.9-5.2,4.7c0-0.9-0.3-2.2-0.8-3c0.5,0,1,0,1.4,0c1,0,1.4-0.6,1.4-2.1c0-1.4-0.7-3.1-2.4-5.2c0.6-1.9,1.3-4.6,1.7-6.7
			h-2.4v23.8h-3.1v-27h6.8L315.5,26.6z M322.8,45.1c-0.1,0.2-0.3,0.3-0.7,0.3c-1,2.5-2.6,5.2-4.3,6.8c-0.5-0.6-1.6-1.6-2.2-2
			c1.5-1.4,2.9-3.8,3.7-6.2L322.8,45.1z M333.8,42.9h-6.4V50c0,2.9-0.9,3.7-5.4,3.7c-0.1-1-0.7-2.4-1.1-3.3c1.1,0,2.3,0,2.7,0
			c0.3,0,0.4-0.1,0.4-0.4v-7.1H318v-3h5.9v-2.8h-3.9v-2.2c-0.8,0.7-1.6,1.3-2.4,1.8c-0.4-0.9-1.1-2.1-1.7-2.9c3.3-1.9,6.5-5.6,8-8.5
			l4,0.2c-0.1,0.2-0.3,0.4-0.5,0.5c1.9,2.8,5.2,6,8.2,7.5c-0.7,0.8-1.4,2.1-1.9,3.1c-0.8-0.5-1.5-1.1-2.3-1.7v2.1h-3.9v2.8h6.4V42.9
			z M330.4,34.2c-1.9-1.7-3.6-3.7-4.8-5.5c-1.1,1.7-2.7,3.7-4.6,5.5H330.4z M332,52c-0.5-1.8-2.2-4.7-3.7-6.8l2.8-1.3
			c1.6,2,3.2,4.8,3.9,6.6L332,52z"/>
		<path class="st1" d="M347.5,28.8c-0.8,3.8-1.3,7.3-1.5,10.9c-0.1,1.4-0.1,2.9,0.1,3.8c0,0.3,0.1,0.4,0.3,0.1
			c0.4-0.9,1-2.7,1.5-4.1c0.9,0.4,2.1,1.3,2.7,2c-1.4,2.7-3.5,8.2-4.3,10.6c-0.9,0-2.2-0.1-3.1-0.3c-0.6-1.7-1-5.5-1-8.8
			c0-4.6,0.4-9,0.8-11.7c0.1-1,0.3-2.4,0.4-3.4C344.6,28,346.5,28.3,347.5,28.8z M355.7,43c-0.3,0.7-0.6,1.5-0.6,2.2
			c0,1.3,1.1,2.3,4.5,2.3c2.8,0,5.5-0.6,7.2-1.4c0.3,1,0.4,3.1,0.2,4.2c-1,0.3-4,1.1-7.6,1.1c-5.4,0-8.1-2-8.1-5.2
			c0-1.3,0.4-2.9,1-4.3C353.4,42.1,354.9,42.6,355.7,43z M365.8,29.4c0.2,0.9,0.2,2.9,0,3.8c-2.9,0.4-9.3,0.5-12.2,0.2
			c-0.2-0.9-0.4-2.7-0.3-4C356.9,30.1,363.1,30,365.8,29.4z"/>
		<path class="st1" d="M397.1,45.4c0,5-4,7.7-9.8,7.7c-4.2,0-8-2-8-6.4c0-1.1,0.1-2.4,0.3-3.8c-1.8-0.2-3.6-0.5-4.9-0.8
			c-0.2-1-0.2-2.7,0-3.8c1.5,0.5,3.4,0.9,5.4,1.1c0.2-1.3,0.4-2.7,0.6-4.3c-1.9-0.2-3.5-0.5-4.7-0.8c-0.2-1-0.2-2.6,0.1-3.7
			c1.4,0.5,3.2,0.9,5,1.1c0.1-0.6,0.1-1.3,0.2-2c0.1-0.7,0.1-2.4,0-3.4c1.1,0,3.3,0.4,4.1,0.7c-0.1,1.6-0.3,3.3-0.5,5
			c1.9,0.1,3.5,0,4.7-0.2c0.1,1-0.2,2.9-0.4,3.6c-1.4,0.1-3.1,0.1-4.7,0c-0.2,1.5-0.5,2.9-0.7,4.3c2.1,0.1,4,0,5.5-0.2
			c0,1.1-0.2,2.8-0.5,3.7c-1.6,0.1-3.5,0.1-5.5,0c-0.1,1.1-0.2,2-0.2,2.6c0,2.1,1.1,3.6,4.1,3.6c3.6,0,5.8-1.6,5.8-4.3
			c0-2.1-1-3.5-2.3-4.8c0.9-0.5,2.5-1.2,3.7-1.5C396.2,40.7,397.1,43.2,397.1,45.4z"/>
		<path class="st1" d="M406.6,48.4c0-1.6,1.3-2.9,2.9-2.9s2.8,1.3,2.8,2.9c0,1.6-1.3,2.9-2.8,2.9C407.8,51.3,406.6,50,406.6,48.4z
			 M407.8,43.3L407,27.9h5l-0.7,15.4H407.8z"/>
	</g>
	<g>
		<path class="st1" d="M88.1,12.6h-5c1,1.2,2.8,1.7,5.3,1.9c-0.4,0.4-0.9,1.2-1.1,1.7c-3.1-0.4-5-1.4-6.2-3.4
			c-0.8,1.6-2.3,2.7-6.2,3.3c-0.1-0.5-0.6-1.2-0.9-1.6c2.9-0.4,4.3-1,5.1-1.9h-4.8v-1.6h5.5c0.1-0.3,0.1-0.6,0.1-0.9h-5.6V8.5h5.9
			V7.8H76V6.3h4.3V5.5h-5.1V3.9h2.7C77.6,3.5,77.3,3,77,2.6L78.6,2c0.5,0.5,0.9,1.2,1.1,1.7l-0.4,0.2h3.5l-0.2-0.1
			c0.4-0.5,0.8-1.3,1.1-1.8l2.1,0.7c-0.1,0.1-0.2,0.2-0.4,0.2c-0.2,0.3-0.5,0.7-0.8,1.1h2.9v1.6h-5.2v0.7h4.4v1.5h-4.4v0.8h6v1.6
			h-5.8c-0.1,0.1-0.2,0.2-0.4,0.2l-0.1,0.7h6.4V12.6z"/>
		<path class="st1" d="M104.5,11.2v1.5h-3.3v1.8c0,1.6-0.7,1.8-3.6,1.8c-0.1-0.5-0.3-1.1-0.6-1.6c0.8,0,1.8,0,2,0
			c0.3,0,0.3-0.1,0.3-0.3v-1.7h-4.9c0.8,0.6,1.6,1.3,2,1.8l-1.4,1.1c-0.4-0.6-1.4-1.5-2.2-2.1l1.1-0.8h-3.2v-1.5h8.7v-0.8h-7.1V5.2
			h4.3V4.5h-5.7V3h5.7V2l2.2,0.1c0,0.1-0.1,0.2-0.4,0.3V3h5.7v1.5h-5.7v0.7h4.6v5.1h-1.5c0,0.1-0.1,0.2-0.4,0.3v0.5H104.5z
			 M94.1,6.4v0.8h2.7V6.4H94.1z M94.1,8.4v0.8h2.7V8.4H94.1z M101.3,6.4h-2.8v0.8h2.8V6.4z M101.3,9.1V8.4h-2.8v0.8H101.3z"/>
		<path class="st1" d="M108.3,2.1c0.6,0.5,1.1,1,1.5,1.5c0.3-0.5,0.6-1,0.9-1.4l1.8,0.9c-0.1,0.1-0.2,0.2-0.4,0.2
			c-0.4,0.6-0.8,1.3-1.4,1.9c0.8,1.6,0.9,3.3,0.9,5.1c0,2.1-0.2,4.2-0.9,5.1c-0.4,0.5-1,0.8-3,0.8c0-0.6-0.2-1.2-0.5-1.7
			c0.4,0,0.7,0,1,0c0.7,0,0.9,0,1.2-0.3c0.3-0.4,0.5-1.9,0.5-3.7c-0.6,0.8-1.3,1.5-2,2c-0.3-0.4-0.8-1-1.2-1.3c1.1-0.7,2.3-2,3-3.2
			c-0.1-0.5-0.2-1-0.3-1.4c-0.5,0.5-1,0.9-1.5,1.3c-0.3-0.3-0.9-0.9-1.2-1.2c0.7-0.5,1.3-1.1,1.9-1.7c-0.4-0.6-1-1.3-1.7-1.9
			L108.3,2.1z M119.5,11.3c0.8,1.3,1.5,3.1,1.8,4.3l-1.7,0.7c-0.1-0.3-0.2-0.8-0.3-1.2c-2.4,0.2-4.9,0.3-6.5,0.4
			c0,0.1-0.1,0.2-0.3,0.2l-0.5-2c1,0,2.3-0.1,3.7-0.1v-2.9h-3.1v-6h3.1V2l2.1,0.1c0,0.1-0.1,0.2-0.4,0.3v2.3h3.2v6h-3.2v2.8l1.3,0
			c-0.2-0.6-0.5-1.1-0.8-1.6L119.5,11.3z M114.2,9h1.4V6.3h-1.4V9z M118.9,6.3h-1.5V9h1.5V6.3z"/>
		<path class="st1" d="M131.4,2.5c-0.1,0.1-0.2,0.2-0.4,0.2c-0.2,0.4-0.3,0.9-0.5,1.3h5v12.2h-1.9v-0.8h-6.9v0.8h-1.8V4h3.6
			c0.2-0.6,0.4-1.4,0.5-2L131.4,2.5z M133.5,5.7h-6.9v1.5h6.9V5.7z M133.5,8.9h-6.9v1.6h6.9V8.9z M126.7,13.7h6.9v-1.6h-6.9V13.7z"
			/>
		<path class="st1" d="M152.6,9.4c0,3.3-1.8,5.6-5.3,6.2c-0.4-0.4-0.9-1.4-1.1-2c0.5,0,1-0.1,1.4-0.2c1.6-0.4,3-1.6,3-4
			c0-2.3-1.5-3.7-3.6-3.9c-0.1,1.1-0.3,2.8-0.6,4.1c-0.7,3-1.8,5.1-3.7,5.1c-1.6,0-3.1-2.1-3.1-4.6c0-3.7,2.9-6.4,6.9-6.4
			C149.9,3.6,152.6,5.9,152.6,9.4z M144.5,9.1c0.2-1,0.4-2.4,0.5-3.6c-2.4,0.6-3.5,2.6-3.5,4.3c0,1.6,0.7,2.5,1.3,2.5
			C143.4,12.3,144,11.1,144.5,9.1z"/>
		<path class="st1" d="M158.4,2.9h5.2c0,2.9,0.4,8.4,6,11.7c-0.4,0.3-1.1,1.1-1.5,1.6c-3.1-1.9-4.8-4.8-5.6-7.5
			c-1.1,3.4-2.9,6-5.6,7.6c-0.3-0.4-1-1.1-1.5-1.4c3.1-1.5,4.9-4.6,5.7-8.6l0.9,0.2c-0.1-0.6-0.2-1.2-0.2-1.7h-3.5V2.9z"/>
		<path class="st1" d="M185.6,10.7v1.6h-5.8v2c0,1.6-0.8,1.9-3.9,1.9c-0.1-0.5-0.4-1.3-0.7-1.7c0.6,0,1.3,0,1.8,0c0.9,0,1,0,1-0.3
			v-1.9h-5.8v-1.6h5.8v-1l0.9,0c0.4-0.3,0.8-0.6,1.1-0.9h-5.1V7.2h6.8l0.3-0.1l1.4,0.8c-0.1,0.1-0.2,0.2-0.3,0.2
			c-0.8,0.8-1.9,1.8-3,2.5H185.6z M174.1,6v2.1h-1.7V4.4h2c-0.3-0.5-0.7-1.1-1-1.6l1.5-0.7c0.6,0.6,1.2,1.5,1.4,2.1l-0.4,0.2h2.2
			c-0.2-0.6-0.6-1.3-1-1.9l1.6-0.6c0.5,0.7,1,1.6,1.2,2.3l-0.5,0.2h2c0.5-0.7,1-1.6,1.4-2.3c2,0.7,2.1,0.7,2.1,0.8
			c-0.1,0.1-0.3,0.2-0.4,0.1c-0.3,0.4-0.6,0.9-1,1.4h2v3.7h-1.8V6H174.1z"/>
		<path class="st1" d="M193.7,4.5V6h-5.5V4.5H193.7z M193.3,10.8v4.6h-3V16h-1.5v-5.2H193.3z M193.3,6.6V8h-4.4V6.6H193.3z
			 M188.9,10.1V8.7h4.4v1.4H188.9z M193.3,2.5v1.4h-4.3V2.5H193.3z M191.8,12.2h-1.5V14h1.5V12.2z M196.9,13.1l1.4-0.3l0.1,1.5
			c-1.5,0.3-3,0.6-4,0.8c0,0.1-0.1,0.2-0.2,0.2l-0.7-1.8c0.5-0.1,1-0.1,1.6-0.3V9.8h-1.2V8.2h4v1.6h-1.1V13.1z M202.3,6.5H200
			c0.1,3.8,0.4,7.7,1.1,7.7c0.2,0,0.3-1,0.4-2c0.3,0.4,0.8,0.8,1.1,1c-0.2,2-0.8,2.9-1.7,2.9c-1.7,0-2.4-3-2.6-9.6h-4.4V4.9h4.3
			c0-1,0-1.9,0-2.9l2.2,0.1c0,0.2-0.1,0.3-0.4,0.3v0.3l1.1-0.6c0.5,0.6,1,1.3,1.3,1.8l-1.3,0.7c-0.2-0.5-0.7-1.2-1.1-1.8v2h2.2V6.5z
			"/>
		<path class="st1" d="M206.2,11.7c-0.1,1.4-0.2,2.8-0.9,3.6l-0.9-0.5c0.5-0.8,0.7-2,0.8-3.3L206.2,11.7z M209.2,4.9h1.4v1.4h-1.4
			v0.9h1.4v1.4h-1.4v0.9h0.9l0.3,0l0.8,0.1c0,0.1,0,0.3,0,0.5c-0.1,3.8-0.3,5.2-0.7,5.6c-0.3,0.5-0.7,0.6-2.2,0.6
			c0-0.4-0.2-1-0.4-1.4c0.4,0,0.7,0,0.9,0c0.2,0,0.3,0,0.4-0.2c0.1-0.1,0.2-0.5,0.3-1.3l-0.5,0.2c-0.1-0.5-0.4-1.4-0.7-2l0.7-0.2
			c0.2,0.3,0.3,0.8,0.5,1.2h0c0-0.4,0.1-1,0.1-1.6h-2.9v0.3h-1.5V2.6h5.6V4h-1.7V4.9z M206.5,14.6c0-0.2,0-0.4,0-0.6
			c0-0.7,0-1.5-0.1-2.2l0.8-0.1c0.1,0.7,0.2,1.5,0.2,2.2c0,0.2,0,0.4,0,0.5L206.5,14.6z M207.8,4h-1v0.9h1V4z M207.8,7.2V6.3h-1v0.9
			H207.8z M207.8,9.5V8.5h-1v0.9H207.8z M207.8,14.2c0-0.7-0.2-1.7-0.4-2.5l0.8-0.2c0.2,0.8,0.5,1.8,0.5,2.4L207.8,14.2z
			 M218.2,11.9h-2.1c0.6,1.3,1.6,2.4,2.9,2.9c-0.4,0.3-0.9,1-1.2,1.4c-1.2-0.7-2.1-1.8-2.8-3.1c-0.5,1.2-1.4,2.3-3.1,3.1
			c-0.2-0.4-0.8-1-1.1-1.3c1.7-0.8,2.5-1.9,2.9-3.1h-2.2v-4h2.5V7.2h-1.5V6.3c-0.3,0.3-0.7,0.6-1.1,0.8c-0.2-0.4-0.5-1.1-0.8-1.4
			c1.4-0.8,2.7-2.4,3.3-3.6l1.9,0.1c0,0.1-0.1,0.2-0.3,0.2c0.8,1.2,2.1,2.5,3.4,3.1c-0.3,0.4-0.7,1.1-0.9,1.6
			c-0.3-0.2-0.6-0.4-0.9-0.7v0.9h-1.5v0.7h2.6V11.9z M213,10.5h1c0-0.5,0-0.8,0-1.3h-1V10.5z M216.5,5.8c-0.7-0.7-1.3-1.4-1.8-2.1
			c-0.4,0.7-1,1.5-1.7,2.1H216.5z M216.7,9.3h-1.1c0,0.7,0,0.9,0,1.3h1.1V9.3z"/>
		<path class="st1" d="M224.4,8.9c-1,0.5-1.9,0.9-2.5,1.2c-0.3-0.4-0.8-1.3-1-1.8c0.3-0.1,1.1-0.4,1.4-0.5c0.4-0.2,0.9-0.4,1.4-0.6
			c-0.2-0.4-0.4-0.7-0.6-1.1c-0.2-0.3-0.5-0.9-0.8-1.3c0.4-0.3,1.3-0.7,1.8-0.9c0.4,0.6,0.8,1.5,1.3,2.5c1.9-0.8,3.9-1.5,5.5-1.5
			c2.2,0,3.5,1.3,3.5,3c0,2-1.3,3.3-3.6,3.3c-1.2,0-2-0.3-2.5-0.5c-0.2-0.5-0.2-1.5-0.1-2c0.7,0.4,1.4,0.6,2.5,0.6
			c1.2,0,1.8-0.6,1.8-1.4c0-0.7-0.6-1.2-1.7-1.2c-1.2,0-3,0.6-4.6,1.3c0.1,0.3,0.3,0.6,0.4,0.8c0.8,1.8,2,4.7,2.5,6.3
			c-0.4,0.3-1.4,0.6-2.1,0.7c-0.5-1.9-1.4-4.1-2.2-6.1L224.4,8.9z M227.6,5.2c-0.3-0.6-1-1.6-1.4-2.1c0.4-0.3,1.2-0.7,1.6-0.9
			c0.5,0.5,1.1,1.4,1.5,2.1C228.9,4.5,228.1,5,227.6,5.2z"/>
		<path class="st1" d="M250.8,13h-5.1c1,1,2.7,1.5,5.4,1.5c-0.4,0.4-0.8,1.1-1,1.7c-3.2-0.3-5-1-6.1-2.8c-0.8,1.4-2.5,2.3-6.3,2.8
			c-0.1-0.4-0.5-1.1-0.8-1.5c3-0.3,4.4-0.8,5.2-1.7h-4.9v-1.5h5.6c0.1-0.4,0.1-0.9,0.2-1.4l2.2,0.2c0,0.1-0.2,0.3-0.4,0.3l-0.1,0.9
			h6.2V13z M239.8,10.9V8.5c-0.7,0.4-1.4,0.8-1.9,1.1c0,0.1-0.1,0.3-0.2,0.3l-0.8-1.7c0.7-0.3,1.8-0.9,2.8-1.4V2l2.1,0.1
			c0,0.1-0.1,0.2-0.4,0.3v8.5H239.8z M238.4,3c0.5,0.8,0.9,1.8,1.1,2.4L238.1,6c-0.1-0.7-0.6-1.7-1-2.5L238.4,3z M244.1,10.2
			c-0.2-0.4-0.8-1.1-1.3-1.6l1.2-0.7h-2.1V6.6h5.4V5.8l-0.3-0.2c0.6-0.6,1.3-1.5,1.7-2.1l1.7,0.9c-0.1,0.1-0.2,0.1-0.4,0.1
			c-0.3,0.4-0.9,0.9-1.3,1.3l0.7,0c0,0.1-0.1,0.2-0.4,0.3v0.4h1.8v1.3h-1.8v1.4c0,1.2-0.5,1.5-2.7,1.5c-0.1-0.4-0.3-1-0.5-1.4
			c0.3,0,0.6,0,0.9,0c0.6,0,0.6,0,0.6-0.2V7.9h-3.3c0.5,0.4,1.1,1.1,1.3,1.5L244.1,10.2z M243.4,3.9c0.4,0.6,0.8,1.4,0.9,1.9
			l-1.3,0.5c-0.1-0.5-0.5-1.3-0.8-1.9L243.4,3.9z M250,3.3c0,0-0.1,0-0.2,0c0,0-0.1,0-0.2,0c-1.8,0.3-4.7,0.5-7.1,0.6
			c0-0.3-0.2-0.9-0.4-1.2c2.3-0.1,5-0.4,6.7-0.7L250,3.3z M245.9,3.8c0.3,0.6,0.7,1.4,0.8,1.9l-1.4,0.4c-0.1-0.5-0.4-1.3-0.7-2
			L245.9,3.8z"/>
		<path class="st1" d="M267.2,10.7v1.6h-5.8v2c0,1.6-0.8,1.9-3.9,1.9c-0.1-0.5-0.4-1.3-0.7-1.7c0.6,0,1.3,0,1.8,0c0.9,0,1,0,1-0.3
			v-1.9h-5.8v-1.6h5.8v-1l0.9,0c0.4-0.3,0.8-0.6,1.1-0.9h-5.1V7.2h6.8l0.3-0.1l1.4,0.8c-0.1,0.1-0.2,0.2-0.3,0.2
			c-0.8,0.8-1.9,1.8-3,2.5H267.2z M255.6,6v2.1h-1.7V4.4h2c-0.3-0.5-0.7-1.1-1-1.6l1.5-0.7c0.6,0.6,1.2,1.5,1.4,2.1l-0.4,0.2h2.2
			c-0.2-0.6-0.6-1.3-1-1.9l1.6-0.6c0.5,0.7,1,1.6,1.2,2.3L261,4.4h2c0.5-0.7,1-1.6,1.4-2.3c2,0.7,2.1,0.7,2.1,0.8
			C266.3,3,266.2,3.1,266,3c-0.3,0.4-0.6,0.9-1,1.4h2v3.7h-1.8V6H255.6z"/>
		<path class="st1" d="M279.9,11.2l1.8,0.8c-0.1,0.1-0.2,0.2-0.4,0.1c-0.4,0.6-1,1.5-1.5,2.1h3.4v1.5h-12.8v-1.5h3
			c-0.2-0.7-0.8-1.7-1.3-2.4l1.4-0.6h-2.3V9.7h4.6V8.2H273V7.4c-0.7,0.5-1.5,1-2.3,1.4c-0.2-0.4-0.7-1.1-1.1-1.4
			c2.6-1.3,5-3.6,6.2-5.5l2.4,0.1c0,0.2-0.2,0.3-0.4,0.3c1.4,2,4,3.9,6.3,4.8c-0.4,0.5-0.9,1.1-1.2,1.6c-0.8-0.4-1.5-0.9-2.3-1.4
			v0.8h-2.9v1.5h4.7v1.5H279.9z M275.8,11.2h-2.2c0.6,0.8,1.2,1.8,1.4,2.5l-1.2,0.5h2V11.2z M279.5,6.6c-1.1-0.9-2.1-1.9-2.8-2.8
			c-0.6,0.9-1.6,1.9-2.7,2.8H279.5z M278.3,13.8c0.5-0.7,1.1-1.8,1.5-2.6h-2.1v3h1.5L278.3,13.8z"/>
		<path class="st1" d="M291.3,5.7V7h3.1v1.6h-3.1v1h2.8v3.9c0,1.4-0.6,1.6-2.2,1.6c0-0.5-0.2-1.1-0.4-1.5c0.4,0,0.8,0,0.9,0
			c0.1,0,0.2,0,0.2-0.2v-2.2h-1.2v5h-1.7v-5h-1.2V15h-1.6V9.6h2.8v-1h-3.4V7h1c-0.3-0.2-0.7-0.3-1-0.5c0.4-1,0.8-2.6,1-4.1l2,0.5
			c0,0.1-0.2,0.2-0.4,0.2c0,0.3-0.1,0.7-0.2,1h0.9V2l2.1,0.1c0,0.2-0.1,0.2-0.4,0.3v1.6h2.7v1.6H291.3z M288.2,5.7
			c-0.1,0.5-0.3,0.9-0.4,1.3h1.8V5.7H288.2z M297.1,4c0,0.1-0.1,0.2-0.4,0.3v8.1H295V3.9L297.1,4z M298.1,2.3l2.1,0.1
			c0,0.1-0.1,0.3-0.4,0.3v11.4c0,1.8-0.7,2.1-3.3,2.1c-0.1-0.5-0.3-1.3-0.5-1.8c0.8,0,1.6,0,1.8,0s0.3-0.1,0.3-0.3V2.3z"/>
		<path class="st1" d="M305.5,5.1v2.6c0,2.4-0.2,6.2-1.6,8.5c-0.3-0.3-1.1-0.8-1.5-1c1.3-2.1,1.3-5.3,1.3-7.5V3.5h5.4V2l2.3,0.1
			c0,0.1-0.1,0.2-0.4,0.3v1h5.5v1.6H305.5z M314.5,10.6l1.2,0.5c0,0.1-0.1,0.2-0.2,0.2c-0.6,1.1-1.5,2-2.5,2.7
			c1.1,0.3,2.4,0.5,3.7,0.6c-0.4,0.4-0.8,1.1-1.1,1.5c-1.7-0.2-3.3-0.6-4.6-1.2c-1.5,0.6-3.2,1-5,1.2c-0.1-0.4-0.5-1.1-0.8-1.5
			c1.4-0.1,2.8-0.3,4-0.7c-0.7-0.5-1.2-1-1.7-1.7l0.8-0.3H306v-1.4h8.2L314.5,10.6z M314.2,9.9H308V7.7h-2V6.3h2V5.2l2.1,0.1
			c0,0.2-0.1,0.2-0.4,0.3v0.7h2.7V5.2l2.2,0.1c0,0.2-0.1,0.2-0.4,0.3v0.7h2.3v1.4h-2.3V9.9z M309.3,12c0.5,0.5,1.1,0.9,1.8,1.3
			c0.7-0.4,1.3-0.8,1.8-1.3H309.3z M312.4,7.7h-2.7v0.9h2.7V7.7z"/>
		<path class="st1" d="M324.3,6.3c-0.7,2.2-2,5.2-3,6.8c-0.5-0.2-1.4-0.6-1.8-1c1.1-1.6,2.2-3.9,2.8-5.6c-0.7,0-1.4,0-2.1,0
			c-0.2-0.5-0.4-1.3-0.4-1.9c0.5,0.1,1.2,0.1,1.6,0.1c0.5,0,1,0,1.4,0c0.1-0.3,0.1-0.5,0.1-0.8c0.1-0.5,0.1-1,0.2-1.5
			c0.7,0.1,1.5,0.3,2,0.5c-0.1,0.5-0.2,1-0.3,1.6c0.7-0.2,1.4-0.3,2.2-0.6c0.2,0.4,0.3,1.2,0.3,1.7C326.6,5.9,325.5,6.1,324.3,6.3z
			 M329.6,13.5c0,1.4-0.8,2.4-2.8,2.4c-1.8,0-3.4-0.9-3.4-2.6c0-1.3,1.3-2.3,3.4-2.3c0.3,0,0.6,0,0.8,0c-0.1-1.2-0.1-2.7-0.1-3.5
			c0.6-0.2,1.5-0.1,1.9-0.1c-0.1,0.9-0.1,1.4-0.1,2.1c0,0.4,0,1.1,0.1,1.8c1.2,0.4,2.2,0.9,3,1.5c0,0.6-0.4,1.5-0.9,1.9
			c-0.6-0.6-1.3-1.1-2-1.5V13.5z M326.6,12.6c-0.9,0-1.4,0.3-1.4,0.8c0,0.5,0.5,0.9,1.3,0.9c1.1,0,1.2-0.6,1.2-1.5
			C327.3,12.6,327,12.6,326.6,12.6z M328.5,5.4c0.1-0.5,0.6-1.2,0.8-1.5c1.1,0.4,2.9,1.5,3.6,2.1c-0.1,0.5-0.5,1.2-0.9,1.6
			C331.1,6.8,329.4,5.8,328.5,5.4z"/>
		<path class="st1" d="M346,12.9c0.1,0.6,0,1.8-0.1,2.2c-0.7,0.2-2.2,0.5-4,0.5c-2.8,0-5.1-1.2-5-3.8c0-1.7,1.1-2.9,2.3-3.8
			c-0.9-1.3-1.9-2.9-2.4-3.9c0.4-0.4,1.2-0.9,1.7-1.1c0.7,1.6,1.5,3,2.2,4c1-0.7,2-1.2,2.7-1.7c0.5-0.3,1-0.7,1.2-1
			c0.5,0.6,0.9,1.2,1,1.7c-0.4,0.3-2.1,1.3-3.5,2.1c-0.1,0.4-0.1,0.9-0.2,1.2c-0.3,0.2-0.9,0.3-1.3,0.4c-0.2-0.1-0.3-0.2-0.5-0.4
			c-0.7,0.5-1.4,1.2-1.4,2.3c0,1.2,0.9,2,3,2C343.8,13.7,345.3,13.2,346,12.9z M346.1,3.4c0.3,0.4,0.8,1.2,1.1,1.7
			c-0.2,0.2-0.6,0.4-0.9,0.6c-0.3-0.6-0.7-1.3-1.1-1.8C345.5,3.7,345.9,3.5,346.1,3.4z M348.8,4.2c-0.2,0.2-0.6,0.4-0.9,0.6
			c-0.3-0.5-0.7-1.2-1.1-1.7c0.3-0.2,0.7-0.5,0.9-0.5C348,3,348.5,3.8,348.8,4.2z"/>
		<path class="st1" d="M364,9.4c0,3.3-1.8,5.6-5.3,6.2c-0.4-0.4-0.9-1.4-1.1-2c0.5,0,1-0.1,1.4-0.2c1.6-0.4,3-1.6,3-4
			c0-2.3-1.5-3.7-3.6-3.9c-0.1,1.1-0.3,2.8-0.6,4.1c-0.7,3-1.8,5.1-3.7,5.1c-1.6,0-3.1-2.1-3.1-4.6c0-3.7,2.9-6.4,6.9-6.4
			C361.3,3.6,364,5.9,364,9.4z M355.9,9.1c0.2-1,0.4-2.4,0.5-3.6c-2.4,0.6-3.5,2.6-3.5,4.3c0,1.6,0.7,2.5,1.3,2.5
			C354.8,12.3,355.4,11.1,355.9,9.1z"/>
		<path class="st1" d="M371.6,8.2V9c0.8,0.5,2.2,1.8,2.6,2.1l-1,1.5c-0.4-0.5-1-1.1-1.6-1.8v5.3h-1.8v-5.4c-0.6,1.4-1.4,2.6-2.2,3.5
			c-0.2-0.5-0.6-1.3-0.9-1.8c1-1,2.1-2.7,2.8-4.3H367V6.5h2.8V4.7c-0.8,0.2-1.6,0.4-2.4,0.5c-0.1-0.4-0.4-1-0.6-1.4
			c2.1-0.4,4.4-1,5.7-1.8l1.5,1.3c-0.1,0.1-0.2,0.1-0.4,0.1c-0.6,0.3-1.3,0.5-2.1,0.8v2.3h2.6v1.7H371.6z M377.1,4
			c0,0.1-0.1,0.2-0.4,0.3v8.1H375V3.9L377.1,4z M378.5,2.3l2.2,0.1c0,0.1-0.1,0.3-0.4,0.3V14c0,1.8-0.6,2.2-3.8,2.2
			c-0.1-0.5-0.4-1.4-0.6-1.9c1,0,2,0,2.3,0c0.3,0,0.4-0.1,0.4-0.4V2.3z"/>
		<path class="st1" d="M396.3,3v11c0,1.8-0.8,2.1-3.7,2c-0.1-0.5-0.3-1.3-0.6-1.7c0.5,0,1.1,0,1.5,0c0.9,0,1,0,1-0.4v-2.3h-3.3V16
			h-1.8v-4.2h-3.1c-0.3,1.7-0.8,3.3-1.9,4.5c-0.3-0.3-1-1-1.4-1.2c1.6-1.8,1.8-4.5,1.8-6.6V3H396.3z M386.7,8.2c0,0.5,0,1,0,1.8h2.9
			V8.2H386.7z M389.5,4.8h-2.8v1.8h2.8V4.8z M394.6,6.6V4.8h-3.3v1.8H394.6z M391.3,10.1h3.3V8.2h-3.3V10.1z"/>
		<path class="st1" d="M401,4.6c1-0.1,9.2-1.2,10.6-1.2c0.2,0.5,0.3,1.3,0.3,1.8c-0.6,0-1.6,0-2.5,0.3c-2.3,0.7-3.3,2.9-3.3,4.5
			c0,2.6,2.2,3.5,4.6,3.5c0,0.6-0.4,1.6-0.7,2c-2.9,0-5.9-1.5-5.9-5.1c0-2.2,1.1-3.8,2.3-4.8c-1.5,0.2-4.7,0.8-6.3,1.1
			c-0.3-0.4-0.6-1.5-0.7-2C400,4.7,400.7,4.7,401,4.6z M410.9,8.6c-0.2,0.2-0.6,0.4-1,0.5c-0.2-0.6-0.6-1.4-0.9-1.9
			c0.3-0.2,0.7-0.4,0.9-0.4C410.2,7.2,410.8,8.1,410.9,8.6z M412.7,7.9c-0.2,0.2-0.6,0.4-1,0.5c-0.2-0.5-0.7-1.3-1-1.9
			c0.3-0.2,0.7-0.4,1-0.4C412,6.5,412.5,7.4,412.7,7.9z"/>
	</g>
</g>
</svg>
