<svg id="レイヤー_1" data-name="レイヤー 1" xmlns="http://www.w3.org/2000/svg" viewBox="0 0 460 58"><defs><style>.cls-1{fill:#ff0;}.cls-2{fill:#00a0e9;}.cls-3{fill:#fff;}</style></defs><title>アートボード 1</title><rect class="cls-1" x="69" y="41.16" width="294" height="16"/><circle class="cls-2" cx="28" cy="28" r="28"/><path class="cls-3" d="M22.48,18.76V37H20l-3.23-11c-.31-1.15-.7-2.84-1-4.14.08,1.3.15,3.1.15,4.19V37H14V18.76h3l2.76,9.51c.31,1.15.7,2.84,1,4.11-.08-1.27-.19-3.07-.19-4.16V18.76Z"/><path class="cls-3" d="M28.46,37.24c-2.37,0-3.72-1.22-3.72-4v-6c0-2.79,1.35-4,3.72-4s3.69,1.22,3.69,4v6C32.15,36,30.8,37.24,28.46,37.24Zm0-12.32c-1.25,0-1.75.7-1.75,2v6.5c0,1.35.5,2.06,1.75,2.06s1.71-.71,1.71-2.06V27C30.17,25.62,29.68,24.92,28.46,24.92Z"/><path class="cls-3" d="M34.46,33.6h1.95V37H34.46Z"/><path class="cls-3" d="M38.41,19.85h1.17a1.11,1.11,0,0,0,1.28-1.09H42V37H40V21.51H38.41Z"/><path class="cls-2" d="M98.5,43.15v3.3H86.83v3.93c0,3.3-1.56,3.87-7.8,3.87a14.48,14.48,0,0,0-1.44-3.48c1.23.06,2.58.09,3.54.09,1.86,0,2,0,2-.6V46.45H71.53v-3.3H83.14V41.08l1.77.09a17.71,17.71,0,0,0,2.22-1.74H76.9V36.31H90.52l.57-.18,2.73,1.62a1,1,0,0,1-.66.42,31.88,31.88,0,0,1-6.09,5Zm-23-9.24v4.17H72.07V30.7h4a21,21,0,0,0-2.1-3.12L77,26.23a17.74,17.74,0,0,1,2.88,4.11l-.78.36h4.38a26.6,26.6,0,0,0-2-3.78l3.18-1.17a19.21,19.21,0,0,1,2.46,4.56l-1,.39h3.9a30.76,30.76,0,0,0,2.73-4.59c4,1.44,4.11,1.47,4.2,1.54a.88.88,0,0,1-.87.29,27,27,0,0,1-2,2.76h4v7.38H94.63V33.91Z"/><path class="cls-2" d="M123.1,49.6v0c2.94.93,6.12,2.07,8,2.88l-4,1.74A62.33,62.33,0,0,0,119.05,51l2.34-1.44h-8.25L116,51a.72.72,0,0,1-.57.24.83.83,0,0,1-.27,0,52.91,52.91,0,0,1-9.09,3,25.85,25.85,0,0,0-2.37-2.43,42.63,42.63,0,0,0,7.92-2.22H107.5V40.87c-.69.15-1.44.3-2.25.42a11.1,11.1,0,0,0-1.71-2.76c3.63-.48,5.82-1.26,7.08-2.22H108.1l-.12.3-3.27-.18a47.46,47.46,0,0,0,1.89-5.52h5.76v-1.2H105v-2.1h7.35V25.94l4,.21c0,.27-.24.44-.75.54v.92H119V25.94l4.2.21c0,.29-.27.47-.78.56v.9h6.42V33h-6.42v1.17h5.76l.75-.06,1.89.18a6.9,6.9,0,0,1-.09.78c-.21,3.45-.63,4.26-3.06,4.41V49.6ZM109.24,33l-.39,1.17h3.27a4.76,4.76,0,0,0,.21-1.17ZM124,41.23V40H111v1.2Zm0,3.15V43.15H111v1.23ZM111,46.3v1.26h13V46.3Zm8-10h-4.11a6.41,6.41,0,0,1-1.2,1.68H119Zm0-2.1V33H115.6a7.68,7.68,0,0,1-.09,1.17Zm-3.39-4.5v1.2H119v-1.2Zm10,0h-3.15v1.2h3.15ZM125,38a4.71,4.71,0,0,0-.27-.69,14.79,14.79,0,0,0,1.68.12c.6,0,.78-.18.9-1.11h-4.83V38Z"/><path class="cls-2" d="M155.47,39.52c0,3.75-1,8.34-2.64,10.77a4,4,0,0,1-3.75,2.19A13,13,0,0,1,144,51.1a12.08,12.08,0,0,1-.09-4.14,10.73,10.73,0,0,0,4.2,1.53,1.76,1.76,0,0,0,1.8-1c1.11-1.62,1.83-5.07,1.83-7.71,0-2.28-1-3.12-2.88-3.12a16.78,16.78,0,0,0-2.43.3c-1.59,4.47-4.56,12.39-6.45,15.81a11.27,11.27,0,0,1-3.78-1.92,78.34,78.34,0,0,0,6.09-13.14c-1.53.27-3.18.54-4.8.72a11.81,11.81,0,0,1-.87-3.84,28.66,28.66,0,0,0,3.57-.15c.9-.09,2.07-.24,3.33-.42a58.15,58.15,0,0,0,1.5-6.33,14.11,14.11,0,0,1,4.08,1.41c-.33,1.05-.81,2.43-1.47,4.38a20.16,20.16,0,0,1,2.46-.18C153,33.28,155.47,35.32,155.47,39.52Zm8.43,2.28a9.4,9.4,0,0,1-3.27,2.07,28.23,28.23,0,0,0-4.86-9,18.48,18.48,0,0,1,3-1.8A31.7,31.7,0,0,1,163.9,41.8Zm-5.16-9.09a18.54,18.54,0,0,0-2.43-3.33,7.15,7.15,0,0,1,1.8-1.14,20.87,20.87,0,0,1,2.49,3.27A6.87,6.87,0,0,1,158.74,32.71Zm3.06-1.92a19.23,19.23,0,0,0-2.46-3.24,9.63,9.63,0,0,1,1.8-1.17,19.54,19.54,0,0,1,2.52,3.21A7.37,7.37,0,0,1,161.8,30.79Z"/><path class="cls-2" d="M175.3,28.88c-.12,2.18-.24,11.3-.27,14.33a24.54,24.54,0,0,1-4.2,0c.12-2.22.24-10.35.24-12.06a24,24,0,0,0-.15-2.43C171.85,28.72,174.13,28.78,175.3,28.88Zm12.3,7.73c0,7.23-1.35,10.11-3.63,12.66a17.61,17.61,0,0,1-7,4.53,17.83,17.83,0,0,1-3.21-3.45,13.66,13.66,0,0,0,7.14-3.75c2.19-2.49,2.64-5.46,2.64-10.5,0-1.53,0-2.85,0-4.47-.06-1.26-.12-2.22-.21-3.12a26.94,26.94,0,0,1,4.38.21c-.06.84-.06,2-.06,2.79Z"/><path class="cls-2" d="M201,38.44c6.72,0,16.47-.12,19.92-.18a26.39,26.39,0,0,1,.15,4.38c-4.53-.18-20.55.06-24.6,0a29.8,29.8,0,0,1-.3-4.44C197.11,38.32,199.33,38.44,201,38.44Z"/><path class="cls-2" d="M251.38,49.78a9.5,9.5,0,0,1-3.09,3.09,51.06,51.06,0,0,0-7.53-8.37,36,36,0,0,1-11.34,8.19,17.31,17.31,0,0,1-3.06-3.48,30.65,30.65,0,0,0,12.27-8.1,22.49,22.49,0,0,0,4.59-6.93c-3.12,0-11.46.24-13.65.33a30.61,30.61,0,0,1-.48-3.93c.93.09,2,.15,3,.15,1.41,0,10.29-.15,12.09-.24a14.35,14.35,0,0,0,1.95-.21,12.76,12.76,0,0,1,2.37,2.64,47.65,47.65,0,0,1-5.25,8.67A57.27,57.27,0,0,1,251.38,49.78Zm-2.28-17.7a23.08,23.08,0,0,0-2.22-3.68,10.65,10.65,0,0,1,1.74-1A22.22,22.22,0,0,1,250.87,31,6.13,6.13,0,0,1,249.1,32.08ZM254,29.56a5.9,5.9,0,0,1-1.74,1A22,22,0,0,0,250.06,27a10.49,10.49,0,0,1,1.74-1A19.59,19.59,0,0,1,254,29.56Z"/><path class="cls-2" d="M273,34.45c3.57,0,6.66-.09,7.29-.09s2.13-.06,2.82-.09a19.08,19.08,0,0,1,.15,3.93c-.84,0-1.74-.06-2.64-.06l-7.62.09C273,45,270.49,50.08,262.87,53.29a11.16,11.16,0,0,1-3.3-3.3c6.78-1.92,9.33-5.82,9.45-11.73l-8.16.06c-.84,0-2.07,0-2.88.06a25.69,25.69,0,0,1-.3-4c.87.06,1.74.06,2.76.09.81,0,4.56,0,8.58,0V32a28.74,28.74,0,0,0-.24-4.41,27.91,27.91,0,0,1,4.35.16c-.06,1.07-.09,2.69-.09,3.59Z"/><path class="cls-2" d="M305.32,44.44a23.78,23.78,0,0,1-11.49,8.7,11.64,11.64,0,0,1-3.48-3.75c4.47-1,8-2.76,10.92-6.33a17.31,17.31,0,0,0,3.42-8.16c-2.67,0-13.68.18-16.29.24a32.23,32.23,0,0,1-.36-4.32c1.26.09,2.67.18,3.69.18,1.74,0,11.22-.09,13-.15a11.54,11.54,0,0,0,2-.15,15.63,15.63,0,0,1,2.79,3.06A29.54,29.54,0,0,1,305.32,44.44Zm6.24-13a5.73,5.73,0,0,1-1.8,1.08,21.74,21.74,0,0,0-2.22-3.72,10,10,0,0,1,1.74-1A23,23,0,0,1,311.56,31.48ZM314.62,30a6.32,6.32,0,0,1-1.74,1,22.68,22.68,0,0,0-2.22-3.6,9.21,9.21,0,0,1,1.74-1A18.58,18.58,0,0,1,314.62,30Z"/><path class="cls-2" d="M322.87,34.3a25.92,25.92,0,0,0-.24-3.87,33.42,33.42,0,0,1,4.23.3c0,11,.48,16-5.79,21.57a12.31,12.31,0,0,1-3.57-2.91,10,10,0,0,0,2-1.56C322.66,44.56,322.87,41.14,322.87,34.3Zm8.28,15.87a8.35,8.35,0,0,0,.24-1.92c.06-2.73.21-11.19.15-15.75,0-1-.06-1.92-.12-2.67a35.75,35.75,0,0,1,4.2.39c-.18,2.19-.33,13.29-.33,16.47,2.79-1,5.91-4.41,7.5-8.4a12.48,12.48,0,0,1,2.67,3.48,20.16,20.16,0,0,1-10.59,9.75c-.45.15-.87.33-1.35.54A19.26,19.26,0,0,1,331.15,50.17Z"/><path class="cls-2" d="M352,48.91a2.87,2.87,0,1,1,5.73,0,2.87,2.87,0,1,1-5.73,0Zm1.2-5.1-.75-15.45h5l-.72,15.45Z"/><path class="cls-2" d="M86.61,13.28H81.26c1.12,1.23,3,1.84,5.7,2a7.32,7.32,0,0,0-1.15,1.78c-3.37-.38-5.32-1.46-6.58-3.6-.8,1.69-2.48,2.88-6.61,3.57a5.88,5.88,0,0,0-1-1.73c3-.4,4.59-1.06,5.39-2H71.94V11.59H77.8c.07-.3.11-.64.16-1H72V8.89h6.26V8.07h-4.6V6.46h4.6V5.67H72.74V4h2.92a7.34,7.34,0,0,0-.88-1.38l1.65-.66a6.43,6.43,0,0,1,1.2,1.86l-.4.18h3.69l-.25-.1a11.08,11.08,0,0,0,1.15-1.95l2.24.73c-.06.13-.21.18-.43.18-.24.34-.58.75-.9,1.14h3V5.67H80.2v.79h4.74V8.07H80.2v.82h6.36V10.6H80.38a.48.48,0,0,1-.42.24l-.14.75h6.79Z"/><path class="cls-2" d="M104.08,11.69v1.62H100.6v1.87c0,1.68-.72,1.87-3.79,1.87a6.42,6.42,0,0,0-.59-1.69c.86,0,1.87,0,2.14,0s.36-.06.36-.28V13.31H93.48a11,11,0,0,1,2.11,1.95L94.06,16.4a11.9,11.9,0,0,0-2.31-2.28l1.15-.81H89.45V11.69h9.27v-.86H91.18V5.34H95.8V4.6h-6V3h6V2l2.32.13c0,.16-.12.25-.43.3V3h6.12V4.6H97.69v.74h4.88v5.49H101c0,.14-.13.25-.42.3v.56ZM93,6.63v.84H95.8V6.63ZM93,8.7v.81H95.8V8.7Zm7.71-2.07h-3v.84h3Zm0,2.88V8.7h-3v.81Z"/><path class="cls-2" d="M112.19,10.63a33.39,33.39,0,0,0-2.34,5.7,6.51,6.51,0,0,1-1.67-.16,21.09,21.09,0,0,1-.46-4.75,56.59,56.59,0,0,1,.45-6.64c.06-.53.14-1.27.17-1.8a8,8,0,0,1,2.18.45,41.17,41.17,0,0,0-.82,5.91,20.31,20.31,0,0,0,0,2.22c0,.26.1.24.2,0,.19-.43.54-1.31.85-2.06A4.66,4.66,0,0,1,112.19,10.63Zm9.52,2.69a4.89,4.89,0,0,1-.69,2,8.37,8.37,0,0,0-2-1.5c-.06,1.39-.75,2.51-3,2.51-2.13,0-3.53-1.07-3.53-2.61,0-1.31.9-2.45,3.21-2.45.46,0,.91,0,1.32.08,0-1.21-.12-2.72-.16-3.95-1.28.06-2.53.06-3.47,0a6.57,6.57,0,0,1-.35-2,21.79,21.79,0,0,0,3.82.14c0-1.18,0-2.14,0-2.66a10.76,10.76,0,0,1,2.11.24c-.06.76-.11,1.51-.13,2.26A12.23,12.23,0,0,0,121.1,5a6,6,0,0,1,0,1.9,15,15,0,0,1-2.31.39c0,1.79.13,3.26.21,4.57A9.57,9.57,0,0,1,121.71,13.32Zm-4.64-.2a6.18,6.18,0,0,0-1.46-.18c-.94,0-1.34.3-1.34.78s.57.85,1.44.85C116.81,14.57,117.07,14.06,117.07,13.12Z"/><path class="cls-2" d="M129.5,2.73a.39.39,0,0,1-.45.17c-.37,1-.78,2-1.25,2.93l.55.18c0,.13-.16.24-.42.27V17.09h-1.87V8.94a18.57,18.57,0,0,1-1.28,1.71,18.61,18.61,0,0,0-.88-2A20.31,20.31,0,0,0,127.38,2Zm2.21,11.15c0,1,.14,1.16,1.25,1.16h3.5c1,0,1.15-.37,1.31-2a5.87,5.87,0,0,0,1.73.72c-.27,2.29-.86,3.07-2.88,3.07h-3.78c-2.35,0-3-.59-3-2.91V9.55l-1.21.41L128,8.27l1.8-.61V3.29l2.28.13c0,.14-.13.24-.4.28V7l1.69-.58V2.23l2.23.13c0,.16-.13.24-.4.3V5.83l2-.65.35-.26,1.51.56a.55.55,0,0,1-.24.24c0,2.83,0,4.82-.1,5.49-.06,1.22-.59,1.79-2.8,1.73a5.88,5.88,0,0,0-.43-1.78c.37,0,.86,0,1,0s.33,0,.4-.35.06-1.37.06-3.73l-1.74.61v5.51H133.4V8.33l-1.69.58Z"/><path class="cls-2" d="M156.35,9.79c0,3.53-1.95,6-5.7,6.57a6.57,6.57,0,0,1-1.17-2.09,8.33,8.33,0,0,0,1.51-.21,4,4,0,0,0,3.17-4.29,4,4,0,0,0-3.86-4.21,25.94,25.94,0,0,1-.61,4.39c-.74,3.17-1.89,5.44-4,5.44-1.7,0-3.35-2.19-3.35-4.93,0-3.91,3.11-6.82,7.33-6.82C153.48,3.64,156.35,6,156.35,9.79Zm-8.66-.26a23,23,0,0,0,.51-3.83,4.8,4.8,0,0,0-3.78,4.61c0,1.7.74,2.63,1.35,2.63C146.55,12.94,147.19,11.63,147.69,9.53Z"/><path class="cls-2" d="M174.21,13.28h-5.35c1.12,1.23,3,1.84,5.7,2a7.32,7.32,0,0,0-1.15,1.78c-3.37-.38-5.32-1.46-6.58-3.6-.8,1.69-2.48,2.88-6.61,3.57a5.88,5.88,0,0,0-1-1.73c3.05-.4,4.59-1.06,5.39-2h-5.11V11.59h5.86c.07-.3.11-.64.16-1h-6V8.89h6.26V8.07h-4.6V6.46h4.6V5.67h-5.48V4h2.92a7.34,7.34,0,0,0-.88-1.38L164,1.94a6.43,6.43,0,0,1,1.2,1.86l-.4.18h3.69l-.25-.1a11.08,11.08,0,0,0,1.15-1.95l2.24.73c-.06.13-.21.18-.43.18-.24.34-.58.75-.9,1.14h3V5.67H167.8v.79h4.74V8.07H167.8v.82h6.36V10.6H168a.48.48,0,0,1-.42.24l-.14.75h6.79Z"/><path class="cls-2" d="M181.48,2.74a.37.37,0,0,1-.41.15,25.67,25.67,0,0,1-3.22,3.66,15.33,15.33,0,0,0-1.07-1.37,14.92,14.92,0,0,0,2.72-3.24Zm5.89,4.52h-2.08V16.8H183.5V7.26h-2.15V6.39h-.09c-.29.66-.61,1.33-1,2l.42.13c0,.13-.16.24-.4.27v8.26h-1.76V11.28c-.29.39-.56.76-.85,1.1a12.41,12.41,0,0,0-.91-1.68,18.85,18.85,0,0,0,2.94-5.2l1.63.59V5.54h2.15V2.2l2.19.13c0,.14-.13.24-.4.29V5.54h2.08Zm-4.06,2a.31.31,0,0,1-.34.21,18.63,18.63,0,0,1-1.14,5.59,8.35,8.35,0,0,0-1.15-.85,18.7,18.7,0,0,0,.83-5.31Zm3.37-6.8a11.23,11.23,0,0,1,1.08,2.08l-1.35.61a11.13,11.13,0,0,0-1-2.16ZM186.24,14a37.08,37.08,0,0,0-.63-4.8C186.86,9,186.89,9,186.92,9a37.22,37.22,0,0,1,.72,4.81Zm5.66-6.66V9.08h-1.25V15c0,1.68-.54,2.07-3.1,2.07a6.59,6.59,0,0,0-.53-1.88c.66,0,1.33,0,1.54,0s.27,0,.27-.26V9.08h-1.41V7.37Zm-.22-4.55V4.5h-3.8V2.82Z"/><path class="cls-2" d="M200,13.61a.43.43,0,0,1-.32.15.32.32,0,0,1-.13,0,20,20,0,0,1-3.67,3.06,11.28,11.28,0,0,0-1.58-1.25,12.56,12.56,0,0,0,3.47-2.87Zm5.68-5.55a25.29,25.29,0,0,1,3.81,3.79L207.79,13c-.19-.3-.47-.65-.78-1-1.38,0-2.77.1-4.13.13V17h-2.07V12.16c-2,0-3.89.09-5.35.11a.36.36,0,0,1-.33.24l-.69-2.15h3.5c.37-.25.76-.54,1.14-.85a25,25,0,0,0-3.31-2.46l1.33-1.23.78.46a16.13,16.13,0,0,0,1.41-1.55c-1.31.06-2.63.11-3.87.13A6.78,6.78,0,0,0,195,3.13a76.17,76.17,0,0,0,12-1l1.39,1.7a.62.62,0,0,1-.26.06.82.82,0,0,1-.21,0,55.14,55.14,0,0,1-6.13.74l.39.21a.54.54,0,0,1-.5.14,26.57,26.57,0,0,1-2.3,2.37c.44.32.88.66,1.24,1a34.86,34.86,0,0,0,3.56-3.49l2.05,1.18a.68.68,0,0,1-.53.17,45,45,0,0,1-4.84,4.24l4.57-.07c-.45-.43-.9-.85-1.32-1.21Zm1.81,8.74a23.63,23.63,0,0,0-3.72-3.11c.58-.41,1.09-.75,1.6-1.1a25.41,25.41,0,0,1,3.85,3Z"/><path class="cls-2" d="M226.62,11.15v1.76H220.4V15c0,1.77-.84,2.07-4.17,2.07a8,8,0,0,0-.76-1.86c.65,0,1.37,0,1.88,0,1,0,1.08,0,1.08-.32v-2h-6.2V11.15h6.2V10l.94.05a8.86,8.86,0,0,0,1.19-.93H215.1V7.5h7.26l.31-.1,1.45.87a.51.51,0,0,1-.35.22,17,17,0,0,1-3.25,2.66ZM214.33,6.22V8.44h-1.81V4.5h2.11a11.79,11.79,0,0,0-1.12-1.66l1.64-.72a9.5,9.5,0,0,1,1.53,2.19l-.41.19h2.33a13.26,13.26,0,0,0-1-2l1.7-.63a10.29,10.29,0,0,1,1.31,2.44l-.53.2h2.08a15.72,15.72,0,0,0,1.46-2.44c2.15.76,2.19.78,2.24.81a.44.44,0,0,1-.46.16A13.33,13.33,0,0,1,224.3,4.5h2.15V8.44h-1.89V6.22Z"/><path class="cls-2" d="M233.43,7.87c.45.59,1.73,2.52,2,3l-1.06,1.44a19.26,19.26,0,0,0-1-2V17h-1.77V11a13.67,13.67,0,0,1-1.56,3.27,8.61,8.61,0,0,0-.88-1.74,16.12,16.12,0,0,0,2.29-5.43h-1.9V5.27h2V1.94l2.19.13c0,.15-.13.24-.42.29V5.27h1.76V7.05h-1.76ZM242.08,6a15.25,15.25,0,0,1,2.51,3.38l-1.62.94a4.94,4.94,0,0,0-.3-.62h-.11a12.17,12.17,0,0,1-1.62,3.32,9.74,9.74,0,0,0,3.7,2.3,8.41,8.41,0,0,0-1.35,1.72,10.4,10.4,0,0,1-3.6-2.52,11,11,0,0,1-4.1,2.53,7.67,7.67,0,0,0-1-1.52,9.44,9.44,0,0,0,3.94-2.43,15.79,15.79,0,0,1-1.7-3.3,7.69,7.69,0,0,1-.66.62,8,8,0,0,0-1.31-1.21,9.28,9.28,0,0,0,2.39-3.15l1.95.81a.34.34,0,0,1-.37.16,13.41,13.41,0,0,1-1.63,2.37l1.2-.34a11.17,11.17,0,0,0,1.29,2.5A10.24,10.24,0,0,0,240.78,9l1.68.37a18.92,18.92,0,0,0-1.87-2.5Zm2.29-1.84V6h-9V4.2h3.49V1.94l2.32.13c0,.16-.14.26-.43.32V4.2Z"/><path class="cls-2" d="M252.55,6.52a34.59,34.59,0,0,1-3.25,7.27,5.36,5.36,0,0,1-1.93-1.06,27.27,27.27,0,0,0,3-6c-.74,0-1.51,0-2.26,0a4.89,4.89,0,0,1-.4-2,12.35,12.35,0,0,0,1.68.14c.51,0,1,0,1.54,0,.06-.3.11-.57.16-.86.09-.56.16-1.11.19-1.62a6.71,6.71,0,0,1,2.14.55c-.08.51-.2,1.08-.35,1.68a14.05,14.05,0,0,0,2.32-.69,3.88,3.88,0,0,1,.29,1.81A13.1,13.1,0,0,1,252.55,6.52Zm5.61,7.64c0,1.5-.9,2.57-3,2.57s-3.59-1-3.59-2.77c0-1.36,1.43-2.48,3.62-2.48a8.33,8.33,0,0,1,.88,0C256,10.2,256,8.63,256,7.77a5.41,5.41,0,0,1,2-.06A17.9,17.9,0,0,0,258,10c0,.43.05,1.2.08,2a11.09,11.09,0,0,1,3.24,1.65,3.36,3.36,0,0,1-.95,2A8.12,8.12,0,0,0,258.16,14Zm-3.14-1c-1,0-1.52.3-1.52.8s.54.91,1.41.91c1.2,0,1.25-.69,1.25-1.6A5.57,5.57,0,0,0,255,13.18Zm2-7.62a5.24,5.24,0,0,1,.9-1.57,15.8,15.8,0,0,1,3.82,2.26,4.58,4.58,0,0,1-1,1.74A12.53,12.53,0,0,0,257,5.56Z"/><path class="cls-2" d="M275.72,13.53a5.59,5.59,0,0,1-.16,2.4,15.09,15.09,0,0,1-4.3.58c-3,0-5.43-1.23-5.38-4.08a5.1,5.1,0,0,1,2.43-4.07,28.09,28.09,0,0,1-2.51-4.19A5.63,5.63,0,0,1,267.66,3,20.15,20.15,0,0,0,270,7.21c1.12-.7,2.09-1.3,2.85-1.81a13,13,0,0,0,1.32-1,7.19,7.19,0,0,1,1.12,1.85c-.38.32-2.28,1.4-3.69,2.21-.07.43-.15.93-.19,1.31a7.18,7.18,0,0,1-1.38.47,3.34,3.34,0,0,1-.56-.45A3.18,3.18,0,0,0,268,12.22c0,1.26,1,2.18,3.22,2.18A10.65,10.65,0,0,0,275.72,13.53Zm.08-10.11A11.08,11.08,0,0,1,277,5.26a3.19,3.19,0,0,1-1,.59A10.28,10.28,0,0,0,274.83,4,3.5,3.5,0,0,1,275.8,3.42Zm2.82.89a2.8,2.8,0,0,1-1,.59,10.83,10.83,0,0,0-1.15-1.84,4.31,4.31,0,0,1,1-.57A11.57,11.57,0,0,1,278.62,4.31Z"/><path class="cls-2" d="M291.79,13.52a5.8,5.8,0,0,1-.16,2.38,14.39,14.39,0,0,1-4.31.59c-3,0-5.41-1.21-5.37-4.08a5,5,0,0,1,2.43-4.06,29,29,0,0,1-2.48-4.18A5.81,5.81,0,0,1,283.75,3a19.28,19.28,0,0,0,2.36,4.21c1.36-.85,2.88-1.76,3.65-2.29a11,11,0,0,0,1.36-1,7.42,7.42,0,0,1,1.05,1.89c-.41.34-2.81,1.7-4.45,2.66-.08.45-.16.94-.2,1.34a6.43,6.43,0,0,1-1.37.47,3,3,0,0,1-.57-.47,3.18,3.18,0,0,0-1.51,2.45c0,1.27,1,2.18,3.22,2.18A10.9,10.9,0,0,0,291.79,13.52Z"/><path class="cls-2" d="M299.53,8.62V14l3.52-.56.11,1.76c-2.43.51-5,1-6.64,1.31a.35.35,0,0,1-.29.29l-.8-2.21c.61-.08,1.33-.17,2.11-.29V2.14l2.42.14c0,.16-.14.26-.43.3V6.73h3.18V8.62Zm6.11,5.28c0,.93.08,1.06.71,1.06h1.74c.63,0,.72-.56.83-2.76a5.7,5.7,0,0,0,1.8.84c-.19,2.73-.71,3.79-2.44,3.79h-2.22c-1.87,0-2.4-.66-2.4-2.95V2.14l2.43.14c0,.16-.14.26-.45.3V7.37A24,24,0,0,0,309,5.5l1.52,1.73c-.08.08-.24.08-.43.08a36.17,36.17,0,0,1-4.42,1.93Z"/><path class="cls-2" d="M320,14.49h-2.66v2.56h-1.71V14.49H313V12.81h2.69v-1h-2.18V6h2.18V5.16h-2.53V3.5h2.53V2l2.11.13c0,.14-.13.22-.4.27V3.5h2.46V5.16h-2.46V6h2.26v5.84h-2.26v1H320Zm-5.16-7.14v1h1v-1Zm0,2.21v1h1v-1Zm3.32-1.26v-1h-1v1Zm0,2.22v-1h-1v1Zm8.45-.8-.07-.16a12.26,12.26,0,0,1-1.5,3.68,8,8,0,0,0,3.26,2.29,6.34,6.34,0,0,0-1.21,1.56,9,9,0,0,1-3.2-2.36,10.78,10.78,0,0,1-3.46,2.37,8.59,8.59,0,0,0-1.2-1.5,9.08,9.08,0,0,0,3.55-2.4,15.45,15.45,0,0,1-1.55-3.69l-.26.26a10.29,10.29,0,0,0-1.36-1.06,8.18,8.18,0,0,0,2-3.12l2,.61a.38.38,0,0,1-.4.16A10.78,10.78,0,0,1,321.68,9l1.15-.25a13.15,13.15,0,0,0,1.1,2.81A10.57,10.57,0,0,0,325,8.7l1.34.27a22.53,22.53,0,0,0-1.63-2.75l1.46-.68h-6.07V3.8h3V1.94l2.33.12c0,.16-.14.25-.43.32V3.8h3.15V5.54h-1.84a18.28,18.28,0,0,1,2,3.37Z"/><path class="cls-2" d="M335.47,3.06c-.05.71-.48,6.9-.48,9.1,0,1.69.83,2.33,2.17,2.33a6.55,6.55,0,0,0,5.19-2.82,7.92,7.92,0,0,1,1,2.17A9.29,9.29,0,0,1,337,16.7c-2.47,0-4.13-1.22-4.13-3.92,0-2.21.27-6.74.29-8.16a16.22,16.22,0,0,0,0-1.78A15.52,15.52,0,0,1,335.47,3.06Z"/><path class="cls-2" d="M347.32,4.73c1.09-.13,9.8-1.31,11.32-1.31A5.83,5.83,0,0,1,359,5.35a7.74,7.74,0,0,0-2.64.32,5.11,5.11,0,0,0-3.57,4.84c0,2.8,2.33,3.71,4.91,3.71a4.9,4.9,0,0,1-.77,2.16c-3.05,0-6.34-1.6-6.34-5.44A6.37,6.37,0,0,1,353,5.83c-1.58.2-5,.88-6.69,1.12a8,8,0,0,1-.73-2.11C346.23,4.82,347,4.76,347.32,4.73Z"/></svg>