<svg id="レイヤー_1" data-name="レイヤー 1" xmlns="http://www.w3.org/2000/svg" viewBox="0 0 460 58"><defs><style>.cls-1{fill:#ff0;}.cls-2{fill:#00a0e9;}.cls-3{fill:#fff;}</style></defs><title>feature_hd5</title><rect class="cls-1" x="70" y="41.04" width="390" height="15.96"/><ellipse class="cls-2" cx="28" cy="27.92" rx="28" ry="27.92"/><path class="cls-3" d="M20.36,18.71V36.86H17.89l-3.23-11c-.31-1.15-.7-2.83-1-4.13.08,1.3.15,3.09.15,4.18v11H11.91V18.71h3l2.76,9.49c.31,1.14.7,2.82,1,4.09-.08-1.27-.19-3.06-.19-4.15V18.71Z"/><path class="cls-3" d="M26.34,37.14c-2.37,0-3.72-1.22-3.72-4v-6c0-2.77,1.35-4,3.72-4s3.69,1.22,3.69,4v6C30,35.92,28.68,37.14,26.34,37.14Zm0-12.29c-1.25,0-1.75.7-1.75,2v6.48c0,1.35.5,2,1.75,2s1.71-.7,1.71-2V26.9C28.05,25.55,27.56,24.85,26.34,24.85Z"/><path class="cls-3" d="M32.34,33.51h1.95v3.35H32.34Z"/><path class="cls-3" d="M38.63,30.5v2.8c0,1.33.5,2.13,1.75,2.13s1.74-.8,1.74-2.13V27c0-1.61-.52-2.05-1.54-2.05a2.13,2.13,0,0,0-1.95,2.29v1.11H36.81V18.71H44v2H38.63V25a2.86,2.86,0,0,1,2.68-1.76c1.59,0,2.78.83,2.78,3.63V33c0,2.8-1.32,4.1-3.64,4.1s-3.64-1.3-3.64-4.1V30.5Z"/><path class="cls-2" d="M86.07,12.55H81.55A7.39,7.39,0,0,0,86.35,18a6.25,6.25,0,0,0-1.1,1.44,8.09,8.09,0,0,1-4.77-5.1,8.26,8.26,0,0,1-4.81,5.12,4.57,4.57,0,0,0-1.11-1.32,7.07,7.07,0,0,0,4.71-5.58H74.8V11h4.68c.09-1.12.08-2.27.09-3.4l2,.13c0,.14-.14.23-.35.26,0,1,0,2-.11,3h5Z"/><path class="cls-2" d="M91.58,8.08l.94.48a.3.3,0,0,1-.11.19c-.26,1-.68,2.35-1,3.36a3.75,3.75,0,0,1,1.1,2.47c0,1.89-1.12,2-2.2,2a3,3,0,0,0-.32-1.25c.23,0,.43,0,.58,0,.42,0,.58-.26.58-.9a3.56,3.56,0,0,0-1-2.17c.26-.81.53-1.92.73-2.79h-1v10H88.49V8.13h2.86Zm2.87,3.5H98.3l.25-.05.89.29a.59.59,0,0,1-.12.22,11.39,11.39,0,0,1-1.69,4.72A6.73,6.73,0,0,0,100,18.2a6,6,0,0,0-1,1.26,7.42,7.42,0,0,1-2.32-1.57,8,8,0,0,1-2.28,1.57,5.19,5.19,0,0,0-.87-1.25,6.07,6.07,0,0,0,2.2-1.48,11.34,11.34,0,0,1-1.34-2.8h0a11,11,0,0,1-1.7,5.48,5,5,0,0,0-1.15-.91C92.92,16.66,93,13.94,93,12V8.28h6.69V9.64H94.45Zm0,1.77,1-.24a8.89,8.89,0,0,0,1.15,2.45,8.56,8.56,0,0,0,1-2.62H94.44Z"/><path class="cls-2" d="M113.17,15.21h-6.28a.41.41,0,0,1-.36.14,20.2,20.2,0,0,1-1.09,2.1l4.43-.15a18.12,18.12,0,0,0-1.3-1.32l1.3-.71a15.72,15.72,0,0,1,3.06,3.45l-1.43.8a5.17,5.17,0,0,0-.56-.9c-3,.18-6,.34-8,.42a.26.26,0,0,1-.25.2L102,17.53l1.71,0a20,20,0,0,0,1-2.29h-3.13V13.82h11.53ZM104.41,11v-.91h-2.64V8.75h2.64V7.59l1.83.09c0,.13-.12.2-.34.25v.82h2.95V7.59l1.84.09c0,.14-.11.2-.33.25v.82H113v1.38h-2.68V11h-1.51v-.91H105.9V11ZM103,12.81V11.44h8.79v1.37Z"/><path class="cls-2" d="M118.61,8.21a.28.28,0,0,1-.32.11,20.33,20.33,0,0,1-2.54,2.88,12.07,12.07,0,0,0-.84-1.08,11.47,11.47,0,0,0,2.14-2.54Zm4.64,3.54h-1.64v7.49H120.2V11.75h-1.69v-.68h-.07c-.23.52-.48,1-.77,1.58l.33.1a.34.34,0,0,1-.32.21v6.49h-1.39V14.91q-.33.46-.66.87a10,10,0,0,0-.72-1.32,15,15,0,0,0,2.32-4.09l1.28.47v-.43h1.69V7.78l1.73.1c0,.12-.1.19-.32.23v2.3h1.64Zm-3.2,1.59c0,.1-.11.16-.26.16a14.72,14.72,0,0,1-.9,4.39,6.29,6.29,0,0,0-.91-.67,14.9,14.9,0,0,0,.66-4.17ZM122.71,8a8.18,8.18,0,0,1,.84,1.63l-1,.48a8.84,8.84,0,0,0-.8-1.7Zm-.35,9.07a28.81,28.81,0,0,0-.5-3.77l1-.21a32.37,32.37,0,0,1,.57,3.77Zm4.46-5.23v1.35h-1v4.62c0,1.32-.42,1.62-2.44,1.62A5,5,0,0,0,123,18c.52,0,1,0,1.21,0s.22,0,.22-.2v-4.6h-1.11V11.84Zm-.18-3.57V9.59h-3V8.27Z"/><path class="cls-2" d="M140,12.55h-4.52a7.39,7.39,0,0,0,4.8,5.44,6.54,6.54,0,0,0-1.1,1.44,8.09,8.09,0,0,1-4.77-5.1,8.27,8.27,0,0,1-4.8,5.12,4.91,4.91,0,0,0-1.11-1.32,7.06,7.06,0,0,0,4.7-5.58h-4.46V11h4.67c.09-1.12.08-2.27.09-3.4l2,.13c0,.14-.13.23-.35.26,0,1,0,2-.11,3h5Z"/><path class="cls-2" d="M153.54,14.81v1.38h-4.91v1.65c0,1.38-.65,1.62-3.27,1.62a6,6,0,0,0-.61-1.46c.52,0,1.09,0,1.49,0,.78,0,.84,0,.84-.25v-1.6h-4.87V14.81h4.87v-.87l.75,0a9.33,9.33,0,0,0,.93-.73h-4.3V11.94h5.72l.24-.07,1.15.68a.42.42,0,0,1-.28.17,13.29,13.29,0,0,1-2.56,2.09Zm-9.68-3.87v1.74h-1.43V9.59h1.67a8.64,8.64,0,0,0-.89-1.31l1.29-.56a7.14,7.14,0,0,1,1.21,1.72l-.33.15h1.84A10.35,10.35,0,0,0,146.4,8l1.34-.49a8,8,0,0,1,1,1.91l-.41.16H150a13.82,13.82,0,0,0,1.14-1.92c1.69.6,1.73.61,1.77.64a.4.4,0,0,1-.37.13,11.61,11.61,0,0,1-.83,1.15h1.69v3.09h-1.49V10.94Z"/><path class="cls-2" d="M166.87,13.74a4.88,4.88,0,0,1-4.49,5.17,5.21,5.21,0,0,1-.92-1.65,6.85,6.85,0,0,0,1.19-.16,3.17,3.17,0,0,0,2.49-3.37,3.16,3.16,0,0,0-3-3.31,21.44,21.44,0,0,1-.48,3.45c-.58,2.48-1.49,4.27-3.14,4.27-1.34,0-2.63-1.72-2.63-3.87,0-3.07,2.44-5.36,5.77-5.36C164.61,8.91,166.87,10.8,166.87,13.74Zm-6.82-.2a19,19,0,0,0,.41-3,3.77,3.77,0,0,0-3,3.62c0,1.34.58,2.07,1.06,2.07S159.66,15.18,160.05,13.54Z"/><path class="cls-2" d="M176.23,17.45c0,.51.09.59.74.59h2c.49,0,.59-.18.66-1.12a3.9,3.9,0,0,0,1.22.49c-.16,1.46-.57,1.88-1.76,1.88h-2.22c-1.54,0-1.93-.4-1.93-1.83v-2l-.53.25-.52-1.24L174.9,14V12.5l-.2.22a7.74,7.74,0,0,0-1-1,4.58,4.58,0,0,0,.61-.79h-2.66l0,1.36h1.58l.74,0c0,.13,0,.29,0,.46-.07,4.16-.13,5.65-.46,6.1s-.89.6-2.13.6a3.52,3.52,0,0,0-.36-1.35,7.13,7.13,0,0,0,.92,0,.37.37,0,0,0,.36-.2c.17-.25.24-1.33.29-4.31h-1a11.4,11.4,0,0,1-1.63,5.79,4.24,4.24,0,0,0-1.07-1c1.26-1.73,1.36-4.55,1.4-7.48H169V9.52h2V7.61l1.78.1c0,.11-.11.18-.33.22V9.52h2v1.23a10.27,10.27,0,0,0,1.13-3.17l1.72.42c0,.11-.15.16-.33.16-.1.39-.21.78-.34,1.16h4.2v1.37H176a9.22,9.22,0,0,1-.69,1.24l1.23.06c0,.13-.1.19-.32.23v1.16l.71-.33V10.89l1.63.08c0,.12-.1.19-.32.23v1.24l.63-.28h0l.5-.36,1,.36a.29.29,0,0,1-.16.17c0,1.79,0,3.06,0,3.45-.06,1-.9,1-1.61,1a3.17,3.17,0,0,0-.26-1.09h.42c.11,0,.16,0,.18-.19s0-.78,0-1.93l-.72.34v3.31h-1.31V14.52l-.71.33Z"/><path class="cls-2" d="M187.34,9.68v1.19h-5V9.68ZM192.82,13l1,.37a.45.45,0,0,1-.14.19,8,8,0,0,1-1.9,3.48,8.58,8.58,0,0,0,2.62,1.1,6.16,6.16,0,0,0-1,1.3,8.73,8.73,0,0,1-2.8-1.38,9.78,9.78,0,0,1-2.93,1.38,5.9,5.9,0,0,0-.78-1.3v.65h-2.66v.49h-1.28V14.93h3.94V18.1A8.36,8.36,0,0,0,189.44,17,8.93,8.93,0,0,1,188,14.81l1.3-.42H187.5V13h.44a5.61,5.61,0,0,0-1.06-.92v.48H183V11.45h3.92v.61a2.86,2.86,0,0,0,1.24-2.61V8h4.26v2.84c0,.35,0,.39.16.39h.33c.16,0,.22-.17.24-1.27a4,4,0,0,0,1.22.54c-.12,1.57-.46,2-1.31,2h-.74c-1,0-1.31-.39-1.31-1.65V9.29h-1.43A4.2,4.2,0,0,1,188,13h4.59Zm-5.94.2v1.13H183V13.19Zm0-5.21V9.13H183V8Zm-1.3,9.61V16.13h-1.35v1.46Zm3.76-3.2a6.28,6.28,0,0,0,1.24,1.72,5.78,5.78,0,0,0,1.2-1.72Z"/><path class="cls-2" d="M199.85,12.76v.65c.63.46,1.88,1.51,2.21,1.8l-.86,1.29c-.31-.39-.84-.95-1.35-1.48v4.43h-1.48V15a12.3,12.3,0,0,1-1.87,2.9,8,8,0,0,0-.77-1.48,12.45,12.45,0,0,0,2.35-3.61H196v-1.4h2.37V9.82c-.68.16-1.38.3-2.05.41a5.21,5.21,0,0,0-.46-1.15,18.2,18.2,0,0,0,4.81-1.5L202,8.71c-.07.08-.16.08-.33.08a14.71,14.71,0,0,1-1.77.64v1.93h2.2v1.4Zm4.67-3.53c0,.12-.12.2-.33.24v6.8h-1.48V9.13Zm1.18-1.39,1.84.09c0,.13-.09.22-.34.24v9.44c0,1.55-.49,1.85-3.23,1.85a5.54,5.54,0,0,0-.53-1.56c.84,0,1.66,0,1.92,0s.34-.07.34-.31Z"/><path class="cls-2" d="M220.36,8.44v9.22c0,1.5-.63,1.74-3.13,1.71a5.4,5.4,0,0,0-.49-1.45c.43,0,.91,0,1.27,0,.8,0,.85,0,.85-.3V15.74H216.1v3.52h-1.48V15.74H212a7.28,7.28,0,0,1-1.6,3.78,5.76,5.76,0,0,0-1.2-1c1.39-1.52,1.5-3.78,1.5-5.57V8.44Zm-8.12,4.34c0,.41,0,.82,0,1.54h2.42V12.78Zm2.38-2.91h-2.38v1.51h2.38Zm4.24,1.51V9.87H216.1v1.51Zm-2.76,2.94h2.76V12.78H216.1Z"/><path class="cls-2" d="M225.65,13.31c-.86.4-1.6.78-2.13,1a9.47,9.47,0,0,1-.86-1.55c.28-.08,1-.32,1.19-.41l1.13-.48c-.16-.31-.31-.6-.47-.89s-.45-.74-.69-1.09a7.42,7.42,0,0,1,1.55-.75c.32.53.71,1.29,1.11,2.09A13.36,13.36,0,0,1,231.12,10c1.87,0,3,1.08,3,2.52a2.72,2.72,0,0,1-3,2.79,5,5,0,0,1-2.07-.41,4.55,4.55,0,0,1-.11-1.68,4.2,4.2,0,0,0,2.06.54c1,0,1.55-.5,1.55-1.21s-.49-1-1.43-1a11.47,11.47,0,0,0-3.91,1.12c.11.24.21.48.31.71.65,1.47,1.67,4,2.12,5.24a4.36,4.36,0,0,1-1.73.58A43.32,43.32,0,0,0,226,14Zm2.69-3.09a10.89,10.89,0,0,0-1.2-1.78,7.88,7.88,0,0,1,1.34-.76,15.6,15.6,0,0,1,1.22,1.76A6.36,6.36,0,0,1,228.34,10.22Z"/><path class="cls-2" d="M236.6,11.06a8,8,0,0,1,2.13,1.2l-.9,1.2a8.8,8.8,0,0,0-2.06-1.29ZM236,18.47a37.11,37.11,0,0,0,1.86-4.09l1.21.84a36.4,36.4,0,0,1-1.59,3.72.42.42,0,0,1,.1.28.45.45,0,0,1,0,.16Zm1.18-10.8a8.47,8.47,0,0,1,2.13,1.24c-.34.44-.63.83-.91,1.21a8.56,8.56,0,0,0-2.06-1.36Zm10.47,7.4h-1.08c0,.49-.05.92-.09,1.3h1.1v1.28h-1.24c-.21,1.51-.7,1.78-2.25,1.78h-.7a3.21,3.21,0,0,0-.37-1.24c.55.05,1,.06,1.28.06.42,0,.53-.25.62-.59h-3.62l-.09.61-1.42-.08c.15-.86.3-1.95.44-3.11h-1.22V13.7h1.39c.07-.71.13-1.42.18-2.08a6.14,6.14,0,0,1-.74,1,7.62,7.62,0,0,0-1.1-.93,9.66,9.66,0,0,0,2.06-4.1l1.69.46a.29.29,0,0,1-.33.15c-.09.28-.18.57-.29.85h5.63v1.34h-6.21c-.14.28-.29.55-.44.82H246l.77.06a4,4,0,0,1,0,.44c0,.74,0,1.42-.07,2h1Zm-5.05,1.3c.05-.41.09-.85.13-1.3h-1.11l-.15,1.3Zm.23-2.67c0-.41.06-.82.07-1.22h-1l-.11,1.22Zm1.07,2.67h1.2c0-.37.06-.8.1-1.3h-1.19Zm.21-2.67h1.15l0-1.22h-1.11Z"/><path class="cls-2" d="M258.94,7.74c0,.12-.12.21-.34.24v5.45a11.51,11.51,0,0,0,2.71,1.65,6.65,6.65,0,0,0-1.11,1.32,9.28,9.28,0,0,1-1.6-1v4H257V14a13.74,13.74,0,0,1-1.64-2.06c-.8,3.58-2.37,6.12-4.56,7.48a5.41,5.41,0,0,0-1.21-1.12,8.07,8.07,0,0,0,3.08-3.18,12.36,12.36,0,0,0-1.63-1.25l.82-1.1a12.2,12.2,0,0,1,1.44,1,14.79,14.79,0,0,0,.75-2.85h-1.88a10,10,0,0,1-1.9,3.44,7.35,7.35,0,0,0-1-1.05,11.74,11.74,0,0,0,2.29-5.71L253.3,8c0,.11-.15.18-.32.18-.1.45-.21.89-.33,1.33h2l.27-.05,1,.39a1.18,1.18,0,0,1-.17.24l-.07.49.36-.14a9.79,9.79,0,0,0,1,1.46V7.63Z"/><path class="cls-2" d="M274.25,13.74a4.88,4.88,0,0,1-4.49,5.17,5.21,5.21,0,0,1-.92-1.65A6.85,6.85,0,0,0,270,17.1a3.17,3.17,0,0,0,2.49-3.37,3.16,3.16,0,0,0-3-3.31,21.44,21.44,0,0,1-.48,3.45c-.58,2.48-1.49,4.27-3.14,4.27-1.34,0-2.64-1.72-2.64-3.87,0-3.07,2.45-5.36,5.78-5.36C272,8.91,274.25,10.8,274.25,13.74Zm-6.82-.2a20.23,20.23,0,0,0,.41-3,3.77,3.77,0,0,0-3,3.62c0,1.34.58,2.07,1.06,2.07S267,15.18,267.43,13.54Z"/><path class="cls-2" d="M287.89,14.81v1.38H283v1.65c0,1.38-.65,1.62-3.27,1.62A6,6,0,0,0,279.1,18c.52,0,1.09,0,1.49,0,.78,0,.84,0,.84-.25v-1.6h-4.87V14.81h4.87v-.87l.75,0a8.31,8.31,0,0,0,.93-.73h-4.3V11.94h5.72l.24-.07,1.15.68a.42.42,0,0,1-.28.17,13.29,13.29,0,0,1-2.56,2.09Zm-9.68-3.87v1.74h-1.43V9.59h1.67a8.64,8.64,0,0,0-.89-1.31l1.29-.56a7.14,7.14,0,0,1,1.21,1.72l-.33.15h1.84A10.35,10.35,0,0,0,280.75,8l1.34-.49a7.67,7.67,0,0,1,1,1.91l-.41.16h1.64a13.82,13.82,0,0,0,1.14-1.92c1.69.6,1.73.61,1.77.64a.4.4,0,0,1-.37.13,11.61,11.61,0,0,1-.83,1.15h1.69v3.09h-1.49V10.94Z"/><path class="cls-2" d="M292.94,12.23c.35.47,1.36,2,1.59,2.34l-.83,1.13c-.17-.41-.46-1-.76-1.58v5.31h-1.4V14.66a10.92,10.92,0,0,1-1.22,2.56,8,8,0,0,0-.69-1.37,12.56,12.56,0,0,0,1.8-4.26h-1.5V10.2h1.61V7.58l1.73.1c0,.11-.1.19-.33.23V10.2h1.39v1.39h-1.39Zm6.81-1.43a11.76,11.76,0,0,1,2,2.65l-1.28.74a4.35,4.35,0,0,0-.24-.49h-.09a9.42,9.42,0,0,1-1.27,2.61,7.79,7.79,0,0,0,2.91,1.81,6.59,6.59,0,0,0-1.06,1.34,8,8,0,0,1-2.83-2,8.67,8.67,0,0,1-3.23,2,6,6,0,0,0-.77-1.19,7.4,7.4,0,0,0,3.1-1.91,12.64,12.64,0,0,1-1.33-2.59,5.94,5.94,0,0,1-.52.49,6.76,6.76,0,0,0-1-1A7.28,7.28,0,0,0,296,10.85l1.53.64c0,.08-.12.14-.29.13a10.69,10.69,0,0,1-1.28,1.86l.94-.27a9.35,9.35,0,0,0,1,2,8,8,0,0,0,.84-2l1.32.29a14.08,14.08,0,0,0-1.48-2Zm1.8-1.45v1.39h-7.08V9.35h2.74V7.58l1.83.1c0,.13-.11.2-.34.25V9.35Z"/><path class="cls-2" d="M312.25,16.67a4.57,4.57,0,0,1-.13,1.87,11.36,11.36,0,0,1-3.39.47c-2.35,0-4.26-1-4.23-3.21a4,4,0,0,1,1.91-3.19,22.35,22.35,0,0,1-2-3.28,4.38,4.38,0,0,1,1.46-.93,15.14,15.14,0,0,0,1.85,3.3c1.08-.66,2.27-1.38,2.88-1.79a10.29,10.29,0,0,0,1.07-.82,5.61,5.61,0,0,1,.83,1.48c-.33.27-2.22,1.33-3.5,2.09-.07.35-.13.74-.17,1.05a4.75,4.75,0,0,1-1.07.37,2,2,0,0,1-.45-.37,2.52,2.52,0,0,0-1.19,1.93c0,1,.77,1.71,2.54,1.71A8.53,8.53,0,0,0,312.25,16.67Z"/><path class="cls-2" d="M326.43,13.74a4.88,4.88,0,0,1-4.49,5.17,5,5,0,0,1-.92-1.65,7,7,0,0,0,1.19-.16,3.17,3.17,0,0,0,2.49-3.37,3.16,3.16,0,0,0-3-3.31,20.37,20.37,0,0,1-.48,3.45c-.58,2.48-1.48,4.27-3.13,4.27-1.34,0-2.64-1.72-2.64-3.87,0-3.07,2.45-5.36,5.77-5.36C324.17,8.91,326.43,10.8,326.43,13.74Zm-6.82-.2a19,19,0,0,0,.4-3,3.77,3.77,0,0,0-3,3.62c0,1.34.58,2.07,1.06,2.07S319.22,15.18,319.61,13.54Z"/><path class="cls-2" d="M335.54,7.62a.39.39,0,0,1-.34.25,14,14,0,0,0,5.33,4.25,8.47,8.47,0,0,0-1,1.36A17.08,17.08,0,0,1,334.32,9a15.92,15.92,0,0,1-5.09,4.47,7.06,7.06,0,0,0-1-1.19,14,14,0,0,0,5.24-4.82Zm-.29,7.58v2.54h4.55v1.37H329V17.74h1.39V13.32l1.83.09c0,.13-.1.2-.34.25v4.08h1.8v-6.6l2,.11c0,.13-.11.2-.35.24v2.36h3.4V15.2Z"/><path class="cls-2" d="M342.17,8.35h11.41V9.76h-5v1h2.31v5.76h-6.05V10.77h2.22v-1h-4.89Zm9.55,8.92V10.6l1.8.09c0,.12-.11.2-.34.23v8.53h-1.46v-.76H344v.76h-1.47V10.6l1.8.09c0,.12-.1.2-.33.23v6.35ZM346.08,12v1.06h1.09V12Zm0,2.21V15.3h1.09V14.22Zm3.5-1.15V12h-1.11v1.06Zm0,2.23V14.22h-1.11V15.3Z"/><path class="cls-2" d="M358.5,9a27.7,27.7,0,0,0-.62,4.55,10.05,10.05,0,0,0,0,1.6c0,.13.07.18.13,0,.15-.38.42-1.13.63-1.72a3.53,3.53,0,0,1,1.13.83A34,34,0,0,0,358,18.73a5.54,5.54,0,0,1-1.31-.13,14.06,14.06,0,0,1-.43-3.67,37.3,37.3,0,0,1,.33-4.9c.05-.41.13-1,.15-1.42A6.8,6.8,0,0,1,358.5,9Zm3.44,5.95a2.27,2.27,0,0,0-.25.93c0,.54.46,1,1.88,1a7.58,7.58,0,0,0,3-.57A5.45,5.45,0,0,1,366.7,18a11.49,11.49,0,0,1-3.22.44c-2.27,0-3.41-.83-3.41-2.16a4.76,4.76,0,0,1,.4-1.78A5.68,5.68,0,0,1,361.94,14.93Zm4.23-5.67a7.22,7.22,0,0,1,0,1.61,28.24,28.24,0,0,1-5.12.08,6.21,6.21,0,0,1-.12-1.66A17.51,17.51,0,0,0,366.17,9.26Z"/><path class="cls-2" d="M380.37,12.94h-2.75a8.51,8.51,0,0,0,3,2,6.32,6.32,0,0,0-1,1.2,9.92,9.92,0,0,1-3.74-3.23h-2.6a10.78,10.78,0,0,1-1.13,1.38,10.16,10.16,0,0,0,2.6-1l1.36.6a.3.3,0,0,1-.28.12,14.62,14.62,0,0,1-3.64,1.33,6.69,6.69,0,0,0-.53-.59,9.38,9.38,0,0,1-2.21,1.45,9.61,9.61,0,0,0-1-1.1,8,8,0,0,0,3-2.19h-2.65V11.67h3.53a7.77,7.77,0,0,0,.4-.82c-1.07.05-2,.07-2.85.1a.25.25,0,0,1-.22.19l-.53-1.52,2.28,0a12.72,12.72,0,0,0,1.17-2l1.77.55c0,.1-.17.14-.36.14-.25.39-.59.86-.94,1.3,1.16,0,2.39,0,3.63-.08q-.51-.42-1-.78l1.2-.69A18,18,0,0,1,380,10.7l-1.3.78c-.19-.25-.46-.54-.76-.86-1.13.07-2.3.12-3.41.17l.13,0c0,.12-.17.18-.34.17a5.66,5.66,0,0,1-.3.68h6.33Zm-1.31,3.72a.36.36,0,0,1-.34.15c-1.6,1.49-4.38,2.26-7.6,2.66a4.59,4.59,0,0,0-.7-1.23c2.95-.25,5.7-.89,7.05-2.19Zm-1.7-1.35c0,.09-.15.14-.31.13a14.26,14.26,0,0,1-5,1.91,4.44,4.44,0,0,0-.81-1.07A12.74,12.74,0,0,0,376,14.72Z"/><path class="cls-2" d="M386.8,10l.34,0,.79,0c0,.13,0,.33,0,.5-.1,5.51-.18,7.46-.54,8s-.55.71-1.76.71a5.24,5.24,0,0,1-.55,0,3.93,3.93,0,0,0-.42-1.5,8.33,8.33,0,0,0,1,0,.42.42,0,0,0,.39-.24c.22-.34.32-1.84.39-6.07H385.2c-.12,3.25-.55,6.09-2.07,8A4.07,4.07,0,0,0,382,18.38c1.31-1.62,1.64-4,1.71-6.95h-1.41V10h1.44c0-.76,0-1.55,0-2.37l1.86.09c0,.15-.13.24-.36.28,0,.68,0,1.34,0,2Zm2-1h4.54V19h-1.51v-.77h-1.58v.87h-1.45Zm1.45,7.81h1.58V10.42h-1.58Z"/><path class="cls-2" d="M396.74,9.77c.86-.1,7.71-1,8.91-1a4.49,4.49,0,0,1,.25,1.52,6,6,0,0,0-2.08.25,4,4,0,0,0-2.81,3.8c0,2.19,1.84,2.91,3.87,2.91a3.88,3.88,0,0,1-.6,1.7c-2.41,0-5-1.26-5-4.28a5,5,0,0,1,1.92-4c-1.24.16-3.94.7-5.26.88a5.69,5.69,0,0,1-.58-1.65C395.88,9.84,396.51,9.79,396.74,9.77Zm8.34,3.3a2.06,2.06,0,0,1-.8.39,13.63,13.63,0,0,0-.8-1.57,3.68,3.68,0,0,1,.8-.36A9.41,9.41,0,0,1,405.08,13.07Zm1.48-.6a3.13,3.13,0,0,1-.82.4,14.54,14.54,0,0,0-.82-1.56,3.24,3.24,0,0,1,.81-.37A13.33,13.33,0,0,1,406.56,12.47Z"/><path class="cls-2" d="M415,17.32a5.19,5.19,0,0,1-.21,1.61,8.07,8.07,0,0,1-2,.24c-2.66,0-4.08-1.12-4.08-2.58a2.61,2.61,0,0,1,.7-1.71,4.13,4.13,0,0,1,1.32.71,1.29,1.29,0,0,0-.42.88c0,.75.81,1.22,2.38,1.22A8.06,8.06,0,0,0,415,17.32ZM412.7,9.26a11.8,11.8,0,0,0-.7-1.18,7.73,7.73,0,0,1,1.54-.39c.16.31.43.87.74,1.54A9.29,9.29,0,0,0,416,8.64a5.45,5.45,0,0,1,.57,1.33,16,16,0,0,1-1.67.53l.55,1.24a12.83,12.83,0,0,0,1.8-.64,7.24,7.24,0,0,1,.57,1.37c-.47.2-1.13.41-1.82.62a27.69,27.69,0,0,1,1,2.7,3.45,3.45,0,0,1-.92.8c-.55-.19-2-.63-2.9-.86a10,10,0,0,1,.51-1.21c.61.15,1.28.36,1.63.49a15.81,15.81,0,0,0-.62-1.6c-.17,0-.34.08-.49.1a20.15,20.15,0,0,1-3.24.37,7.2,7.2,0,0,1-.63-1.5,19.21,19.21,0,0,0,3.27-.21l.5-.1c-.18-.42-.38-.86-.57-1.26a18.86,18.86,0,0,1-3.14.35,6.4,6.4,0,0,1-.64-1.46,12.78,12.78,0,0,0,1.54,0c.5,0,1.07-.09,1.62-.18Z"/><path class="cls-2" d="M421.92,10.25c.43,0,.91,0,1.41-.08,0-.18.07-.34.09-.47a11.44,11.44,0,0,0,.23-1.83,9.84,9.84,0,0,1,1.78.4c-.07.28-.21.89-.37,1.64a10.47,10.47,0,0,0,1.66-.44,7.08,7.08,0,0,1,0,1.66c-.48.13-1.19.28-2,.41-.12.48-.24,1-.36,1.4-.51,1.89-1.3,4.46-1.85,6a5.52,5.52,0,0,1-1.79-.56,47.71,47.71,0,0,0,2.08-5.85c.06-.25.13-.49.19-.73-.62.05-1.26.09-1.89.1a7.56,7.56,0,0,1-.25-1.67,7.91,7.91,0,0,0,1.08.07Zm7,7.08A8.21,8.21,0,0,0,431.3,17a5.34,5.34,0,0,1-.27,1.66,9.53,9.53,0,0,1-2.31.24c-2.21,0-3.34-.91-3.34-2.21a4.45,4.45,0,0,1,.49-1.8,4.66,4.66,0,0,1,1.43.5,2.06,2.06,0,0,0-.32,1C427,16.92,427.49,17.33,428.92,17.33Zm.41-6.52a16.49,16.49,0,0,1,2.09.13,8.31,8.31,0,0,1-.16,1.54,12.44,12.44,0,0,0-2-.17,14.38,14.38,0,0,0-2.06.12,10,10,0,0,1,0-1.53,19.35,19.35,0,0,1,2.05-.09Z"/><path class="cls-2" d="M436.91,8.12a15.46,15.46,0,0,0-.37,2.43A3,3,0,0,1,439,8.82c1.58,0,3.09,1.36,3.09,4.34a6,6,0,0,1-4.27,6.15,3.61,3.61,0,0,1-1.33-1.41,4.41,4.41,0,0,0,3.9-4.7c0-2.07-.73-2.95-1.65-2.95-1.26,0-2,1.6-2.14,3.48a7.89,7.89,0,0,0,0,1.54,5.28,5.28,0,0,1-1.67,0c0-.61,0-1.56,0-2.23,0-1.15.21-3.15.26-3.85,0-.4,0-.83,0-1.16A9.51,9.51,0,0,1,436.91,8.12Z"/><path class="cls-2" d="M453.66,16.67a4.57,4.57,0,0,1-.13,1.87,11.42,11.42,0,0,1-3.39.47c-2.36,0-4.26-1-4.23-3.21a4,4,0,0,1,1.91-3.19,21.5,21.5,0,0,1-1.95-3.28,4.38,4.38,0,0,1,1.46-.93,15.14,15.14,0,0,0,1.85,3.3c1.07-.66,2.27-1.38,2.88-1.79a11.5,11.5,0,0,0,1.07-.82,5.91,5.91,0,0,1,.83,1.48c-.33.27-2.22,1.33-3.5,2.09-.07.35-.13.74-.17,1.05a4.75,4.75,0,0,1-1.07.37,2,2,0,0,1-.45-.37,2.49,2.49,0,0,0-1.19,1.93c0,1,.77,1.71,2.53,1.71A8.63,8.63,0,0,0,453.66,16.67Z"/><path class="cls-2" d="M89.83,31.05a9.91,9.91,0,0,0,1.74-.17,8.57,8.57,0,0,1,1.94,1.68A26.1,26.1,0,0,1,89,41.76a22.91,22.91,0,0,1-10.51,7.17,9.34,9.34,0,0,1-2.9-2.87,19.08,19.08,0,0,0,9.88-5.3,15.13,15.13,0,0,0,3.86-6.89l-6.63.1a23.31,23.31,0,0,1-5.62,5.28A7.56,7.56,0,0,1,74.28,37,19,19,0,0,0,83,26.58a8.48,8.48,0,0,1,3.17,1.56,20.2,20.2,0,0,1-1.48,3c4.36,0,5.14-.1,5.14-.1Zm3-3.62a17,17,0,0,1,1.44,3.15,4.56,4.56,0,0,1-1.69.65A15.16,15.16,0,0,0,91.19,28,9.14,9.14,0,0,1,92.85,27.43Zm4.36,2.24a4.93,4.93,0,0,1-1.69.63,17.05,17.05,0,0,0-1.41-3.09,8.43,8.43,0,0,1,1.64-.63A14.51,14.51,0,0,1,97.21,29.67Z"/><path class="cls-2" d="M102.76,32.91a22.53,22.53,0,0,0-.2-3.24,28.24,28.24,0,0,1,3.55.25c0,9.23.4,13.43-4.86,18.08a10.27,10.27,0,0,1-3-2.44,8.81,8.81,0,0,0,1.69-1.31C102.58,41.51,102.76,38.65,102.76,32.91Zm7,13.3a7.57,7.57,0,0,0,.2-1.61c0-2.28.17-9.37.12-13.19,0-.83-.05-1.61-.1-2.24a29.31,29.31,0,0,1,3.53.33c-.15,1.83-.28,11.13-.28,13.8,2.35-.86,5-3.7,6.31-7a10.59,10.59,0,0,1,2.24,2.91,16.87,16.87,0,0,1-8.9,8.17c-.38.13-.73.28-1.13.46A15.58,15.58,0,0,1,109.72,46.21Z"/><path class="cls-2" d="M129.78,36.38c5.65,0,13.84-.1,16.74-.15a22.26,22.26,0,0,1,.12,3.67c-3.8-.15-17.26.05-20.67,0a25.9,25.9,0,0,1-.25-3.72C126.55,36.28,128.42,36.38,129.78,36.38Z"/><path class="cls-2" d="M166,41.41a19.93,19.93,0,0,1-9.65,7.29,9.73,9.73,0,0,1-2.93-3.14c3.76-.88,6.73-2.31,9.18-5.3a14.54,14.54,0,0,0,2.87-6.84c-2.24,0-11.49.15-13.69.2a28.15,28.15,0,0,1-.3-3.62c1.06.07,2.25.15,3.1.15,1.46,0,9.73-.08,11.27-.13a9.75,9.75,0,0,0,1.64-.12,8.43,8.43,0,0,1,2.17,2A25.39,25.39,0,0,1,166,41.41Zm2.45-12.82A2.61,2.61,0,1,1,171,31.21a2.6,2.6,0,0,1-2.62-2.62Zm1.31.05A1.29,1.29,0,1,0,171,27.31a1.3,1.3,0,0,0-1.31,1.31Z"/><path class="cls-2" d="M182.16,35.18c.7.93,2.72,4,3.17,4.67l-1.66,2.27c-.33-.83-.91-2-1.51-3.17V49.58h-2.8V40a21.93,21.93,0,0,1-2.44,5.13,14.7,14.7,0,0,0-1.39-2.74,25,25,0,0,0,3.6-8.52h-3V31.1h3.23V25.88l3.45.2c0,.22-.2.37-.65.45V31.1h2.77v2.8h-2.77Zm13.61-2.87a23.48,23.48,0,0,1,4,5.31l-2.55,1.48a6.74,6.74,0,0,0-.48-1,.5.5,0,0,1-.17,0A18.68,18.68,0,0,1,194,43.35,15.5,15.5,0,0,0,199.8,47a12.86,12.86,0,0,0-2.11,2.69A16.35,16.35,0,0,1,192,45.71a17.35,17.35,0,0,1-6.45,4A12.16,12.16,0,0,0,184,47.29a14.71,14.71,0,0,0,6.2-3.82,26.06,26.06,0,0,1-2.67-5.18,10.51,10.51,0,0,1-1,1,12.71,12.71,0,0,0-2.07-1.91,14.14,14.14,0,0,0,3.76-5l3.07,1.28a.55.55,0,0,1-.58.26,20.58,20.58,0,0,1-2.57,3.72l1.89-.53a17.64,17.64,0,0,0,2,3.92A16.21,16.21,0,0,0,193.73,37l2.65.58a30.31,30.31,0,0,0-2.95-3.93Zm3.61-2.89v2.77H185.21V29.42h5.49V25.88l3.66.2c0,.25-.23.4-.68.5v2.84Z"/><path class="cls-2" d="M225.34,38.19c0,5.56-3.08,9.41-9,10.34a10.23,10.23,0,0,1-1.84-3.3,12.69,12.69,0,0,0,2.37-.32c2.68-.61,5-2.67,5-6.74a6.3,6.3,0,0,0-6.07-6.61,41.67,41.67,0,0,1-1,6.89c-1.16,5-3,8.54-6.28,8.54-2.67,0-5.26-3.44-5.26-7.74,0-6.13,4.89-10.71,11.54-10.71C220.83,28.54,225.34,32.31,225.34,38.19Zm-13.64-.4a37.72,37.72,0,0,0,.81-6A7.53,7.53,0,0,0,206.56,39c0,2.67,1.16,4.13,2.12,4.13C209.91,43.15,210.92,41.08,211.7,37.79Z"/><path class="cls-2" d="M248.48,41.64a11.46,11.46,0,0,1-2.25,3,33.45,33.45,0,0,0-4.76-4.12,26.59,26.59,0,0,1-9.15,8,10.56,10.56,0,0,1-2.92-2.69,21.59,21.59,0,0,0,9.37-7.19,45.84,45.84,0,0,0-6-3.37,16.82,16.82,0,0,1,2.07-2.64c1.38.7,3.85,2.08,5.74,3.22a26.92,26.92,0,0,0,2.83-8.15,11.14,11.14,0,0,1,3.4,1.48,38.86,38.86,0,0,1-3.48,8.45A52,52,0,0,1,248.48,41.64Z"/><path class="cls-2" d="M259.72,28.36c-.1,1.84-.2,9.48-.23,12a20.8,20.8,0,0,1-3.53,0c.1-1.86.21-8.67.21-10.1,0-.51-.06-1.44-.13-2C256.82,28.24,258.74,28.29,259.72,28.36Zm10.33,6.49c0,6.06-1.13,8.47-3.05,10.61a14.75,14.75,0,0,1-5.89,3.79,14.76,14.76,0,0,1-2.7-2.89,11.46,11.46,0,0,0,6-3.14c1.84-2.08,2.22-4.57,2.22-8.8,0-1.28,0-2.39,0-3.74-.05-1.06-.1-1.86-.18-2.62a22.92,22.92,0,0,1,3.69.18c-.06.7-.06,1.66-.06,2.34Z"/><path class="cls-2" d="M281.09,39.35a11,11,0,0,1-2.67,1.26,41.07,41.07,0,0,0-2.29-4.6,19.78,19.78,0,0,1,2.65-1.21A42.07,42.07,0,0,1,281.09,39.35Zm11.8-4.1a22.39,22.39,0,0,1-3.4,8,16.38,16.38,0,0,1-7.39,5.48,11,11,0,0,1-2.42-2.49A13.49,13.49,0,0,0,287,41.56a15.19,15.19,0,0,0,2.87-7.69A11.29,11.29,0,0,1,292.89,35.25Zm-6.6,2.24a12.21,12.21,0,0,1-2.72,1.18A41.43,41.43,0,0,0,281.5,34a26.67,26.67,0,0,1,2.67-1.11A45.9,45.9,0,0,1,286.29,37.49Z"/><path class="cls-2" d="M304.94,38v7.69c0,.73.05,2.16.1,3.22a20.15,20.15,0,0,1-3.88-.13c.07-.8.15-2.14.18-3.19.07-2.31.15-12.82.12-14.81,0-.93,0-2.23-.17-3.34a25.65,25.65,0,0,1,3.75.2c-.05.91-.1,3.7-.1,6.81a76.38,76.38,0,0,1,9,3.45,10.32,10.32,0,0,1-1.41,3.34A48.15,48.15,0,0,0,304.94,38Z"/><path class="cls-2" d="M334.76,37.29c0,3.14-.83,7-2.22,9a3.38,3.38,0,0,1-3.15,1.84A10.82,10.82,0,0,1,325.11,47a9.94,9.94,0,0,1-.08-3.47,8.89,8.89,0,0,0,3.53,1.28,1.47,1.47,0,0,0,1.51-.85,13.49,13.49,0,0,0,1.54-6.46c0-1.91-.83-2.61-2.42-2.61a14.21,14.21,0,0,0-2,.25,120.74,120.74,0,0,1-5.42,13.24,9.53,9.53,0,0,1-3.18-1.6,66.07,66.07,0,0,0,5.12-11c-1.29.22-2.67.45-4,.6a10.07,10.07,0,0,1-.73-3.22,25.25,25.25,0,0,0,3-.12c.76-.08,1.74-.21,2.8-.36a47.39,47.39,0,0,0,1.26-5.3,11.67,11.67,0,0,1,3.43,1.18c-.28.88-.68,2-1.23,3.67a17,17,0,0,1,2.06-.15C332.69,32.06,334.76,33.77,334.76,37.29Zm7.08,1.91a7.84,7.84,0,0,1-2.74,1.73A23.61,23.61,0,0,0,335,33.37a15.85,15.85,0,0,1,2.52-1.51A26.3,26.3,0,0,1,341.84,39.2Zm-4.33-7.62a16.07,16.07,0,0,0-2-2.79,5.62,5.62,0,0,1,1.51-.95,17.37,17.37,0,0,1,2.09,2.74A5.67,5.67,0,0,1,337.51,31.58ZM340.08,30A16.5,16.5,0,0,0,338,27.26a8,8,0,0,1,1.51-1A16,16,0,0,1,341.64,29,6.17,6.17,0,0,1,340.08,30Z"/><path class="cls-2" d="M349.66,37.39c.37,3.57,1.28,6.26,2.42,6.26.93,0,1.38-2.77,1.61-5.2a10.62,10.62,0,0,1,3.15,1.76c-.93,5.5-2.57,7.41-4.69,7.41-2.47,0-5-2.26-5.85-9.75-.35-3.22-.53-6-.63-8a19.24,19.24,0,0,1,3.68.35C349.3,31.33,349.43,35.08,349.66,37.39Zm18.32,4a10.16,10.16,0,0,1-3.2,1.66A20.72,20.72,0,0,0,360,32.71a19,19,0,0,1,2.8-1.71A21.26,21.26,0,0,1,368,41.34Z"/><path class="cls-2" d="M375.09,37.14c2.24-.76,5.24-2.26,8.14-2.26a5.87,5.87,0,0,1,6.2,5.93c0,4.72-3.93,7.49-10.26,7.72a10.58,10.58,0,0,1-1.41-3.05c4.94.15,8.52-1.38,8.52-4.72a2.9,2.9,0,0,0-3-3c-2.9,0-5.69,1.93-9.25,3a10.05,10.05,0,0,1-1.59-2.92C373.15,37.69,374.23,37.41,375.09,37.14Z"/><path class="cls-2" d="M402.41,39.53a54.19,54.19,0,0,0-3.7,8.95,10.92,10.92,0,0,1-2.6-.26,32.76,32.76,0,0,1-.73-7.46,86.28,86.28,0,0,1,.71-10.43c.1-.83.22-2,.27-2.82a13,13,0,0,1,3.43.7,68,68,0,0,0-1.31,9.28,29.88,29.88,0,0,0,0,3.49c0,.41.15.38.3.08.3-.68.86-2.06,1.34-3.24A7.23,7.23,0,0,1,402.41,39.53Zm10.62,2a15.67,15.67,0,0,1,4.31,2.26A7.59,7.59,0,0,1,416.23,47a12.68,12.68,0,0,0-3.1-2.37c-.1,2.19-1.16,3.95-4.82,3.95-3.33,0-5.54-1.68-5.54-4.1,0-2.06,1.43-3.84,5-3.84a20.68,20.68,0,0,1,2.12.12c-.11-1.86-.21-4.14-.26-6-2,.08-3.93.08-5.39,0a10.39,10.39,0,0,1-.53-3.11,33,33,0,0,0,5.92.22c0-1.93,0-3.49,0-4.32a16.49,16.49,0,0,1,3.33.38c-.1,1.23-.18,2.49-.23,3.72a19.35,19.35,0,0,0,3.73-.76,8.3,8.3,0,0,1-.05,3,27.47,27.47,0,0,1-3.71.63C412.75,37.19,412.93,39.45,413,41.49Zm-3,1.93a9.63,9.63,0,0,0-2.27-.27c-1.49,0-2.11.47-2.11,1.23s.9,1.33,2.26,1.33C409.62,45.71,410,44.91,410,43.42Zm3.53-15.28a2.33,2.33,0,1,1,2.34,2.34,2.33,2.33,0,0,1-2.34-2.34Zm1.18.05a1.15,1.15,0,0,0,2.3,0,1.15,1.15,0,1,0-2.3,0Z"/><path class="cls-2" d="M425.73,37.39c.38,3.57,1.28,6.26,2.42,6.26.93,0,1.39-2.77,1.61-5.2a10.62,10.62,0,0,1,3.15,1.76c-.93,5.5-2.57,7.41-4.69,7.41-2.47,0-5-2.26-5.84-9.75-.36-3.22-.53-6-.63-8a19.4,19.4,0,0,1,3.68.35C425.38,31.33,425.5,35.08,425.73,37.39Zm18.33,4A10.34,10.34,0,0,1,440.85,43a20.72,20.72,0,0,0-4.79-10.29,19,19,0,0,1,2.8-1.71A21.28,21.28,0,0,1,444.06,41.34Z"/><path class="cls-2" d="M449.75,45.16a2.41,2.41,0,1,1,2.42,2.44A2.43,2.43,0,0,1,449.75,45.16Zm1-4.28-.63-12.94h4.18l-.6,12.94Z"/></svg>