<svg id="レイヤー_1" data-name="レイヤー 1" xmlns="http://www.w3.org/2000/svg" viewBox="0 0 460 58"><defs><style>.cls-1{fill:#ff0;}.cls-2{fill:#00a0e9;}.cls-3{fill:#fff;}</style></defs><title>feature_hd4</title><rect class="cls-1" x="70" y="41.04" width="390" height="15.96"/><ellipse class="cls-2" cx="28" cy="27.92" rx="28" ry="27.92"/><path class="cls-3" d="M20.25,18.71V36.86H17.78l-3.22-11c-.31-1.15-.7-2.83-1-4.13.08,1.3.16,3.09.16,4.18v11H11.8V18.71h3l2.75,9.49c.31,1.14.7,2.82,1,4.09-.08-1.27-.18-3.06-.18-4.15V18.71Z"/><path class="cls-3" d="M26.23,37.14c-2.36,0-3.72-1.22-3.72-4v-6c0-2.77,1.36-4,3.72-4s3.69,1.22,3.69,4v6C29.92,35.92,28.57,37.14,26.23,37.14Zm0-12.29c-1.25,0-1.74.7-1.74,2v6.48c0,1.35.49,2,1.74,2s1.72-.7,1.72-2V26.9C28,25.55,27.45,24.85,26.23,24.85Z"/><path class="cls-3" d="M32.24,33.51h1.95v3.35H32.24Z"/><path class="cls-3" d="M44.2,33.07H43v3.79h-2V33.07H36.16V31.44l4.66-12.73H43V31.15H44.2ZM38,31.15h3V26.43A51.23,51.23,0,0,1,41.31,21c-.34,1.37-.8,3-1.48,5Z"/><path class="cls-2" d="M74.78,10.55V8.43c0-2.28,1.1-3.35,3.06-3.35s3.09,1.07,3.09,3.35v.24c0,4.63-4.27,4.93-4.27,8.5v.08h4.15v2H74.64V17.39c0-4.77,4.25-5,4.25-8.62V8.15c0-.84-.33-1.34-1.11-1.34s-1.12.5-1.12,1.34v2.4Z"/><path class="cls-2" d="M98.64,13.57v1.69h-6v2c0,1.69-.8,2-4,2a7,7,0,0,0-.74-1.78c.64,0,1.33,0,1.82,0,1,0,1,0,1-.3v-2h-6V13.57h6V12.51l.91.05a9,9,0,0,0,1.14-.89H87.55v-1.6h7l.3-.09,1.4.83a.5.5,0,0,1-.34.21,15.94,15.94,0,0,1-3.13,2.55ZM86.81,8.84V11H85.07V7.2h2A10.22,10.22,0,0,0,86,5.6l1.58-.69A9,9,0,0,1,89.07,7l-.4.19h2.25a13.24,13.24,0,0,0-1-1.94l1.63-.6A9.89,9.89,0,0,1,92.82,7l-.51.2h2a14.54,14.54,0,0,0,1.4-2.35c2.07.74,2.12.75,2.16.78a.47.47,0,0,1-.45.16,14.63,14.63,0,0,1-1,1.41h2.06V11H96.65V8.84Z"/><path class="cls-2" d="M105.44,11.33c.47.42,1.85,1.84,2.15,2.21l-1,1.46a16.58,16.58,0,0,0-1.1-1.78v6h-1.8V13.62A14,14,0,0,1,102,16.8a10.19,10.19,0,0,0-.87-1.75,14.41,14.41,0,0,0,2.22-4.15h-2V9.18h2.29V7.37c-.63.17-1.28.31-1.89.43a5.1,5.1,0,0,0-.56-1.34,20.21,20.21,0,0,0,5-1.7l1.48,1.33a.58.58,0,0,1-.39.08,12.91,12.91,0,0,1-1.82.69V9.18h1.88V10.9h-1.88Zm10.34,3.61-2,.36v3.94h-1.88V15.63l-4.46.8-.3-1.75,4.76-.86v-9l2.3.12c0,.15-.12.25-.42.29V13.5l1.68-.31Zm-5.62-1.67a12.91,12.91,0,0,0-2.53-2.45l1.28-1.06a14.33,14.33,0,0,1,2.6,2.31Zm-.9-7.58A13,13,0,0,1,111.65,8l-1.41,1.11a13.54,13.54,0,0,0-2.3-2.46Z"/><path class="cls-2" d="M120,8.37c0-2.26,1.12-3.29,3.14-3.29s3.14,1,3.14,3.29v7.77c0,2.27-1.1,3.35-3.08,3.35s-3.06-1.08-3.06-3.35v-.7H122v1c0,.83.34,1.33,1.12,1.33s1.1-.5,1.1-1.33V13.16a2.17,2.17,0,0,1-2,1.26c-1.28,0-2.22-.7-2.22-2.9Zm4.24-.28c0-.84-.32-1.28-1.1-1.28S122,7.25,122,8.09v3.29c0,1,.36,1.28,1,1.28a1.28,1.28,0,0,0,1.22-1.39Z"/><path class="cls-2" d="M138.78,9.4c-1,0-6.62,0-8.24.07a7.68,7.68,0,0,1-.19-2.1c.53,0,1.2.07,1.7.07,1,0,7.7,0,8.93-.07-.07,1.63-.17,9.18-.07,10.72a16.28,16.28,0,0,1-2.21,0l0-.94h-6.47c-.71,0-1.33,0-1.94.05a8.79,8.79,0,0,1-.17-2.15c1.49.08,6.1.06,8.59.06Z"/><path class="cls-2" d="M148.46,11.16c3.45,0,8.46-.06,10.23-.09a12.77,12.77,0,0,1,.08,2.24c-2.33-.09-10.55,0-12.63,0a14.93,14.93,0,0,1-.16-2.28C146.49,11.1,147.63,11.16,148.46,11.16Z"/><path class="cls-2" d="M174.75,16.82a4.93,4.93,0,0,1-1.57,1.58,27,27,0,0,0-3.88-4.27,18.7,18.7,0,0,1-5.82,4.18,8.84,8.84,0,0,1-1.57-1.79,15.63,15.63,0,0,0,6.3-4.14,11.52,11.52,0,0,0,2.35-3.55c-1.6,0-5.88.12-7,.17a16.71,16.71,0,0,1-.24-2c.48,0,1.05.08,1.55.08.73,0,5.57-.08,6.49-.12.37,0,.74-.06,1-.09a3.8,3.8,0,0,1,1.09,1.06,24,24,0,0,1-2.84,4.71A29.12,29.12,0,0,1,174.75,16.82Z"/><path class="cls-2" d="M191.48,12.27c0,3.39-1.88,5.74-5.49,6.31a6.07,6.07,0,0,1-1.12-2,8.75,8.75,0,0,0,1.45-.2,3.86,3.86,0,0,0,3.05-4.12,3.86,3.86,0,0,0-3.72-4,25.55,25.55,0,0,1-.58,4.21c-.71,3-1.82,5.23-3.84,5.23-1.63,0-3.22-2.11-3.22-4.74,0-3.75,3-6.54,7.06-6.54C188.72,6.37,191.48,8.67,191.48,12.27ZM183.14,12a22.4,22.4,0,0,0,.5-3.67A4.6,4.6,0,0,0,180,12.78c0,1.62.71,2.52,1.29,2.52C182.05,15.3,182.67,14,183.14,12Z"/><path class="cls-2" d="M200.13,7.58V14.2c0,1.05-.2,1.65-1.62,1.65a4,4,0,0,0-.4-1.51v4.9h-1.55v-10h-.68V16h-1.36V7.58h2V4.76l1.92.1c0,.14-.12.22-.37.26V7.58Zm-2,6.73h.59c.07,0,.1,0,.1-.15V9.23h-.69Zm2.34-9h8.28V6.78h-8.28Zm.1,13.94V12.56h8.11v6.61h-1.72v-.4h-4.76v.46Zm.75-11.57h6.59v4H201.3Zm2.47,6.39h-1.59V15h1.59Zm-1.59,3.24h1.59v-.93h-1.59Zm4.08-7V9.06h-3.39v1.18Zm.68,4.72v-.91h-1.62V15Zm-1.62,2.33h1.62v-.93h-1.62Z"/><path class="cls-2" d="M214.17,8.49v2.13c0,2.48-.24,6.24-1.71,8.59a8,8,0,0,0-1.58-1c1.34-2.18,1.44-5.36,1.44-7.56V6.72h5.49v-2l2.34.12c0,.15-.12.24-.42.31V6.72h5.67V8.49Zm8.17,4.19a25.78,25.78,0,0,1,3.36,5.73l-1.91.86c-.13-.38-.3-.81-.5-1.27-3,.24-6.19.46-8.27.58a.33.33,0,0,1-.29.25L214,16.74l1.71-.06a47.58,47.58,0,0,0,2.09-7.47l2.41.58a.54.54,0,0,1-.48.27,51,51,0,0,1-2,6.53c1.51-.07,3.18-.14,4.81-.23a29.39,29.39,0,0,0-1.85-2.94Z"/><path class="cls-2" d="M230.83,11.78c.24,2.18.79,3.82,1.48,3.82s.85-1.69,1-3.18a6.57,6.57,0,0,1,1.93,1.08c-.57,3.36-1.58,4.53-2.87,4.53-1.51,0-3.07-1.38-3.57-6-.22-2-.33-3.67-.39-4.92a11.37,11.37,0,0,1,2.25.22C230.62,8.07,230.7,10.36,230.83,11.78ZM242,14.19a6.12,6.12,0,0,1-1.95,1,12.67,12.67,0,0,0-2.93-6.28,11.3,11.3,0,0,1,1.71-1A13,13,0,0,1,242,14.19Z"/><path class="cls-2" d="M258.8,13.57v1.69h-6v2c0,1.69-.8,2-4,2a7.81,7.81,0,0,0-.74-1.78c.63,0,1.32,0,1.81,0,1,0,1,0,1-.3v-2h-6V13.57h6V12.51l.91.05a9.71,9.71,0,0,0,1.14-.89h-5.26v-1.6h7L255,10l1.4.83a.5.5,0,0,1-.34.21,15.65,15.65,0,0,1-3.13,2.55ZM247,8.84V11h-1.74V7.2h2a11.82,11.82,0,0,0-1.08-1.6l1.57-.69A9.11,9.11,0,0,1,249.24,7l-.4.19h2.25a14.29,14.29,0,0,0-1-1.94l1.63-.6A9.83,9.83,0,0,1,253,7l-.51.2h2a16.15,16.15,0,0,0,1.4-2.35c2.06.74,2.11.75,2.15.78a.46.46,0,0,1-.44.16,13.26,13.26,0,0,1-1,1.41h2.07V11h-1.82V8.84Z"/><path class="cls-2" d="M272.06,6.26a12,12,0,0,0,3.13,6.65,5.5,5.5,0,0,1-1.28,1.59,9.49,9.49,0,0,1-1.57-2.14c-.26,3.29-1.83,6.39-5.69,6.39a4.2,4.2,0,0,1-4.43-4.45,9.68,9.68,0,0,1,2.14-5.78c-.43.06-1.4.11-2,.14A7.87,7.87,0,0,1,262,6.81a28.15,28.15,0,0,0,5.64-.35A7.34,7.34,0,0,1,268,8.14c-.37.09-.71.1-1.09.2a7.8,7.8,0,0,0-2.68,5.59,2.45,2.45,0,0,0,2.62,2.76c2.6,0,4.14-2.55,4-7.71a17.55,17.55,0,0,1-.6-2.1A8.88,8.88,0,0,1,272.06,6.26Zm1.43,2.46a11.84,11.84,0,0,0-.8-2,4.1,4.1,0,0,1,.87-.36,13.85,13.85,0,0,1,.81,2A2.74,2.74,0,0,1,273.49,8.72Zm1.45-.57a12.36,12.36,0,0,0-.78-2A4.78,4.78,0,0,1,275,5.8a12.25,12.25,0,0,1,.84,2A3,3,0,0,1,274.94,8.15Z"/><path class="cls-2" d="M288.88,15.85a5.54,5.54,0,0,1-.16,2.29,14.13,14.13,0,0,1-4.14.57c-2.88,0-5.21-1.17-5.18-3.92a4.86,4.86,0,0,1,2.35-3.9,27.19,27.19,0,0,1-2.39-4,5.26,5.26,0,0,1,1.79-1.14,18.68,18.68,0,0,0,2.26,4c1.31-.81,2.77-1.69,3.51-2.2a10.16,10.16,0,0,0,1.31-1,7.39,7.39,0,0,1,1,1.82c-.4.32-2.71,1.63-4.28,2.55-.08.43-.16.9-.2,1.29a6.27,6.27,0,0,1-1.31.44,2.48,2.48,0,0,1-.56-.44,3,3,0,0,0-1.45,2.35c0,1.21.94,2.09,3.1,2.09A10.45,10.45,0,0,0,288.88,15.85Z"/><path class="cls-2" d="M305.9,8.23a9.59,9.59,0,0,1,.07,1.93h-3.71c0,1.92.17,6.13.19,6.9,0,1-.42,1.58-1.59,1.58a21.61,21.61,0,0,1-2.81-.21,16.28,16.28,0,0,1-.29-2.11,10.91,10.91,0,0,0,2.14.36c.4,0,.57-.11.57-.57,0,0,0-.32-.09-4.27a18.83,18.83,0,0,1-6,5.15,5.68,5.68,0,0,1-1.55-1.66,14.68,14.68,0,0,0,6.47-5.14l-3.87.05-1.68,0a9.45,9.45,0,0,1-.15-2c.47,0,1,.06,1.6.06s2.93,0,5.11,0c0-1-.07-2-.17-2.75a11.3,11.3,0,0,1,2.15.12c0,.53,0,1.55,0,2.6,1.22,0,2.17,0,2.43,0Z"/><path class="cls-2" d="M312,11.16c3.45,0,8.45-.06,10.22-.09a12.77,12.77,0,0,1,.08,2.24c-2.32-.09-10.55,0-12.63,0a16.32,16.32,0,0,1-.16-2.28C310,11.1,311.17,11.16,312,11.16Z"/><path class="cls-2" d="M334.63,14.23a12.12,12.12,0,0,1-5.9,4.46,5.91,5.91,0,0,1-1.79-1.92,9.48,9.48,0,0,0,5.61-3.24,8.84,8.84,0,0,0,1.76-4.18c-1.37,0-7,.09-8.37.12a16,16,0,0,1-.18-2.21c.64,0,1.37.09,1.89.09.9,0,6,0,6.89-.07a6.18,6.18,0,0,0,1-.08,4.93,4.93,0,0,1,1.32,1.2A15.39,15.39,0,0,1,334.63,14.23Zm1.49-7.83A1.6,1.6,0,1,1,337.73,8a1.58,1.58,0,0,1-1.61-1.6Zm.81,0a.79.79,0,0,0,1.57,0,.79.79,0,1,0-1.57,0Z"/><path class="cls-2" d="M347,8.72a8.16,8.16,0,0,1-1.21,1.95,24.41,24.41,0,0,0-4.11-2.46,20.32,20.32,0,0,1,1.11-1.86A23.29,23.29,0,0,1,347,8.72Zm-.25,6.11a13.21,13.21,0,0,0,5.62-6.22A6.1,6.1,0,0,1,354,10.36a16.23,16.23,0,0,1-6.09,6.3,19.87,19.87,0,0,1-4.54,1.89A5.77,5.77,0,0,1,342,16.48,14.13,14.13,0,0,0,346.78,14.83Z"/><path class="cls-2" d="M360.93,11.33c.46.42,1.85,1.84,2.14,2.21L362,15a16.28,16.28,0,0,0-1.09-1.78v6h-1.8V13.62a14,14,0,0,1-1.7,3.18,10.15,10.15,0,0,0-.86-1.75,14.66,14.66,0,0,0,2.22-4.15h-2V9.18h2.3V7.37c-.63.17-1.28.31-1.9.43a4.75,4.75,0,0,0-.55-1.34,20.12,20.12,0,0,0,5-1.7l1.48,1.33a.54.54,0,0,1-.38.08,12.91,12.91,0,0,1-1.82.69V9.18h1.88V10.9h-1.88Zm10.34,3.61-2,.36v3.94H367.4V15.63l-4.47.8-.29-1.75,4.76-.86v-9l2.3.12c0,.15-.13.25-.42.29V13.5l1.68-.31Zm-5.63-1.67a13.12,13.12,0,0,0-2.52-2.45l1.28-1.06a14.33,14.33,0,0,1,2.6,2.31Zm-.89-7.58A13.35,13.35,0,0,1,367.14,8l-1.42,1.11a13.46,13.46,0,0,0-2.29-2.46Z"/><path class="cls-2" d="M375,5.75h10.84V19.24h-2v-1h-7v1H375Zm8.87,1.8h-7V9.33h7Zm0,3.52h-7v1.84h7Zm-7,5.41h7V14.65h-7Z"/><path class="cls-2" d="M403.68,12.27c0,3.39-1.88,5.74-5.48,6.31a6.09,6.09,0,0,1-1.13-2,8.6,8.6,0,0,0,1.45-.2,3.85,3.85,0,0,0,3.05-4.12,3.85,3.85,0,0,0-3.71-4,24.59,24.59,0,0,1-.59,4.21c-.7,3-1.81,5.23-3.83,5.23-1.63,0-3.22-2.11-3.22-4.74,0-3.75,3-6.54,7-6.54C400.93,6.37,403.68,8.67,403.68,12.27ZM395.35,12a22.41,22.41,0,0,0,.49-3.67,4.6,4.6,0,0,0-3.63,4.43c0,1.62.71,2.52,1.29,2.52C394.26,15.3,394.87,14,395.35,12Z"/><path class="cls-2" d="M412.52,7.31V8.77h-6.09V7.31Zm6.7,4,1.17.46a.48.48,0,0,1-.17.23,9.89,9.89,0,0,1-2.32,4.25,10.35,10.35,0,0,0,3.2,1.34,7.78,7.78,0,0,0-1.2,1.6,10.73,10.73,0,0,1-3.42-1.69,12,12,0,0,1-3.58,1.69,7.17,7.17,0,0,0-.95-1.6v.8H408.7V19h-1.57v-5.3H412V17.6a10.28,10.28,0,0,0,3.14-1.32,11.09,11.09,0,0,1-1.79-2.71l1.59-.5h-2.17V11.41h.54a7.14,7.14,0,0,0-1.3-1.12v.58h-4.79V9.47H412v.74A3.48,3.48,0,0,0,413.47,7V5.19h5.21V8.66c0,.43,0,.47.2.47h.4c.2,0,.26-.2.29-1.55a4.54,4.54,0,0,0,1.5.66c-.16,1.92-.57,2.46-1.6,2.46h-.91c-1.25,0-1.6-.47-1.6-2V6.83h-1.74c0,1.06,0,3.27-1.93,4.58h5.61Zm-7.26.24V13h-4.79V11.59Zm0-6.36v1.4h-4.7V5.23ZM410.35,17V15.19H408.7V17Zm4.59-3.9a7.71,7.71,0,0,0,1.52,2.1,7.42,7.42,0,0,0,1.47-2.1Z"/><path class="cls-2" d="M431.45,14.83v2.32a14.19,14.19,0,0,0,1.77.1c.83,0,3.4,0,4.45-.05a6.21,6.21,0,0,0-.66,1.87h-3.88c-2.9,0-5-.47-6.44-2.7a7.23,7.23,0,0,1-2.13,2.93,10.62,10.62,0,0,0-1.42-1.21c1.62-1.15,2.41-3.39,2.68-6.05l2.24.32a.4.4,0,0,1-.39.25c-.08.53-.17,1-.28,1.55a4.2,4.2,0,0,0,2.13,2.46V11.16h-3.17V9.41h8.24v1.75h-3.14V13.1h4.26v1.73Zm-5.7-6.69v2.13h-1.82V6.4h5.56V4.71l2.4.14c0,.15-.14.24-.43.29V6.4h5.59v3.87h-1.91V8.14Z"/><path class="cls-2" d="M441.39,7.41c1.05-.12,9.43-1.26,10.89-1.26A5.71,5.71,0,0,1,452.59,8a7.36,7.36,0,0,0-2.54.31A4.9,4.9,0,0,0,446.61,13c0,2.69,2.25,3.56,4.73,3.56a4.71,4.71,0,0,1-.74,2.08c-2.94,0-6.1-1.54-6.1-5.23a6.1,6.1,0,0,1,2.36-4.9c-1.52.19-4.82.85-6.44,1.08a7.2,7.2,0,0,1-.71-2C440.34,7.51,441.11,7.44,441.39,7.41Zm10.2,4a2.69,2.69,0,0,1-1,.48,15,15,0,0,0-1-1.92,5.16,5.16,0,0,1,1-.45A11.78,11.78,0,0,1,451.59,11.45Zm1.8-.73a3.73,3.73,0,0,1-1,.49c-.25-.55-.68-1.38-1-1.91a4.39,4.39,0,0,1,1-.46A16.26,16.26,0,0,1,453.39,10.72Z"/><path class="cls-2" d="M78.74,43.85V38.53a15.67,15.67,0,0,1-3.08,3.93,12.19,12.19,0,0,0-2.07-2.24,16.05,16.05,0,0,0,4.63-6h-4V31.44h4.48V27.62l3.77.22c0,.26-.22.4-.7.48v3.12h3.8v2.74h-3.8v1c1.08.65,3.66,2.47,4.31,3l-1.7,2.58c-.62-.68-1.64-1.64-2.61-2.53v5.64Zm1.45,2.31a14.23,14.23,0,0,1-3.58,6l-2.7-1.88A11.53,11.53,0,0,0,77.31,45ZM84.31,49c0,.76.22.86,1.43.86H89.3c1,0,1.13-.27,1.27-2.23a8.15,8.15,0,0,0,2.85,1.13c-.37,3.2-1.24,3.95-3.82,3.95H85.34c-3.45,0-4.23-.86-4.23-3.65V45.44l3.8.21c-.43-.35-.89-.7-1.32-1L85.72,43a19.14,19.14,0,0,1,4.33,3.66l-2.29,1.83A16.4,16.4,0,0,0,85,45.73c-.09.22-.3.35-.71.43ZM97.76,28.94V43.53H86.71V28.94Zm-3.1,4.11V31.49h-5v1.56Zm0,4V35.44h-5V37Zm0,4V39.39h-5V41Zm2,11.32a21.3,21.3,0,0,0-4.85-6l2.62-1.58a22.23,22.23,0,0,1,5.09,5.8Z"/><path class="cls-2" d="M112.07,28.83c-.11.24-.35.35-.75.32-.57,1.67-1.22,3.36-1.94,5l.81.24c-.06.24-.27.41-.7.49V53h-3.08V39.71a24.17,24.17,0,0,1-1.86,2.61,29.35,29.35,0,0,0-1.34-3.41,34.9,34.9,0,0,0,5.33-11.24Zm11.35,10.62a24.67,24.67,0,0,0,.89,2.95A23.35,23.35,0,0,0,127,40l2.5,2.31a.58.58,0,0,1-.45.17,1.28,1.28,0,0,1-.33-.06,40.37,40.37,0,0,1-3.29,2.42,11.26,11.26,0,0,0,4.1,4.52,10.29,10.29,0,0,0-2.07,2.55c-3.62-2.47-5.58-7-6.71-12.44h-.44a16.27,16.27,0,0,1-1.61,1.15A9.83,9.83,0,0,1,122.26,48c0,3.65-2.21,4.94-4.26,4.94-.57,0-1.24,0-1.91-.08a5.9,5.9,0,0,0-.7-2.6A31.64,31.64,0,0,1,111.86,52a10.54,10.54,0,0,0-1.7-2.29,27.08,27.08,0,0,0,8.68-4.62c-.14-.3-.3-.59-.46-.91a32.4,32.4,0,0,1-6.31,3.41,8.93,8.93,0,0,0-1.48-2.07,25.55,25.55,0,0,0,6.52-3c-.21-.22-.43-.43-.67-.65a31.15,31.15,0,0,1-4.34,1.91,13.48,13.48,0,0,0-1.59-2,27.6,27.6,0,0,0,5.55-2.31h-4.18V35.23a9.3,9.3,0,0,0-2-1.43,17.46,17.46,0,0,0,5.41-6.21l3.48.59c-.08.25-.27.38-.65.38l-.4.67h4.34l.43-.16,2.26,1.37a.89.89,0,0,1-.56.32c-.44.7-1,1.48-1.57,2.26h5.53v6.43Zm-8.63-4.25v2.07h3.53V35.2Zm4.4-2.18a13,13,0,0,0,1.07-1.45h-4.12c-.35.48-.75,1-1.18,1.45Zm.21,14.68a34,34,0,0,1-3.88,2.5,17.23,17.23,0,0,0,1.86.1C119.11,50.3,119.4,48.74,119.4,47.7Zm5.69-10.43V35.2h-3.88v2.07Z"/><path class="cls-2" d="M155.81,33.18l1.89.14c0,.27,0,.78-.06,1.13-.35,11.23-.7,15.29-1.8,16.66s-2.11,1.67-5,1.67c-.68,0-1.38,0-2.08-.06a8.14,8.14,0,0,0-1.18-3.41c1.7.13,3.26.13,4,.13a1.31,1.31,0,0,0,1.15-.43c.76-.78,1.14-4.35,1.41-12.55h-7.68c-.44,5.65-2.32,12.31-10,16.61A12.77,12.77,0,0,0,134,50.46c6.77-3.68,8.57-9.24,9-14h-8.19V33.21h8.32V27.62l4.18.24c0,.27-.24.46-.73.54v4.81h8.47Z"/><path class="cls-2" d="M182.92,47.94a9.39,9.39,0,0,1-.38,3.73,25,25,0,0,1-6.14.73c-3.8,0-7.65-1.21-7.65-5,0-3.36,2.88-5,6.11-6.64a1.94,1.94,0,0,0-2-1.29c-2,0-3.69,1.56-5.88,4.33a9.85,9.85,0,0,1-2.45-2.58,27.85,27.85,0,0,0,5.8-6.86c-1.3.08-2.56.14-3.67.14a12.09,12.09,0,0,1-.59-3.28,16.32,16.32,0,0,0,2.45.19c.86,0,2,0,3.23-.11a18.8,18.8,0,0,0,.92-3.47,12.37,12.37,0,0,1,3.42.89c-.16.51-.46,1.37-.81,2.23a23.68,23.68,0,0,0,4.59-.94,9.82,9.82,0,0,1,.35,3,53.19,53.19,0,0,1-6.36,1.05,38.69,38.69,0,0,1-2.16,3.33,7,7,0,0,1,2.56-.56,3.52,3.52,0,0,1,3.48,2.47c2-1,3.72-1.86,5-2.64a16.27,16.27,0,0,0,2-1.37,8.32,8.32,0,0,1,1.24,3.2c-.81.62-5.15,2.61-8,3.95,0,1.35,0,3.12,0,4.3a11.45,11.45,0,0,1-3.2,0,25.57,25.57,0,0,0,.1-2.83c-1.91,1-2.8,1.94-2.8,3.15,0,1.48,1.51,2.12,4.34,2.12A18.83,18.83,0,0,0,182.92,47.94Z"/><path class="cls-2" d="M197.07,34.12v3.74c0,4.33-.43,10.91-3,15a13.94,13.94,0,0,0-2.78-1.8c2.35-3.81,2.54-9.38,2.54-13.22V31h9.59V27.59l4.1.22c0,.27-.22.43-.73.54V31h9.92v3.09Zm14.28,7.34a44.34,44.34,0,0,1,5.88,10L213.89,53c-.22-.67-.52-1.42-.87-2.23-5.33.43-10.83.81-14.47,1a.57.57,0,0,1-.51.43l-1.35-3.65,3-.11a84.52,84.52,0,0,0,3.67-13.06l4.2,1a.9.9,0,0,1-.83.46,90.65,90.65,0,0,1-3.56,11.42c2.64-.11,5.55-.24,8.41-.41a53.27,53.27,0,0,0-3.24-5.13Z"/><path class="cls-2" d="M230.08,42.56c-.73,1.48-1.78,3.85-2.4,5.49-.45,1.23-.75,2.06-1.05,3a8.1,8.1,0,0,1-3-.64,28,28,0,0,1-.95-7.64,90.16,90.16,0,0,1,.71-10.45c.1-.86.26-2.12.29-3a15.51,15.51,0,0,1,3.67.7A68.23,68.23,0,0,0,226,42.05a9.14,9.14,0,0,0,.27,2.39c0,.14.08.17.16,0,.35-.8,1.13-3,1.59-4.13A9.55,9.55,0,0,1,230.08,42.56Zm8.41-4.83a58.52,58.52,0,0,1-6.2-.06,9.28,9.28,0,0,1-.59-3.47,39.91,39.91,0,0,0,6.68.33,50.37,50.37,0,0,0-.35-5.24,13.76,13.76,0,0,1,3.77.27c-.08,1.07-.05,2.92,0,4.75a20.86,20.86,0,0,0,3.93-.7,9.91,9.91,0,0,1,.08,3.34,35,35,0,0,1-3.93.53c0,.68,0,1.24,0,1.67,0,6.93-1,10.64-5.72,13.41A7.57,7.57,0,0,1,233,50a7.91,7.91,0,0,0,2.29-1.23c2.88-2.21,3.23-5.4,3.23-10Zm4.82-4.55a16.67,16.67,0,0,0-.89-3,7.94,7.94,0,0,1,1.46-.4,16.13,16.13,0,0,1,.94,3A4.35,4.35,0,0,1,243.31,33.18Zm2.54-.75a18.15,18.15,0,0,0-.95-2.9,8,8,0,0,1,1.46-.43,15.68,15.68,0,0,1,1,2.9A5.59,5.59,0,0,1,245.85,32.43Z"/><path class="cls-2" d="M272.5,44.69c0,4-3.29,7.66-9.35,7.66-3.86,0-6-2-6-4.41a3.89,3.89,0,0,1,4.15-3.79A5.52,5.52,0,0,1,267,48.31a4.07,4.07,0,0,0,2.1-3.65c0-2.37-2-3.92-5.2-3.92-4.69,0-7.31,3.3-9.25,6.1a10.92,10.92,0,0,1-2.48-2.72c1.84-2,5-5.27,6.82-7.09,1.65-1.64,3.32-3.26,4.12-4.17-1.5.22-4.06.54-6.54.75a15.21,15.21,0,0,1-.7-3.33,21.84,21.84,0,0,0,2.56,0c2.21-.14,7.7-.59,8.94-.86a9.08,9.08,0,0,1,1.48,2.5c-1.42,1.18-3.31,2.82-4.85,4.24-1.07,1-2,1.91-2.53,2.53a7.82,7.82,0,0,1,3.4-.81C269.37,37.91,272.5,40.33,272.5,44.69ZM264,49.23a2.55,2.55,0,0,0-2.45-2.37,1.11,1.11,0,0,0-1.24,1c0,.88.94,1.42,2.48,1.42C263.23,49.28,263.63,49.25,264,49.23Z"/><path class="cls-2" d="M289.07,27.81c0,.24-.24.4-.7.48v2.64H294V33.8h-5.64v1.75h5v5.21c0,2.13-.62,2.72-3.89,2.72a10.37,10.37,0,0,0-.72-2.5c.32,0,.64,0,.91,0,.81,0,.89,0,.89-.32V38.32h-2.21v5.32c1.54.83,4.61,2.77,5.42,3.3l-1.67,2.8c-.89-.81-2.37-2-3.75-3.07v6.27h-3V46.62a20.65,20.65,0,0,1-4.69,5.32A16.24,16.24,0,0,0,279.18,49a20.59,20.59,0,0,0,6.2-7.25V38.32h-2v4.89h-2.78V35.55h4.8V33.8h-5.9V30.93h5.9V27.59Zm9.54,3.28c0,.27-.24.4-.7.51V46.14h-3.07V30.87Zm2.11-3,3.85.16c-.05.27-.22.46-.7.54V49.07c0,3.06-1,3.84-6.42,3.84a12.88,12.88,0,0,0-1.05-3.28c1.59,0,3.16,0,3.67,0s.65-.16.65-.61Z"/><path class="cls-2" d="M311,35a17.44,17.44,0,0,1,4.28,2.45L313.43,40a18.09,18.09,0,0,0-4.17-2.69Zm-1.32,16a83.35,83.35,0,0,0,3.53-8.7L315.86,44c-.92,2.85-2.05,5.86-3,7.93a.86.86,0,0,1,.24.56.8.8,0,0,1-.11.35Zm2.39-23.13a16.58,16.58,0,0,1,4.26,2.55L314.46,33a17.27,17.27,0,0,0-4.18-2.8Zm22.64,7.6h-1.1a39.5,39.5,0,0,1-2.29,10.48,12.21,12.21,0,0,0,3.69,4.49,12.77,12.77,0,0,0-2,2.53,14.13,14.13,0,0,1-3.23-4.06,13.49,13.49,0,0,1-3.8,4.08,14.84,14.84,0,0,0-1.54-1.53c-.43,1-1.27,1.4-3.34,1.4-.3,0-.65,0-1,0a6.63,6.63,0,0,0-.7-2.52,14.75,14.75,0,0,0,1.64.08.75.75,0,0,0,.68-.25,6.79,6.79,0,0,0,.4-2.68h-2.05A9.89,9.89,0,0,1,316.78,53a13.38,13.38,0,0,0-2.13-1.88c2.07-1.46,3-4.2,3.26-7.53h-2.37V41h3.66V39.26h-2.64V30.15H319a18.09,18.09,0,0,0,.51-2.61c3.5.81,3.58.83,3.66.86-.1.21-.32.32-.72.32-.14.43-.33.92-.52,1.43h3.13v6.74a38.79,38.79,0,0,0,2.18-9.32l3.53.78c-.08.24-.29.37-.67.37-.22,1.27-.46,2.53-.76,3.79h5.42Zm-15.55-1.8h3.07V32.43H319.2Zm0,2.12V37h3.07V35.76Zm4.42,9.09,1.54.13a45.46,45.46,0,0,1-.41,5.54,12.45,12.45,0,0,0,3.7-4.79,37.39,37.39,0,0,1-1.57-6.07,11.11,11.11,0,0,1-.89,1.51v2.44h-5.14l-.17,1.26H323ZM322,39.26v0l.92,0c0,.24-.21.4-.7.46V41h3.67c-.41-.51-1-1.23-1.49-1.74Zm6.47-3.58a41.54,41.54,0,0,0,1.3,6.26,41.09,41.09,0,0,0,1.05-6.5h-2.27Z"/><path class="cls-2" d="M362,32.22l1.7.1c0,.25,0,.7-.05,1-.33,12.37-.62,16.67-1.67,18-.86,1.21-1.81,1.56-4.45,1.56-.65,0-1.37,0-2.08,0a7.46,7.46,0,0,0-1-3.09c1.56.11,3,.13,3.66.13a1.25,1.25,0,0,0,1.08-.48c.73-.83,1.08-4.7,1.32-14.24H355.1A25.79,25.79,0,0,1,353.43,39l2.4-1a22,22,0,0,1,3,6.24l-3,1.29a23.24,23.24,0,0,0-2.67-6.1c-.32.54-.64,1-1,1.48A16.65,16.65,0,0,0,350.3,39v9.65h-6.87V50.6h-3V32.11h2.78a37.51,37.51,0,0,0,1-4.54l4,.83c-.11.24-.32.35-.73.38a32.42,32.42,0,0,1-1.21,3.33h4v6c1.64-2.52,2.83-6.55,3.45-10.48l3.83.86a.65.65,0,0,1-.7.38c-.25,1.13-.51,2.28-.81,3.41h5.25Zm-14.76,6.66V35h-3.83v3.9Zm-3.83,6.93h3.83V41.7h-3.83Z"/><path class="cls-2" d="M378.68,35.25a59,59,0,0,1-5.47,12.2A9,9,0,0,1,370,45.68a44.29,44.29,0,0,0,5.06-10c-1.24,0-2.53.08-3.8,0a8.29,8.29,0,0,1-.67-3.36,19.75,19.75,0,0,0,2.83.25c.86,0,1.72,0,2.59-.09.1-.51.19-1,.27-1.45a24.86,24.86,0,0,0,.32-2.71,11.94,11.94,0,0,1,3.61.91c-.13.86-.35,1.83-.59,2.82a22.79,22.79,0,0,0,3.91-1.15,6.79,6.79,0,0,1,.48,3A22.69,22.69,0,0,1,378.68,35.25Zm9.43,12.82c0,2.53-1.51,4.33-5,4.33-3.32,0-6-1.67-6-4.65,0-2.28,2.4-4.17,6.09-4.17a14.21,14.21,0,0,1,1.48.08c-.1-2.23-.24-4.86-.16-6.31a9.35,9.35,0,0,1,3.43-.11,29.74,29.74,0,0,0-.11,3.79c0,.73.08,2,.13,3.31a18.48,18.48,0,0,1,5.45,2.76,5.64,5.64,0,0,1-1.59,3.39,13.6,13.6,0,0,0-3.67-2.74Zm-5.28-1.64c-1.64,0-2.56.51-2.56,1.35s.92,1.53,2.37,1.53c2,0,2.1-1.16,2.1-2.69A9.45,9.45,0,0,0,382.83,46.43Zm3.29-12.79A8.79,8.79,0,0,1,387.63,31a26.62,26.62,0,0,1,6.44,3.79,8.11,8.11,0,0,1-1.67,2.93A20.89,20.89,0,0,0,386.12,33.64Z"/><path class="cls-2" d="M408,44.34l.32,2.71c-3,.78-6.09,1.59-8.08,2.07a.62.62,0,0,1-.48.48l-.92-3.36c.94-.18,2.13-.4,3.39-.67V40.12h-2.72V37.27h2.72V32.38h-3V29.53H408v2.85h-2.94v4.89h2.5v2.85h-2.5V45Zm13.83.91,2.5,1.91a.61.61,0,0,1-.46.16.86.86,0,0,1-.27,0c-.64.38-1.72,1-2.61,1.43a13.46,13.46,0,0,0,3.53,1.72,12.15,12.15,0,0,0-2,2.52,13.85,13.85,0,0,1-6.6-5.86v5.84H412.8v-4a27.17,27.17,0,0,1-5.21,2.69,14.38,14.38,0,0,0-1.86-2.28,25.63,25.63,0,0,0,7.93-4.09h-4.21V39H422.6v6.29Zm-14.18-9.81h16.95V38H407.62Zm15.71-7v6.08H408.81V28.45ZM413,32.38V30.63h-1.65v1.75Zm-.76,9V42.8h7.33V41.41Zm4.56-9V30.63h-1.73v1.75Zm.81,12.87a11.08,11.08,0,0,0,1.61,2,22.08,22.08,0,0,0,2.48-2Zm3-12.87V30.63h-1.75v1.75Z"/><path class="cls-2" d="M435,43.69l2.56-.83c.19.89.35,1.77.54,2.82-2.72,1.13-5.6,2.26-7.52,3a.61.61,0,0,1-.4.51l-1.43-3.57c.89-.24,2-.56,3.23-.94V37.05h-2.64V34H432V27.84l3.72.21c0,.27-.21.4-.7.48V34h2.4v3H435Zm10.19,2.88c-.06.21-.27.4-.68.43-.75,2.66-1.94,4.75-7.27,6.07a9.52,9.52,0,0,0-1.75-2.74c4.58-.78,5.57-2.07,6-4.17Zm9.24-12.42v2.61H437.64V34.15h3.67a12.12,12.12,0,0,0-.73-2l1.05-.22h-3.31v-2.5h5.93v-1.9l3.88.18c0,.27-.22.43-.7.54v1.18h6.44V32h-3l.94.25c0,.18-.29.29-.64.29-.24.49-.6,1.08-.92,1.64Zm-4.71,15.19c0,.67.08.75.54.75h1.21c.46,0,.56-.27.64-2.31a8.47,8.47,0,0,0,2.67,1.13c-.29,3.11-1,3.92-2.94,3.92h-2.12c-2.56,0-3.08-.89-3.08-3.44V46h-7.57V37.78H452.9V46h-2.54a.93.93,0,0,1-.64.29Zm-7.6-9.6v1.18h7.6V39.74Zm0,3V44h7.6V42.78Zm5.25-8.68a16.69,16.69,0,0,0,.76-2.13h-4.59a9.21,9.21,0,0,1,.79,2.13l-.25,0h3.45Z"/></svg>