<svg id="レイヤー_1" data-name="レイヤー 1" xmlns="http://www.w3.org/2000/svg" viewBox="0 0 82 62"><defs><style>.cls-1{fill:#00a0e9;}</style></defs><title>icon7</title><g id="レイヤー_2" data-name="レイヤー 2"><g id="レイヤー_1-2" data-name="レイヤー 1-2"><path class="cls-1" d="M21.38,60c-3.39,0-9.8-19.78-9.8-30.23,0-9,4.41-13.21,7-15.75A11.44,11.44,0,0,0,20,12.57V9a3.66,3.66,0,0,1,.69-7.25H49.48A3.66,3.66,0,0,1,50.17,9v3.59a11.36,11.36,0,0,0,1.39,1.47c2.64,2.54,7,6.78,7,15.75C58.61,40.25,52.19,60,48.8,60Zm27-2.74c1.74-2.2,7.51-16.53,7.51-27.49C55.89,22,52,18.26,49.69,16c-1.3-1.25-2.23-2.15-2.23-3.38V9.07H22.75v3.58c0,1.23-.93,2.13-2.23,3.38-2.32,2.23-6.21,6-6.21,13.77,0,11,5.77,25.29,7.51,27.49ZM20.67,4.5a.93.93,0,0,0,0,1.85H49.48a.93.93,0,0,0,.83-1,1,1,0,0,0-.83-.83Z"/></g></g></svg>