<?xml version="1.0" encoding="UTF-8"?>
<!-- Generator: Adobe Illustrator 21.1.0, SVG Export Plug-In . SVG Version: 6.00 Build 0)  -->
<svg version="1.1" xmlns="http://www.w3.org/2000/svg" xmlns:xlink="http://www.w3.org/1999/xlink" x="0px" y="0px" width="25px" height="21px" viewBox="0 0 25 21" style="enable-background:new 0 0 25 21;" xml:space="preserve">
<style type="text/css">
	.st0{fill:#FFFFFF;}
</style>
<path class="st0" d="M7.4,4.8C6.9,4.8,6.6,4.5,6.6,4V0.9c0-0.4,0.3-0.8,0.8-0.8s0.8,0.3,0.8,0.8V4C8.1,4.5,7.8,4.8,7.4,4.8z"/>
<path class="st0" d="M17.5,4.8c-0.4,0-0.8-0.3-0.8-0.8V0.9c0-0.4,0.3-0.8,0.8-0.8s0.8,0.3,0.8,0.8V4C18.3,4.5,18,4.8,17.5,4.8z"/>
<path class="st0" d="M20.5,7.9H4.4C4,7.9,3.6,7.6,3.6,7.1s0.3-0.8,0.8-0.8h16.2c0.4,0,0.8,0.3,0.8,0.8S21,7.9,20.5,7.9z"/>
<path class="st0" d="M12.9,20.9H6.1c-1.4,0-2.5-1.1-2.5-2.5v-14c0-1.4,1.1-2.6,2.5-2.6h12.7c1.4,0,2.6,1.1,2.6,2.6v11.3  c0,0.4-0.3,0.8-0.8,0.8s-0.8-0.3-0.8-0.8V4.4c0-0.6-0.5-1.1-1.1-1.1H6.1c-0.6,0-1,0.5-1,1.1v14.1c0,0.5,0.5,1,1,1h6.7  c0.4,0,0.8,0.3,0.8,0.8S13.3,20.9,12.9,20.9z"/>
<path class="st0" d="M12.4,16.2c-0.4,0-0.8-0.3-0.8-0.8v-3.9l-0.3,0.3c-0.3,0.3-0.8,0.3-1.1,0s-0.3-0.8,0-1.1l1.6-1.5  C12,9,12.3,8.9,12.6,9.1c0.3,0.1,0.5,0.4,0.5,0.7v5.6C13.1,15.9,12.8,16.2,12.4,16.2z"/>
<path class="st0" d="M12.8,20.9c-0.4,0-0.7-0.3-0.7-0.6c-0.1-0.4,0.2-0.8,0.6-0.9c0,0,1.8-0.5,2.6-1.9c0.5-0.8,0.5-1.9,0.1-3.1  c-0.1-0.3,0-0.6,0.2-0.8s0.5-0.3,0.7-0.2l4.4,1.3c0.3,0.1,0.5,0.4,0.5,0.7v0.3v0.1C20.7,20.1,13.2,20.9,12.8,20.9  C12.9,20.9,12.9,20.9,12.8,20.9z M17.2,15.2c0.1,1.1-0.1,2.1-0.6,3c-0.1,0.1-0.1,0.2-0.2,0.4c1.5-0.5,3-1.4,3.4-2.6L17.2,15.2z   M20.5,15.8L20.5,15.8L20.5,15.8z"/>
</svg>