<svg id="レイヤー_1" data-name="レイヤー 1" xmlns="http://www.w3.org/2000/svg" viewBox="0 0 82 62"><defs><style>.cls-1{fill:#00a0e9;}</style></defs><title>icon8</title><g id="レイヤー_2" data-name="レイヤー 2"><g id="レイヤー_1-2" data-name="レイヤー 1-2"><path class="cls-1" d="M15,20.24a2.23,2.23,0,0,0-.74,3.08v0a2.13,2.13,0,0,0,.89.82l.73,32a2.39,2.39,0,0,0,4.77,0l.73-32a2.24,2.24,0,0,0,1-3h0a2.26,2.26,0,0,0-.84-.92,6.48,6.48,0,0,0,3.27-5.63c0-4.82-5.8-10.93-6-11.19a.69.69,0,0,0-1,0l0,0h0c-.25.27-6,6.61-6,11.18A6.49,6.49,0,0,0,15,20.24ZM20.35,23H16.2a.88.88,0,1,1,0-1.76h4.15a.88.88,0,1,1,0,1.76ZM19.3,56.1a1,1,0,0,1-2,0l-.73-31.68H20Zm-1-51.16c1.4,1.58,5.16,6.17,5.16,9.67a5.17,5.17,0,0,1-10.33,0C13.13,11.3,16.92,6.56,18.3,4.94Z"/><path class="cls-1" d="M43.24,48.28,45.69,8V4a.69.69,0,0,0-.64-.74H27.57a.69.69,0,0,0-.69.69h0V8l2.45,40.29a2.6,2.6,0,0,0,1.92,2.35v2.44h0a1.65,1.65,0,0,0-1.64,1.65V57a1.66,1.66,0,0,0,1.64,1.64H41.33A1.65,1.65,0,0,0,43,57h0V54.8a1.65,1.65,0,0,0-1.65-1.65h0V50.68A2.62,2.62,0,0,0,43.24,48.28ZM44.31,4.59V7.74h-16V4.59ZM30.71,48.2,28.33,9.12h15.9L41.86,48.2a1.24,1.24,0,0,1-1.24,1.15H31.94A1.23,1.23,0,0,1,30.71,48.2Zm10.87,6.52v2.2a.26.26,0,0,1-.26.26H31.24a.26.26,0,0,1-.26-.26h0v-2.2a.26.26,0,0,1,.26-.26H41.33a.25.25,0,0,1,.25.25Zm-8.95-1.65V50.73h7.3v2.34Z"/><path class="cls-1" d="M64.55,48.29,67,15.56V11.5a.69.69,0,0,0-.69-.69H48.88a.69.69,0,0,0-.69.69h0v4.1l2.45,32.68a2.62,2.62,0,0,0,1.92,2.34v2.44h0a1.65,1.65,0,0,0-1.64,1.65v2.2a1.66,1.66,0,0,0,1.64,1.64H62.65a1.66,1.66,0,0,0,1.64-1.64v-2.2a1.65,1.65,0,0,0-1.64-1.65h0V50.62A2.62,2.62,0,0,0,64.55,48.29ZM65.62,12.2v3.15H49.57V12.2ZM52,48.2,49.66,16.74H65.53L63.17,48.21a1.23,1.23,0,0,1-1.23,1.15H53.25A1.24,1.24,0,0,1,52,48.19Zm10.9,6.53v2.2a.26.26,0,0,1-.26.26H52.55a.26.26,0,0,1-.26-.26h0v-2.2a.26.26,0,0,1,.26-.26H62.64a.26.26,0,0,1,.26.25ZM54,53.07V50.73h7.3v2.34Z"/></g></g></svg>