<?xml version="1.0" encoding="UTF-8"?>
<!-- Generator: Adobe Illustrator 21.1.0, SVG Export Plug-In . SVG Version: 6.00 Build 0)  -->
<svg version="1.1" xmlns="http://www.w3.org/2000/svg" xmlns:xlink="http://www.w3.org/1999/xlink" x="0px" y="0px" width="12px" height="16px" viewBox="0 0 12 16" style="enable-background:new 0 0 12 16;" xml:space="preserve">
<style type="text/css">
	.st0{fill:none;stroke:#FFFFFF;stroke-miterlimit:10;}
</style>
<path class="st0" d="M6.1,0.8c-2.9,0-5.4,2.5-5.4,5.5c0,3.1,2.9,6.3,4.8,8.5c0,0,0.3,0.4,0.7,0.4c0,0,0,0,0,0c0.4,0,0.7-0.3,0.7-0.4  c1.8-2.1,4.5-5.5,4.5-8.5C11.4,3.3,9.4,0.8,6.1,0.8z M6,8.7c-1.4,0-2.5-1.1-2.5-2.5S4.6,3.8,6,3.8s2.5,1.1,2.5,2.5S7.4,8.7,6,8.7z"/>
</svg>