<svg id="レイヤー_1" data-name="レイヤー 1" xmlns="http://www.w3.org/2000/svg" viewBox="0 0 82 62"><defs><style>.cls-1{fill:#00a0e9;}</style></defs><title>icon4</title><g id="レイヤー_2" data-name="レイヤー 2"><g id="レイヤー_1-2" data-name="レイヤー 1-2"><path class="cls-1" d="M9.93,8.29c-1,.12-2.95.23-2.95.23s-.9-.11-1.7-.23S3.47,8.75,2.56,9s-1,1.47-.67,2.83l1.47,3.41a4.21,4.21,0,0,0-.12,1,1.2,1.2,0,0,0,.46.91,6.58,6.58,0,0,1,.22,1.24c0,.46.91,5.91.91,6.93s2.38,14,2.38,14,1.36,11.57,1.7,12.37.45,0,.79.57,2.27-.91,3-1.25a12.38,12.38,0,0,0,1.47-.91s.34,0,.23-1.25c-.07-.71-.39-6-.74-10.74,4.08-2.15,14.9-8.1,14.9-8.1l.79-.56-.11-.8a2.37,2.37,0,0,0,.45-.68,2.21,2.21,0,0,0,.11-.57s-.56-.68-1.13-.68.34-1.25.11-2,.23-1.25.23-1.93.34-.91.57-1.59a6.58,6.58,0,0,0,.34-1.7c0-.34-1.93.45-3.18.91-1,.35-10,4.35-14.14,6.27V26.6c-.28-5.27-.44-13.87-.36-14.54.12-.91-.22-.91-.9-1.25s-.23-.57,0-1.59S11,8.18,9.93,8.29Z"/><path class="cls-1" d="M27.37,7.5a1.42,1.42,0,0,0-1.24,0l-2.49-.11s-1.59-.12-2.16.45a24.65,24.65,0,0,0-2.83,4.31A8.86,8.86,0,0,1,18,13.63c-.34.68.11.57.68.79s.34,1.25.34,1.25a20.3,20.3,0,0,0,1.25,2.72,1.61,1.61,0,0,0,1.47.8h.91l1-1L25,16.94a2.25,2.25,0,0,1,1.24-.34,5.73,5.73,0,0,0,1.47-.91,11.45,11.45,0,0,0,.91-2.38,4.48,4.48,0,0,0,.23-1.82l-.57-2.27S27.94,7.84,27.37,7.5Z"/><path class="cls-1" d="M37.68,13.52A13.8,13.8,0,0,1,38.36,12c.23-.34,1.36-1.59,1.36-1.59l-.34-1.13L37,8l-1.92-.79-1.48.91a4.3,4.3,0,0,0-1.24,1.47c-.23.68.11,5.79.11,6.47,0,0,.91,1.14,1.36.91s.57-.57.91-.34.56-.34,1.36-.46.56-.68.79-1.36A3.66,3.66,0,0,1,37.68,13.52Z"/><path class="cls-1" d="M47.35,33.28a3,3,0,0,0,1,1.59A11.94,11.94,0,0,1,49.73,37c.46,1,1,0,1.59-.23a10.86,10.86,0,0,1,3.4-.45c.68.11.56,0,1.13-.57a4.38,4.38,0,0,0,.79-1.93s.46-1.36.68-2.15,1-1.25,1.48-2.16-.12-.8-.57-1.48a3.73,3.73,0,0,1-.79-2.38c0-1.13.45-1.36.45-1.7s-2.38-1-2.38-1l-2-.23-2.38.91L48.87,25.9s-.68,1.25-1.48,1.25-1.13,1.36-1.58,1.92a11.62,11.62,0,0,0-.34,2.62C45.54,32.38,47,32.15,47.35,33.28Z"/><path class="cls-1" d="M80.89,27.16s-.34-1.25-.91-.57.45-.12-1.47,1.13-9.74,6.7-11.78,7.83-10.43,7.83-12,9.08-4.19,3.18-4.65,3.75a1.67,1.67,0,0,0-.45.91c1.81-.12,1.59.79,2.27,1.58s.45,1.37,1.24,1.59,1.25,1.14,1.93.57a6.09,6.09,0,0,1,2.38-.79,4.8,4.8,0,0,1,2.26,0c.68.34,1,1.58,1.59.68s10.19-12.71,11.89-14.3,4.54-4.54,5.44-5.56S81,31.7,80.9,31.35a27.75,27.75,0,0,1,.1-3.29Z"/></g></g></svg>