<svg id="レイヤー_1" data-name="レイヤー 1" xmlns="http://www.w3.org/2000/svg" viewBox="0 0 82 62"><defs><style>.cls-1{fill:#00a0e9;}</style></defs><title>icon10</title><g id="レイヤー_2" data-name="レイヤー 2"><g id="レイヤー_1-2" data-name="レイヤー 1-2"><path class="cls-1" d="M51.33,23.73a.88.88,0,0,1-.76-.43L40.19,6.64A.93.93,0,0,1,41,5.25H61.61a.9.9,0,0,1,.91.89h0a1,1,0,0,1-.14.49L52.06,23.3a.88.88,0,0,1-.76.43ZM42.59,7.06l8.74,14L60,7.06Z"/><path class="cls-1" d="M30.6,23.73a.92.92,0,0,1-.77-.42L19.4,6.64a.91.91,0,0,1,.29-1.25.92.92,0,0,1,.48-.14H40.91a.94.94,0,0,1,.8.46.89.89,0,0,1,0,.92L31.33,23.3a.9.9,0,0,1-.77.43ZM21.8,7.06l8.79,14.05,8.7-14Z"/><path class="cls-1" d="M30.61,23.73H10a.92.92,0,0,1-.91-.89,1,1,0,0,1,.14-.49L19.39,5.68a.91.91,0,0,1,.77-.43h0a.89.89,0,0,1,.76.42L31.33,22.22a.91.91,0,0,1-.08,1.28.9.9,0,0,1-.6.23Zm-19-1.81H29l-8.78-14Z"/><path class="cls-1" d="M51.33,23.73H30.6a.92.92,0,0,1-.91-.89,1,1,0,0,1,.14-.49L40.15,5.68a.88.88,0,0,1,.76-.43h0a.92.92,0,0,1,.77.42L52,22.22a.91.91,0,0,1-.08,1.28.9.9,0,0,1-.6.23ZM32.24,21.92H49.68l-8.74-14Z"/><path class="cls-1" d="M71.72,23.73H51.33a.92.92,0,0,1-.91-.89,1,1,0,0,1,.14-.49L60.81,5.68a.91.91,0,0,1,.77-.43h0a.9.9,0,0,1,.77.43l10.1,16.55a.9.9,0,0,1,.22.59.91.91,0,0,1-.91.91h0ZM52.91,21.92H70.1l-8.56-14Z"/><path class="cls-1" d="M41,55.89a.88.88,0,0,1-.65-.28l-31-32.15a.94.94,0,0,1-.18-1,.91.91,0,0,1,.83-.55H71.71a.91.91,0,0,1,.91.89.9.9,0,0,1-.26.64L41.68,55.6a.88.88,0,0,1-.65.28ZM12.12,23.73,41,53.73l28.56-30Z"/><path class="cls-1" d="M41,55.89a.9.9,0,0,1-.86-.63L29.74,23.11a.9.9,0,0,1,1.72-.56h0L41.89,54.7a.91.91,0,0,1-.58,1.15h0A.83.83,0,0,1,41,55.89Z"/><path class="cls-1" d="M41.06,55.89h-.27a.91.91,0,0,1-.59-1.14L50.43,22.59A.91.91,0,0,1,52.2,23v.12L41.92,55.3A.9.9,0,0,1,41.06,55.89Z"/></g></g></svg>