<svg id="レイヤー_1" data-name="レイヤー 1" xmlns="http://www.w3.org/2000/svg" viewBox="0 0 82 62"><defs><style>.cls-1{fill:#00a0e9;}</style></defs><title>icon2</title><g id="レイヤー_2" data-name="レイヤー 2"><g id="レイヤー_1-2" data-name="レイヤー 1-2"><path class="cls-1" d="M62,7.48H19.66a5,5,0,0,0-5,5v30a5,5,0,0,0,5,5h16l-.83,5H30.9a1.25,1.25,0,0,0,0,2.5H50.84a1.25,1.25,0,0,0,0-2.5H46.91l-.83-5h16a5,5,0,0,0,5-5h0v-30a5,5,0,0,0-5-5Zm-24.7,45,.83-5H43.5l.83,5Zm27.2-10A2.5,2.5,0,0,1,62,45H19.66a2.52,2.52,0,0,1-2.49-2.5V40H64.54Zm0-5H17.17v-25A2.5,2.5,0,0,1,19.66,10H62a2.5,2.5,0,0,1,2.5,2.5ZM40.85,43.72a1.23,1.23,0,0,0,1.25-1.21h0a1.29,1.29,0,0,0-.36-.89,1.23,1.23,0,0,0-1.75,0h0a1.22,1.22,0,0,0-.37.88,1.29,1.29,0,0,0,.36.89A1.35,1.35,0,0,0,40.85,43.72ZM53.11,14.31a1.29,1.29,0,0,0-1.8-.28,1.24,1.24,0,0,0-.28.28L46,21.8a1.2,1.2,0,0,0-.21.69v10a1.25,1.25,0,0,0,2.49.26v0a.81.81,0,0,0,0-.22V25H50.8v7.49a1.25,1.25,0,0,0,2.5,0V25h2.49v7.49a1.25,1.25,0,0,0,2.49.26v0a.81.81,0,0,0,0-.22v-10a1.13,1.13,0,0,0-.21-.69Zm-4.53,8.18,2.5-3.74h2l2.49,3.74Zm-9-6.24h-15a1.25,1.25,0,0,0,0,2.5h15a1.25,1.25,0,0,0,0-2.5Zm0,6.24h-15a1.25,1.25,0,0,0,0,2.5h15a1.25,1.25,0,0,0,0-2.5Zm-6.25,6.22H24.61a1.25,1.25,0,0,0-.22,2.49.81.81,0,0,0,.22,0h8.72a1.25,1.25,0,0,0,.23-2.49h0A.89.89,0,0,0,33.33,28.71Z"/></g></g></svg>