<svg id="レイヤー_1" data-name="レイヤー 1" xmlns="http://www.w3.org/2000/svg" viewBox="0 0 82 62"><defs><style>.cls-1{fill:#00a0e9;}</style></defs><title>icon5</title><g id="レイヤー_2" data-name="レイヤー 2"><g id="レイヤー_1-2" data-name="レイヤー 1-2"><path class="cls-1" d="M65.72,37.5l-7.4-7.42L36.09,7.85a1,1,0,0,0-.37-.35A2.83,2.83,0,0,0,34.8,7L26.62,4.2,23.48,3.14a1.88,1.88,0,0,0-1.85.3,1.19,1.19,0,0,0-.16.23h0l-.06.11a1.51,1.51,0,0,0-.15.28v.06a2.13,2.13,0,0,0,.07,1.2l1.15,3.43c.12.36.23.71.35,1.06v.1h0q1.11,3.36,2.24,6.71a2.81,2.81,0,0,0,.67,1.08l.09.1,26.6,26.7h0l3.21,3.21a4.49,4.49,0,0,0,3.27,1.37h0a4.46,4.46,0,0,0,3.28-1.36l3.48-3.48a4.63,4.63,0,0,0,.26-6.53ZM35.25,9.59,60.62,35l-3.13,3.14L32.15,12.74Zm-10.52.32L28,6.6l5.76,1.9-3.53,3.57h0l-3.54,3.59Zm3,7.27L30.84,14,56.2,39.41l-3.12,3.14ZM64.4,43l-3.46,3.5a2.86,2.86,0,0,1-4,0l-2.59-2.6,3.76-3.77h0l3.76-3.77,2.53,2.53a2.83,2.83,0,0,1,.12,4l-.09.09Z"/><path class="cls-1" d="M11.55,13.73a.91.91,0,0,0-1.55.64V56.76a1.79,1.79,0,0,0,1.55,2,1.69,1.69,0,0,0,.45,0H54.3a.91.91,0,0,0,.64-1.55ZM46,56.92H43.55V51.78a.91.91,0,0,0-1.82,0h0v5.14H39.66V53.86a.91.91,0,0,0-1.82,0h0v3.06h-2.1V51.85a.91.91,0,0,0-1.82,0v5.07H31.74v-3a.91.91,0,1,0-1.82,0h0v3H27.87V51.85a.91.91,0,1,0-1.82,0h0v5.07H23.88v-3a.91.91,0,1,0-1.82,0h0v3H20v-5a.91.91,0,0,0-.8-1,.93.93,0,0,0-1,.81h0a.61.61,0,0,0,0,.19v5H16.08V54a.91.91,0,0,0-.8-1,.93.93,0,0,0-1,.81h0a.61.61,0,0,0,0,.19v2.91H11.83a.49.49,0,0,1,0-.17V16.57L52.12,56.92Z"/><path class="cls-1" d="M19.51,47.5H31.73a.91.91,0,0,0,.86-1,.9.9,0,0,0-.22-.54L19.83,33.35a.93.93,0,0,0-1-.19.9.9,0,0,0-.56.84V46.26a1.16,1.16,0,0,0,1.07,1.24Zm.58-11.28,9.45,9.46H20.09Z"/></g></g></svg>