<?xml version="1.0" encoding="utf-8"?>
<!-- Generator: Adobe Illustrator 16.0.0, SVG Export Plug-In . SVG Version: 6.00 Build 0)  -->
<!DOCTYPE svg PUBLIC "-//W3C//DTD SVG 1.1//EN" "http://www.w3.org/Graphics/SVG/1.1/DTD/svg11.dtd">
<svg version="1.1" id="レイヤー_1" xmlns="http://www.w3.org/2000/svg" xmlns:xlink="http://www.w3.org/1999/xlink" x="0px"
	 y="0px" width="32px" height="31px" viewBox="0 0 32 31" enable-background="new 0 0 32 31" xml:space="preserve">
<path fill="#FFFFFF" d="M19.067,12.908v4.394c0,0.109-0.087,0.196-0.199,0.196h-0.703c-0.068,0-0.13-0.037-0.16-0.081l-2.015-2.718
	v2.608c0,0.11-0.087,0.197-0.198,0.197h-0.704c-0.11,0-0.197-0.087-0.197-0.197v-4.393c0-0.11,0.087-0.197,0.197-0.197h0.698
	c0.062,0,0.13,0.031,0.16,0.087l2.015,2.717v-2.607c0-0.11,0.086-0.197,0.198-0.197h0.703C18.975,12.71,19.067,12.803,19.067,12.908
	L19.067,12.908z M14.001,12.71h-0.703c-0.113,0-0.199,0.087-0.199,0.198v4.394c0,0.109,0.086,0.196,0.199,0.196h0.703
	c0.111,0,0.197-0.087,0.197-0.196v-4.394C14.198,12.803,14.112,12.71,14.001,12.71L14.001,12.71z M12.302,16.393h-1.92v-3.485
	c0-0.111-0.088-0.198-0.199-0.198H9.479c-0.11,0-0.197,0.087-0.197,0.198v4.394c0,0.054,0.018,0.098,0.056,0.135
	c0.037,0.03,0.08,0.056,0.137,0.056h2.822c0.111,0,0.197-0.087,0.197-0.198V16.59C12.493,16.485,12.407,16.393,12.302,16.393z
	 M22.772,12.71h-2.821c-0.106,0-0.199,0.087-0.199,0.198v4.394c0,0.104,0.087,0.196,0.199,0.196h2.821
	c0.112,0,0.198-0.087,0.198-0.196v-0.706c0-0.11-0.086-0.197-0.198-0.197h-1.92v-0.742h1.92c0.112,0,0.198-0.086,0.198-0.197v-0.711
	c0-0.111-0.086-0.197-0.198-0.197h-1.92V13.81h1.92c0.112,0,0.198-0.087,0.198-0.198v-0.705
	C22.965,12.803,22.879,12.71,22.772,12.71L22.772,12.71z M29.934,7.317v17.624c-0.006,2.768-2.274,5.011-5.047,5.004H7.261
	c-2.767-0.005-5.01-2.278-5.004-5.047V7.274c0.006-2.768,2.28-5.01,5.047-5.004H24.93C27.697,2.275,29.939,4.543,29.934,7.317z
	 M26.128,14.892c0-4.51-4.521-8.18-10.076-8.18s-10.076,3.669-10.076,8.18c0,4.04,3.584,7.425,8.428,8.067
	c1.18,0.253,1.043,0.687,0.777,2.273c-0.043,0.254-0.203,0.994,0.871,0.543c1.075-0.451,5.801-3.416,7.919-5.849
	C25.431,18.32,26.128,16.695,26.128,14.892z"/>
</svg>
