<svg id="レイヤー_1" data-name="レイヤー 1" xmlns="http://www.w3.org/2000/svg" viewBox="0 0 92 86"><defs><style>.cls-1{fill:#0094d6;}</style></defs><title>mark3</title><g id="レイヤー_2" data-name="レイヤー 2"><g id="レイヤー_1-2" data-name="レイヤー 1-2"><path class="cls-1" d="M77.29,86H63.52c-11.4-.55-16.16-11.83-17.32-15.16C45,74.17,40.28,85.45,28.89,86H15.25V64.42H.54V20.78H15.37V0H29c.1,0,12.44-.53,17.16,14.71C50.93-.54,63.23,0,63.38,0H77.17V20.78H92V64.42H77.29ZM46.2,68.69l.29,1.09c0,.14,4.2,15,17,15.61H76.68V63.82H91.39V21.39H76.57V.61H63.36C63.22.61,50.84.1,46.49,15.87l-.29,1.06-.29-1.06C41.55.07,29.19.62,29.06.61H16V21.39H1.15V63.82H15.86V85.39h13c12.84-.61,17-15.47,17-15.61Z"/><path class="cls-1" d="M62,1.81H75.14v8.84H65.56s-13.79-.24-16.77,10.08H46.9S47.94,4.11,62,1.81Z"/><path class="cls-1" d="M49.54,21.09H75.16V12.25H61.73S53.06,13.51,49.54,21.09Z"/><path class="cls-1" d="M47.09,22.58h43v8.84H49.49S47.07,29.88,47.09,22.58Z"/><path class="cls-1" d="M50.27,32.94H90.08v8.84H62.82S54.24,40.55,50.27,32.94Z"/><path class="cls-1" d="M47.07,29.47s3.38,12.1,16,14H75.3V52H62.88S47.35,50.83,47.07,29.47Z"/><path class="cls-1" d="M47.07,39.89s3.38,12.1,16,14H75.3v8.55H62.88S47.35,61.24,47.07,39.89Z"/><rect class="cls-1" x="76.27" y="43.35" width="13.85" height="8.84"/><rect class="cls-1" x="76.27" y="53.76" width="13.85" height="8.84"/><path class="cls-1" d="M63.52,64.05H75.27v9.4H63.84s-17-1.89-16.47-23.18A18.72,18.72,0,0,0,63.52,64.05Z"/><path class="cls-1" d="M63.52,74.9H75.27v9.39H63.84s-17-1.89-16.47-23.18A18.74,18.74,0,0,0,63.52,74.9Z"/><path class="cls-1" d="M30.37,1.81H17.23v8.84h9.58s13.79-.24,16.77,10.08h1.89S44.46,4.11,30.37,1.81Z"/><path class="cls-1" d="M42.87,21.09H17.24V12.25H30.67S39.34,13.51,42.87,21.09Z"/><path class="cls-1" d="M45.32,22.58h-43v8.84H42.91S45.33,29.88,45.32,22.58Z"/><path class="cls-1" d="M42.13,32.94H2.33v8.84H29.58S38.16,40.55,42.13,32.94Z"/><path class="cls-1" d="M45.33,29.47s-3.38,12.1-16,14H17.13V52H29.52S45.06,50.83,45.33,29.47Z"/><path class="cls-1" d="M45.33,39.89s-3.38,12.1-16,14H17.13v8.55H29.52S45.06,61.24,45.33,39.89Z"/><rect class="cls-1" x="2.28" y="43.35" width="13.85" height="8.84"/><rect class="cls-1" x="2.28" y="53.76" width="13.85" height="8.84"/><path class="cls-1" d="M28.88,64.05H17.13v9.4H28.56s17-1.89,16.48-23.18A18.73,18.73,0,0,1,28.88,64.05Z"/><path class="cls-1" d="M28.88,74.9H17.13v9.39H28.56S45.56,82.4,45,61.11A18.73,18.73,0,0,1,28.88,74.9Z"/></g></g></svg>