<?xml version="1.0" encoding="utf-8"?>
<!-- Generator: Adobe Illustrator 16.0.0, SVG Export Plug-In . SVG Version: 6.00 Build 0)  -->
<!DOCTYPE svg PUBLIC "-//W3C//DTD SVG 1.1//EN" "http://www.w3.org/Graphics/SVG/1.1/DTD/svg11.dtd">
<svg version="1.1" id="圖層_1" xmlns="http://www.w3.org/2000/svg" xmlns:xlink="http://www.w3.org/1999/xlink" x="0px" y="0px"
	 width="216.75px" height="94.5px" viewBox="0 0 216.75 94.5" enable-background="new 0 0 216.75 94.5" xml:space="preserve">
<g>
	<path fill="#2173A6" d="M102.42,39.077c0-0.126-0.042-0.169-0.168-0.169H91.537v3.824h10.883V39.077z"/>
	<polygon fill="#2173A6" points="102.42,49.245 102.42,45.968 91.537,45.968 91.537,49.456 102.252,49.456 	"/>
	<path fill="#2173A6" d="M87.965,38.908H76.577c-0.126,0-0.169,0.042-0.126,0.169v3.655h11.514V38.908z"/>
	<path fill="#2173A6" d="M87.965,45.968H76.451v3.277c-0.043,0.126,0,0.168,0.126,0.21h11.388V45.968z"/>
	<rect x="36.155" y="53.7" fill="#2173A6" width="19.541" height="2.353"/>
	<path fill="#2173A6" d="M36.155,48.447v2.018h19.541v-2.018c0-0.336-0.167-0.504-0.505-0.504H36.618
		C36.239,47.943,36.113,48.111,36.155,48.447z"/>
	<rect x="36.155" y="59.289" fill="#2173A6" width="19.541" height="2.311"/>
	<path fill="#2173A6" d="M137.883,49.541c-0.924,0.798-2.101,1.513-3.403,2.311l2.94,2.395c1.892,1.555,3.614,3.026,5.127,4.455
		c3.657-2.144,6.388-5.127,8.026-8.993c0.042-0.042,0.042-0.042,0.042-0.084c0-0.041-0.126-0.083-0.42-0.083H137.883z"/>
	<path fill="#2173A6" d="M201.497,9.584H15.253c-7.527,0-13.628,6.102-13.628,13.627v48.075c0,7.527,6.101,13.628,13.628,13.628
		h186.244c7.526,0,13.628-6.101,13.628-13.628V23.212C215.125,15.686,209.023,9.584,201.497,9.584z M62.251,42.69H39.013
		l-1.807,2.017h21.347c0.461,0,0.714,0.253,0.714,0.714v20.969h-3.572v-1.513H36.155v1.513h-3.572V49.162
		c-1.344,1.303-3.571,2.983-6.723,5.001l-2.354-2.731c4.497-2.689,8.237-5.632,11.136-8.741H23.927v-3.235h13.446l1.345-1.849
		H26.406V34.37h14.203l0.924-1.722c-4.496,0.209-9.665,0.336-14.161,0.251l-0.378-3.445c10.169,0.168,25.212-0.63,32.23-1.891
		l0.462,3.361c-3.698,0.798-10.043,1.219-13.993,1.513l-1.051,1.933h15.465v3.236H42.752l-1.26,1.849h20.759V42.69z M107.462,66.18
		h-4.201l-4.665-0.168c-5.882-0.336-10.883-1.177-15.002-2.563c-3.235,1.387-7.27,2.438-11.977,3.109l-1.26-3.949
		c3.11-0.169,6.094-0.631,8.993-1.388c-1.638-1.219-3.151-2.773-4.538-4.705l2.605-2.06c1.513,2.018,3.487,3.697,5.883,4.958
		c2.479-1.555,3.993-3.823,4.413-6.724h-14.33c-0.336,0-0.503-0.125-0.503-0.461V36.176c0-0.336,0.167-0.503,0.503-0.503h14.582
		v-3.152H71.156v-3.572h36.475v3.572H91.537v3.152h13.951c0.336,0,0.504,0.167,0.504,0.503v16.053c0,0.336-0.168,0.461-0.504,0.461
		H91.285c-0.588,3.32-1.976,6.094-4.077,8.279c3.614,0.883,8.488,1.344,14.582,1.303h6.723L107.462,66.18z M150.531,56.263
		c-2.354,2.689-4.328,4.244-7.858,6.304c-4.707,2.396-12.06,3.739-21.936,3.908l-1.05-3.95c1.05,0.042,2.058,0.042,3.067,0.042
		c6.892,0,12.354-0.757,16.388-2.27c-1.891-1.765-4.664-4.076-8.194-6.766c-2.312,0.841-5.126,1.555-8.446,2.102l-1.345-3.488
		c7.774-0.925,13.322-3.572,16.515-7.941c-5.126,2.185-11.808,3.697-20.002,4.538l-1.051-3.866
		c7.06-0.211,12.901-1.135,17.313-2.773c-2.773-2.143-5.673-4.202-8.699-6.093l-4.917,1.428l-1.554-3.488
		c6.051-1.051,10.337-3.193,12.858-6.303l3.866,1.386l-0.378,0.42h14.287l2.564,2.018c-1.051,1.933-2.9,4.327-5.547,6.976
		c-1.681,1.554-4.539,3.445-8.53,5.63l3.445,1.008l-0.503,0.883h11.808l2.311,1.386C154.104,50.926,152.59,53.952,150.531,56.263z
		 M193.244,49.691L169.023,64.05v-6.549l16.41-9.23v-0.316l-16.41-9.547v-6.706l24.221,14.438V49.691z"/>
	<path fill="#2173A6" d="M146.161,33.656c0.043-0.126,0.043-0.252,0.043-0.336c0-0.21-0.085-0.336-0.252-0.336h-14.624l-2.227,1.386
		l2.857,1.934c2.101,1.428,3.992,2.857,5.631,4.202C141.539,38.405,144.438,36.093,146.161,33.656z"/>
</g>
</svg>
