<?xml version="1.0" encoding="utf-8"?>
<!-- Generator: Adobe Illustrator 16.0.0, SVG Export Plug-In . SVG Version: 6.00 Build 0)  -->
<!DOCTYPE svg PUBLIC "-//W3C//DTD SVG 1.1//EN" "http://www.w3.org/Graphics/SVG/1.1/DTD/svg11.dtd">
<svg version="1.1" id="圖層_1" xmlns="http://www.w3.org/2000/svg" xmlns:xlink="http://www.w3.org/1999/xlink" x="0px" y="0px"
	 width="1190.55px" height="841.89px" viewBox="0 0 1190.55 841.89" enable-background="new 0 0 1190.55 841.89"
	 xml:space="preserve">
<g>
	<path fill="#FFFFFF" d="M182.534,107.6c0-18.151,0-36.06,0-54.252c4.829,0,9.342,0,13.921,0c0-3.18,0-6.068,0-8.973
		c-12.696,0-25.186,0-37.642,0c0,3.114,0,6.002,0,9.157c4.629,0,9.054,0,13.42,0c0,18.002,0,35.729,0,53.085
		c-8.37,0-16.523,0-24.676,0c12.102-8.729,11.586-25.427,5.438-33.434c-7.199-9.378-21.848-11.239-31.399-3.903
		c-4.884,3.752-7.286,8.925-7.884,14.923c-0.892,8.927,2.051,16.34,9.443,21.751c-7.461,0-14.622,0-22.078,0
		c0-1.408,0-2.434,0-3.459c0-8.272,0-16.544,0-24.816c0-5.968,0-6.054,5.9-6.104c2.132-0.019,2.777-0.745,2.749-2.832
		c-0.105-7.416,0.023-14.834-0.074-22.249c-0.094-7.154-5.714-14.542-12.545-16.742C86.544,26.35,75.366,31.32,73.121,42.148
		c-1.935,9.328-1.277,19.193-1.794,29.391c2.833,0,4.891,0.036,6.946-0.012c1.482-0.035,2.306,0.411,2.299,2.09
		c-0.037,10.174,0.009,20.348-0.083,30.521c-0.006,0.638-0.902,1.778-1.444,1.816c-2.705,0.188-5.43,0.086-7.986,0.086
		c-0.463-1.527-0.78-3.009-1.351-4.386C61.438,81.7,53.157,61.749,44.798,41.83c-0.717-1.707-1.766-3.413-3.072-4.704
		c-2.576-2.547-6.264-2.049-8.343,0.898c-0.651,0.924-1.219,1.934-1.666,2.973C23.04,61.192,14.373,81.393,5.74,101.608
		c-1.682,3.937-0.149,8.184,3.336,9.65c3.685,1.551,7.417-0.186,9.169-4.337c1.473-3.49,2.917-6.993,4.28-10.527
		c0.786-2.037,2.204-3.034,4.322-3.04c7.226-0.02,14.457-0.138,21.675,0.107c1.384,0.047,3.307,1.253,3.961,2.472
		c1.823,3.396,3.111,7.081,4.642,10.729c-1.931,0.58-3.627,0.91-5.146,1.62c-0.792,0.369-1.271,1.408-1.891,2.145
		c0.765,0.564,1.465,1.464,2.307,1.624c1.943,0.37,3.955,0.511,5.939,0.518c12.449,0.044,24.898,0.025,37.348,0.025
		c16.801,0.001,33.603,0.029,50.405-0.023c4.354-0.013,8.708-0.441,13.061-0.398c7.659,0.075,15.271-0.208,22.768-1.904
		c0.424-0.096,0.711-0.785,1.085-1.227c-2.257-0.352-4.168-0.65-6.08-0.949c0.01-0.164,0.021-0.328,0.03-0.493
		C178.708,107.6,180.462,107.6,182.534,107.6z M43.958,80.705c-4.272,0.163-8.555,0.15-12.828,0.002
		c-0.501-0.018-1.513-1.407-1.36-1.793c2.398-6.028,4.95-11.996,7.466-17.978c0.292,0.034,0.583,0.067,0.875,0.102
		c2.469,5.896,4.979,11.776,7.316,17.725C45.593,79.184,44.502,80.684,43.958,80.705z M145.604,92.744
		c-2.04,5.202-6.479,7.972-11.543,7.279c-5.083-0.695-9.067-4.815-9.715-10.087c-0.127-1.033-0.13-2.082-0.154-2.495
		c0.074-8.4,4.869-13.694,11.703-13.516c4.09,0.107,6.993,2.224,8.901,5.668C147.132,83.807,147.367,88.25,145.604,92.744z"/>
	<path fill="#FFFFFF" d="M90.667,26.688c6.796,0.055,11.982-4.837,12.065-11.38c0.084-6.624-5.134-12.001-11.757-12.117
		c-6.552-0.115-11.999,5.2-12.082,11.788C78.813,21.402,84.075,26.635,90.667,26.688z"/>
</g>
<g enable-background="new    ">
	<path fill="#FFFFFF" d="M16.228,136.24c-0.892,0.727-1.819,1.274-2.782,1.643c-0.964,0.368-1.963,0.552-3,0.552
		c-1.638,0-2.945-0.387-3.92-1.161s-1.463-1.817-1.463-3.129c0-0.869,0.229-1.638,0.687-2.308c0.458-0.67,1.084-1.194,1.879-1.572
		s2-0.656,3.613-0.835c2.168-0.25,3.758-0.547,4.77-0.892l0.018-0.651c0-1.029-0.235-1.751-0.705-2.167
		c-0.663-0.604-1.68-0.906-3.053-0.906c-1.241,0-2.168,0.202-2.783,0.605c-0.614,0.403-1.066,1.16-1.355,2.27l-2.62-0.34
		c0.373-1.614,1.129-2.79,2.268-3.526s2.767-1.104,4.887-1.104c1.65,0,2.945,0.243,3.884,0.729c0.939,0.486,1.532,1.088,1.779,1.805
		s0.371,1.765,0.371,3.144v3.398c0,2.379,0.057,3.877,0.171,4.496c0.115,0.619,0.34,1.22,0.678,1.806H16.77
		C16.493,137.576,16.312,136.958,16.228,136.24z M16.011,130.548c-0.976,0.377-2.427,0.699-4.354,0.963
		c-1.12,0.151-1.903,0.323-2.349,0.517c-0.446,0.193-0.792,0.467-1.039,0.821c-0.247,0.354-0.371,0.762-0.371,1.225
		c0,0.717,0.283,1.291,0.849,1.721c0.566,0.429,1.349,0.644,2.349,0.644c0.952,0,1.816-0.193,2.593-0.581s1.358-0.904,1.744-1.551
		c0.385-0.646,0.578-1.588,0.578-2.825V130.548z"/>
	<path fill="#FFFFFF" d="M23.857,120.268v-2.931h2.656v2.931H23.857z M23.857,138.095v-15.038h2.656v15.038H23.857z"/>
	<path fill="#FFFFFF" d="M30.583,130.576c0-2.596,0.696-4.555,2.087-5.876s3.152-1.982,5.285-1.982c2.096,0,3.848,0.661,5.257,1.982
		s2.114,3.229,2.114,5.721c0,2.7-0.693,4.71-2.078,6.032c-1.385,1.322-3.15,1.982-5.293,1.982c-2.108,0-3.864-0.663-5.267-1.989
		C31.285,135.119,30.583,133.163,30.583,130.576z M33.312,130.569c0,1.947,0.452,3.396,1.355,4.346
		c0.903,0.95,2.023,1.425,3.361,1.425c1.252,0,2.327-0.479,3.225-1.439s1.346-2.403,1.346-4.332c0-1.938-0.452-3.381-1.355-4.331
		c-0.903-0.95-2.023-1.425-3.36-1.425c-1.265,0-2.343,0.478-3.234,1.432C33.757,127.2,33.312,128.641,33.312,130.569z"/>
	<path fill="#FFFFFF" d="M55.395,135.815l0.362,2.251c-0.735,0.151-1.397,0.227-1.988,0.227c-0.927,0-1.674-0.144-2.24-0.432
		c-0.566-0.288-0.955-0.682-1.165-1.183c-0.211-0.5-0.316-1.496-0.316-2.988v-8.652h-1.951v-1.982h1.951v-3.724l2.656-1.529v5.253
		h2.692v1.982h-2.692v8.793c0,0.812,0.078,1.336,0.235,1.572c0.229,0.34,0.657,0.51,1.283,0.51
		C54.521,135.915,54.913,135.881,55.395,135.815z"/>
	<path fill="#FFFFFF" d="M58.905,138.095v-15.038h2.403v2.124c0.577-0.826,1.284-1.443,2.119-1.851
		c0.836-0.409,1.794-0.613,2.877-0.613c0.841,0,1.62,0.13,2.335,0.39c0.715,0.259,1.292,0.599,1.731,1.02
		c0.438,0.42,0.767,0.965,0.983,1.635s0.325,1.699,0.325,3.087v9.247h-2.656v-9.157c0-1.106-0.121-1.914-0.361-2.424
		c-0.241-0.51-0.618-0.905-1.129-1.184c-0.512-0.279-1.105-0.418-1.779-0.418c-1.277,0-2.295,0.374-3.054,1.12
		s-1.138,2.027-1.138,3.841v8.222H58.905z"/>
	<path fill="#FFFFFF" d="M87.529,133.252l2.746,0.326c-0.458,1.605-1.286,2.815-2.484,3.632c-1.199,0.816-2.683,1.225-4.453,1.225
		c-2.229,0-4.032-0.663-5.411-1.989c-1.379-1.327-2.069-3.241-2.069-5.742c0-2.596,0.696-4.576,2.087-5.94
		c1.391-1.364,3.152-2.046,5.285-2.046c2.035,0,3.733,0.67,5.095,2.011c1.361,1.34,2.042,3.28,2.042,5.82l-0.018,0.68H78.604
		c0.108,1.69,0.608,2.964,1.5,3.823c0.892,0.859,1.976,1.289,3.252,1.289C85.354,136.339,86.746,135.311,87.529,133.252z
		 M78.766,129.132h8.781c-0.121-1.303-0.476-2.275-1.066-2.917c-0.855-0.935-1.945-1.402-3.27-1.402c-1.193,0-2.21,0.39-3.054,1.168
		C79.314,126.76,78.851,127.81,78.766,129.132z"/>
	<path fill="#FFFFFF" d="M100.578,135.815l0.362,2.251c-0.735,0.151-1.397,0.227-1.988,0.227c-0.927,0-1.674-0.144-2.24-0.432
		c-0.566-0.288-0.955-0.682-1.165-1.183c-0.211-0.5-0.316-1.496-0.316-2.988v-8.652h-1.951v-1.982h1.951v-3.724l2.656-1.529v5.253
		h2.692v1.982h-2.692v8.793c0,0.812,0.078,1.336,0.235,1.572c0.229,0.34,0.657,0.51,1.283,0.51
		C99.705,135.915,100.097,135.881,100.578,135.815z"/>
	<path fill="#FFFFFF" d="M103.059,133.592l2.656-0.396c0.156,1.062,0.583,1.852,1.28,2.368c0.697,0.517,1.623,0.775,2.776,0.775
		s2.046-0.224,2.677-0.673c0.63-0.448,0.946-1.017,0.946-1.706c0-0.595-0.271-1.057-0.813-1.388c-0.374-0.227-1.277-0.51-2.71-0.85
		c-2.072-0.5-3.457-0.925-4.155-1.274s-1.241-0.816-1.626-1.402c-0.386-0.585-0.578-1.251-0.578-1.997
		c0-1.284,0.524-2.327,1.572-3.129s2.499-1.204,4.354-1.204c1.168,0,2.195,0.165,3.081,0.496s1.563,0.774,2.033,1.331
		s0.795,1.354,0.976,2.393l-2.602,0.34c-0.241-1.643-1.379-2.464-3.415-2.464c-1.156,0-2.018,0.181-2.583,0.543
		s-0.849,0.825-0.849,1.389c0,0.555,0.271,0.992,0.814,1.312c0.326,0.188,1.291,0.489,2.896,0.902
		c2.207,0.549,3.635,0.987,4.283,1.313s1.152,0.771,1.512,1.333c0.36,0.563,0.54,1.232,0.54,2.007c0,1.438-0.582,2.601-1.744,3.489
		c-1.163,0.889-2.749,1.333-4.761,1.333C105.847,138.435,103.661,136.821,103.059,133.592z"/>
	<path fill="#FFFFFF" d="M121.095,138.095v-2.903h3.035v2.903H121.095z"/>
	<path fill="#FFFFFF" d="M139.999,132.587l2.62,0.326c-0.301,1.793-1.057,3.163-2.268,4.106s-2.665,1.416-4.363,1.416
		c-2.06,0-3.755-0.663-5.086-1.989c-1.331-1.327-1.997-3.288-1.997-5.884c0-2.615,0.671-4.576,2.015-5.884
		c1.343-1.307,3.068-1.961,5.176-1.961c1.626,0,2.996,0.396,4.11,1.189s1.828,1.982,2.141,3.568l-2.583,0.368
		c-0.253-1.015-0.693-1.773-1.319-2.276c-0.626-0.502-1.379-0.754-2.258-0.754c-1.313,0-2.4,0.456-3.261,1.366
		c-0.861,0.911-1.292,2.358-1.292,4.34c0,2.048,0.413,3.531,1.238,4.446c0.825,0.916,1.882,1.374,3.171,1.374
		c1.012,0,1.875-0.305,2.592-0.913C139.351,134.817,139.806,133.871,139.999,132.587z"/>
	<path fill="#FFFFFF" d="M144.864,130.576c0-2.596,0.696-4.555,2.087-5.876s3.152-1.982,5.285-1.982
		c2.096,0,3.848,0.661,5.257,1.982s2.114,3.229,2.114,5.721c0,2.7-0.693,4.71-2.078,6.032c-1.385,1.322-3.15,1.982-5.293,1.982
		c-2.108,0-3.864-0.663-5.267-1.989C145.565,135.119,144.864,133.163,144.864,130.576z M147.592,130.569
		c0,1.947,0.452,3.396,1.355,4.346c0.903,0.95,2.023,1.425,3.361,1.425c1.252,0,2.327-0.479,3.225-1.439s1.346-2.403,1.346-4.332
		c0-1.938-0.452-3.381-1.355-4.331c-0.903-0.95-2.023-1.425-3.36-1.425c-1.265,0-2.343,0.478-3.234,1.432
		C148.038,127.2,147.592,128.641,147.592,130.569z"/>
	<path fill="#FFFFFF" d="M163.767,138.095v-15.038h2.385v2.096c0.529-0.779,1.208-1.379,2.038-1.802
		c0.83-0.422,1.738-0.634,2.724-0.634c1.106,0,2.041,0.223,2.805,0.669c0.764,0.446,1.308,1.097,1.633,1.951
		c0.628-0.874,1.35-1.528,2.166-1.965c0.816-0.437,1.719-0.655,2.71-0.655c1.511,0,2.701,0.401,3.571,1.204s1.305,2.086,1.305,3.852
		v10.323h-2.656v-9.483c0-1.077-0.1-1.84-0.3-2.289c-0.2-0.449-0.523-0.796-0.972-1.042s-0.951-0.369-1.508-0.369
		c-1.15,0-2.089,0.357-2.815,1.07s-1.09,1.835-1.09,3.367v8.746h-2.656v-9.781c0-1.248-0.244-2.126-0.732-2.637
		s-1.159-0.766-2.014-0.766c-1.217,0-2.177,0.385-2.882,1.155c-0.705,0.771-1.057,2.176-1.057,4.217v7.811H163.767z"/>
</g>
</svg>
