<svg id="レイヤー_1" data-name="レイヤー 1" xmlns="http://www.w3.org/2000/svg" viewBox="0 0 460 58"><defs><style>.cls-1{fill:#ff0;}.cls-2{fill:#00a0e9;}.cls-3{fill:#fff;}</style></defs><title>feature_hd3</title><rect class="cls-1" x="70" y="41.04" width="340" height="15.96"/><ellipse class="cls-2" cx="28" cy="27.92" rx="28" ry="27.92"/><path class="cls-3" d="M20.51,18.85V37H18L14.82,26c-.31-1.14-.7-2.83-1-4.13.08,1.3.16,3.09.16,4.18V37h-1.9V18.85h3l2.75,9.49c.31,1.14.7,2.82,1,4.09-.08-1.27-.18-3.06-.18-4.14V18.85Z"/><path class="cls-3" d="M26.49,37.28c-2.36,0-3.72-1.22-3.72-4v-6c0-2.77,1.36-4,3.72-4s3.69,1.22,3.69,4v6C30.18,36.06,28.83,37.28,26.49,37.28Zm0-12.29c-1.25,0-1.74.7-1.74,2.05v6.48c0,1.35.49,2,1.74,2s1.72-.7,1.72-2V27C28.21,25.69,27.71,25,26.49,25Z"/><path class="cls-3" d="M32.5,33.65h2V37h-2Z"/><path class="cls-3" d="M38.5,30.51v2.94c0,1.32.5,2.12,1.75,2.12S42,34.77,42,33.45V30.51c0-1.39-.44-2.15-1.74-2.15H38.92V26.68h1.33c1.3,0,1.74-.78,1.74-2.15V22.4c0-1.32-.52-2.13-1.74-2.13s-1.75.81-1.75,2.13v2.13H36.66V22.61c0-2.78,1.32-4.05,3.64-4.05s3.64,1.25,3.64,4.05v1.45c0,2.1-.65,3.08-1.85,3.47,1.2.39,1.85,1.35,1.85,3.45v2.23c0,2.78-1.3,4.07-3.64,4.07S36.66,36,36.66,33.21v-2.7Z"/><path class="cls-2" d="M79.3,9.63c2.37-.38,4.61-.75,5.21-.86A7.13,7.13,0,0,1,85,10.68c-.64.08-2.88.45-5.33.87.22,1.3.42,2.37.51,2.87s.26,1.13.39,1.67a11.58,11.58,0,0,1-2.31.4c-.08-.64-.13-1.18-.21-1.69s-.25-1.56-.49-2.89c-2.42.42-4.68.8-5.43.94a9.1,9.1,0,0,1-.54-2l1.58-.21c.55-.08,2.18-.33,4-.64l-.45-2.64c-2,.31-3.81.62-4.43.73a11,11,0,0,1-.53-2l1.54-.15,3.07-.48c-.11-.62-.19-1.1-.24-1.34-.08-.51-.21-1-.29-1.29a11.88,11.88,0,0,1,2.29-.3c0,.3.1.81.16,1.26,0,.21.11.68.23,1.32,2-.32,3.9-.65,4.41-.76a9.61,9.61,0,0,1,.47,2c-.5.06-2.44.38-4.56.71Z"/><path class="cls-2" d="M91,8.85c-.16-.62-.29-1.1-.36-1.31-.11-.42-.27-1-.38-1.26.45-.1,1.5-.27,2-.31.05.28.17.83.26,1.15s.21.87.35,1.38c1.83-.35,3.84-.75,4.41-.88.27-.07.49-.13.72-.21a5.19,5.19,0,0,1,1.24.91,17.13,17.13,0,0,1-2.89,4.44,6.64,6.64,0,0,1-1.81-.7,7.36,7.36,0,0,0,2.24-2.7l-3.51.73c.58,2.17,1.2,4.52,1.38,5.16.05.21.22.76.27.94a7.64,7.64,0,0,1-2,.43c0-.32-.15-.78-.22-1.13l-1.3-5-2.64.56a9.84,9.84,0,0,1-.69-1.74c.54-.05,1.06-.11,1.5-.19Z"/><path class="cls-2" d="M106.3,3.36c-.07,1.16-.13,6-.15,7.63a14,14,0,0,1-2.24,0c.06-1.18.13-5.51.13-6.42A12,12,0,0,0,104,3.28C104.45,3.28,105.67,3.31,106.3,3.36Zm6.56,4.11c0,3.85-.72,5.38-1.94,6.74a9.3,9.3,0,0,1-3.74,2.41,9.77,9.77,0,0,1-1.72-1.83,7.35,7.35,0,0,0,3.81-2c1.17-1.32,1.41-2.9,1.41-5.59,0-.81,0-1.51,0-2.37,0-.68-.06-1.19-.11-1.66a13.19,13.19,0,0,1,2.34.11c0,.44,0,1.05,0,1.48Z"/><path class="cls-2" d="M117.25,5.91A14.16,14.16,0,0,1,117,3.76c.67,0,1.6.06,2.19.06l8.68-.06c.48,0,.76,0,1.21-.08A5.72,5.72,0,0,1,130.46,5a15.82,15.82,0,0,1-4.21,5.11,7,7,0,0,1-1.76-1.34,8.24,8.24,0,0,0,3.1-3c-.86,0-8,.14-9,.17ZM124.14,7c.08,4.59-.23,7.29-4.57,9.37a7.49,7.49,0,0,1-1.8-1.76,7.91,7.91,0,0,0,1.55-.59c2.33-1.28,2.64-3.22,2.59-5.36A12.31,12.31,0,0,0,121.77,7,12.67,12.67,0,0,1,124.14,7Z"/><path class="cls-2" d="M141.58,9.74h-1.44v7.1h-1.88V9.74H136a12.21,12.21,0,0,1-2.22,7.17,6.7,6.7,0,0,0-1.35-1.41,10.57,10.57,0,0,0,1.78-5.76h-1.56V8h1.61V4.49H132.9V2.72h8.48V4.49h-1.24V8h1.44ZM136,8h2.22V4.49H136Zm12.05,3.85a.47.47,0,0,1-.43.19,15.47,15.47,0,0,1-5.46,4.87,7.85,7.85,0,0,0-1.39-1.58,12,12,0,0,0,5.1-4.27Zm-.78-9a.39.39,0,0,1-.4.21,17,17,0,0,1-4.18,3.78,7.71,7.71,0,0,0-1.38-1.35,12,12,0,0,0,3.81-3.39Zm.38,4.51a.43.43,0,0,1-.4.2,18.43,18.43,0,0,1-4.58,4,7.07,7.07,0,0,0-1.36-1.38,13.24,13.24,0,0,0,4.24-3.56Z"/><path class="cls-2" d="M160.33,6.2a34.9,34.9,0,0,0,.7,4.55,16,16,0,0,0,1.57-3.66l2.21.62c0,.15-.19.24-.45.23a19,19,0,0,1-2.61,5.14c.47,1.16,1,1.88,1.57,1.88.4,0,.63-.84.72-2.87a4.63,4.63,0,0,0,1.55,1.08c-.32,3-.94,3.69-2.43,3.69-1.12,0-2-.83-2.75-2.17a13.17,13.17,0,0,1-2.74,2.2,12.37,12.37,0,0,0-1.26-1.5,11.35,11.35,0,0,0,3.21-2.63,30.49,30.49,0,0,1-1.2-6.56h-4.83V7.81h3.11l1,0v.58c-.07,3.6-.16,5-.53,5.54s-.95.73-3,.68a4.45,4.45,0,0,0-.53-1.77c.59.05,1.14.06,1.39.06a.56.56,0,0,0,.48-.19c.18-.22.24-1.05.29-3.17h-2.24c-.06,2.33-.43,5.38-1.9,7.31a7.28,7.28,0,0,0-1.51-1.26c1.39-1.87,1.51-4.62,1.51-6.69V4.36h6.61c-.05-.84-.08-1.71-.08-2.55l2.41.13c0,.17-.16.27-.46.32,0,.7,0,1.4,0,2.1h2.69a15.25,15.25,0,0,0-2-1.43l1.21-1.12a14.58,14.58,0,0,1,2.48,1.74l-.84.81h1.4V6.2Z"/><path class="cls-2" d="M179.37,13.88a5.56,5.56,0,0,1-.22,2.21,14.71,14.71,0,0,1-3.65.44c-2.26,0-4.55-.72-4.55-3,0-2,1.71-3,3.63-3.94a1.14,1.14,0,0,0-1.18-.77c-1.19,0-2.19.93-3.49,2.57a5.75,5.75,0,0,1-1.46-1.53,16.26,16.26,0,0,0,3.44-4.07c-.76,0-1.52.08-2.17.08A7,7,0,0,1,169.37,4a9.24,9.24,0,0,0,1.45.12c.51,0,1.19,0,1.92-.07A11.9,11.9,0,0,0,173.29,2a7.66,7.66,0,0,1,2,.53c-.1.3-.27.81-.48,1.32a13,13,0,0,0,2.72-.56A5.7,5.7,0,0,1,177.77,5a30.79,30.79,0,0,1-3.78.63c-.37.63-.85,1.38-1.28,2a4.31,4.31,0,0,1,1.52-.33,2.09,2.09,0,0,1,2.07,1.47c1.16-.59,2.21-1.1,3-1.57a10,10,0,0,0,1.18-.81,4.84,4.84,0,0,1,.74,1.9c-.48.37-3.06,1.55-4.77,2.35,0,.79,0,1.85,0,2.55a6.74,6.74,0,0,1-1.9,0,14.43,14.43,0,0,0,.06-1.67c-1.13.6-1.66,1.15-1.66,1.87,0,.87.89,1.26,2.57,1.26A11.24,11.24,0,0,0,179.37,13.88Z"/><path class="cls-2" d="M191.1,12c0,.14-.16.26-.42.29-.4,2.2-1.09,3.8-5.3,4.64a6.23,6.23,0,0,0-1-1.71c3.65-.55,4.11-1.61,4.35-3.44Zm3.49,2.35c0,.52.09.6.7.6H197c.56,0,.66-.28.74-2.17a5.58,5.58,0,0,0,1.76.77c-.21,2.55-.72,3.21-2.32,3.21H195c-1.92,0-2.39-.58-2.39-2.4v-3h-6V2.29h10.56v9.06h-2.62ZM188.5,3.87v1h6.76v-1Zm0,2.44v1h6.76v-1Zm0,2.47v1h6.76v-1Z"/><path class="cls-2" d="M207.27,8.62l.23,1.63-1.72.56v3.94c0,1.74-.64,2.11-3.09,2.11a6.63,6.63,0,0,0-.52-1.83h.91c.85,0,.88,0,.88-.3V11.37c-.51.14-1,.29-1.36.4a.36.36,0,0,1-.28.3L201.83,10c.59-.11,1.33-.29,2.13-.5V6.66H202V4.89H204V1.79l2.24.11c0,.16-.13.26-.42.31V4.89h1.57V6.66h-1.57V9Zm9.78,1.5h-3.31v1.54h2.75v5.15h-1.73v-.44H211v.46h-1.65V11.66h2.56V10.12h-2.47a14.45,14.45,0,0,1-1.9,6.71A6.82,6.82,0,0,0,206,15.76c1.63-2.39,1.74-5.89,1.74-8.43V2.43h8.85V7h-7c0,.8,0,1.06,0,1.47h2.37V7.06l2.22.13c0,.14-.12.24-.41.27v1h3.31Zm-2.22-6.06h-5.25V5.42h5.25Zm-.07,10.79V13.24H211v1.61Z"/><path class="cls-2" d="M226.36,10.91a2.38,2.38,0,0,1,.75-.15,1.48,1.48,0,0,1,1.41,1.3c.11.43.27,1.24.42,1.66s.51.63,1.21.63a15.17,15.17,0,0,0,3-.38,12.73,12.73,0,0,1-.13,2.16,27.71,27.71,0,0,1-3.07.2c-1.57,0-2.39-.28-2.69-1.37-.12-.43-.34-1.47-.45-1.82a.83.83,0,0,0-.87-.65c-1.07,0-2.16,1.24-4.24,3.86A5,5,0,0,1,220,14.9c1.34-1.5,3-3.08,4-4.1s2.16-2.1,2.75-2.72c-.91.15-3.3.38-5.15.51a6.39,6.39,0,0,1-.36-2,70.71,70.71,0,0,0,8.26-.66,4.9,4.9,0,0,1,.71,1.53c-.48.37-.88.71-1.41,1.15S226.92,10.33,226.36,10.91Zm3.31-8a9.33,9.33,0,0,1-.19,1.87c-1.5,0-4.88-.3-6.45-.54a8.61,8.61,0,0,1,.06-1.9A39.39,39.39,0,0,0,229.67,2.89Z"/><path class="cls-2" d="M238.05,5.16a16.68,16.68,0,0,0,1.8-.1l.11-.59a17.22,17.22,0,0,0,.29-2.33,12.77,12.77,0,0,1,2.25.51L242,4.73a12.59,12.59,0,0,0,2.11-.56,9.28,9.28,0,0,1,0,2.11,20.88,20.88,0,0,1-2.54.52c-.15.61-.31,1.22-.45,1.78-.66,2.41-1.65,5.66-2.36,7.56a7,7,0,0,1-2.27-.72A59.65,59.65,0,0,0,239.14,8c.08-.32.16-.62.24-.92-.78.06-1.6.11-2.4.12a10.32,10.32,0,0,1-.32-2.12,10.47,10.47,0,0,0,1.38.08Zm8.89,9a10.75,10.75,0,0,0,3-.44,7,7,0,0,1-.33,2.1,12.5,12.5,0,0,1-2.95.31c-2.8,0-4.24-1.15-4.24-2.81a5.87,5.87,0,0,1,.62-2.29,6.19,6.19,0,0,1,1.83.64,2.48,2.48,0,0,0-.42,1.23C244.47,13.64,245.13,14.16,246.94,14.16Zm.53-8.28a21.44,21.44,0,0,1,2.65.16,10.3,10.3,0,0,1-.21,2,15.06,15.06,0,0,0-2.49-.22,18.84,18.84,0,0,0-2.61.16,13,13,0,0,1,0-1.95,22,22,0,0,1,2.61-.11Z"/><path class="cls-2" d="M258.69,11a4.67,4.67,0,0,0-.22-.78l-.83,0v6.56H256V11.67c0,.1-.16.15-.33.15a14.86,14.86,0,0,1-.87,3.8,8.78,8.78,0,0,0-1.34-.66,14.37,14.37,0,0,0,.74-3.75l1.8.41V10.4c-.7,0-1.32.08-1.84.09a.29.29,0,0,1-.28.24l-.37-1.91h1.1c.26-.32.51-.67.79-1a14.25,14.25,0,0,0-1.85-2.25l.95-1.29.34.32A21,21,0,0,0,256,1.79l1.87.72c-.05.11-.19.18-.42.18a23.55,23.55,0,0,1-1.63,3,6.86,6.86,0,0,1,.51.65,24.91,24.91,0,0,0,1.47-2.62l1.83.8a.54.54,0,0,1-.45.18,39.32,39.32,0,0,1-2.91,4.11h1.63c-.19-.43-.42-.85-.62-1.23L258.61,7a13.34,13.34,0,0,1,1.53,3.38Zm-.11,3.73a18.13,18.13,0,0,0-.93-3.14l1.4-.45a19.3,19.3,0,0,1,.91,2.72,7.65,7.65,0,0,0,.29-1.71l1.52.24a6.53,6.53,0,0,1-1.28,4l-1.39-.83a4.32,4.32,0,0,0,.72-1.22Zm5.17-12.37a.36.36,0,0,1-.4.19,11.67,11.67,0,0,1-2.77,4.17,13.26,13.26,0,0,0-1.32-1.15,9.07,9.07,0,0,0,2.43-3.81Zm2.15,3.8a16.34,16.34,0,0,1,2.48,3.45l-1.54.91c-.13-.29-.3-.64-.51-1l-2.67.21a7.82,7.82,0,0,1,2.3,1.73l-1.25,1.14a8.37,8.37,0,0,0-2.59-2l.95-.82c-.84.07-1.61.12-2.25.15a.31.31,0,0,1-.27.24l-.61-1.92,1.49,0a23.21,23.21,0,0,0,1.25-3.56l2.11.61c0,.12-.19.19-.43.2a25.58,25.58,0,0,1-1.2,2.7l2.23-.06c-.29-.4-.6-.78-.9-1.14Zm-1.12,9c.27,0,.33-.21.38-1.53a4,4,0,0,0,1.36.57,14.6,14.6,0,0,0-1-1.63l1.45-.72a10.84,10.84,0,0,1,1.91,3.68l-1.59.79a7.38,7.38,0,0,0-.7-1.93c-.16,1.77-.59,2.24-1.65,2.24h-1.25c-1.42,0-1.74-.47-1.74-1.92V11.86l2.13.13c0,.15-.13.24-.4.29v2.43c0,.41,0,.46.31.46Zm1.34-13.38A9.46,9.46,0,0,0,269,5.24a7.77,7.77,0,0,0-1.3,1.39,12.42,12.42,0,0,1-3.1-4.26Z"/><path class="cls-2" d="M274.76,7.51a25.17,25.17,0,0,1-2.51,1.58,8.59,8.59,0,0,0-1.19-1.54,17.09,17.09,0,0,0,6.61-5.77l2.58.14a.45.45,0,0,1-.43.32,17.32,17.32,0,0,0,6.72,5.08A9,9,0,0,0,285.29,9a21,21,0,0,1-2.46-1.52V8.66h-8.07Zm-1.06,9.35V10.25H284v6.61h-2v-.59h-6.39v.59ZM282.06,7a17.42,17.42,0,0,1-3.35-3.27A15.73,15.73,0,0,1,275.48,7ZM282,12h-6.39v2.62H282Z"/><path class="cls-2" d="M302.44,7.3a12.23,12.23,0,0,1,.07,2h-1.4l-3.87,0a7.35,7.35,0,0,1-1.1,4.37,7.85,7.85,0,0,1-3.77,2.78,6.74,6.74,0,0,1-1.77-1.61A7.11,7.11,0,0,0,294,12.93a4.85,4.85,0,0,0,1-3.59l-4.11,0c-.43,0-1.07,0-1.52,0a13.36,13.36,0,0,1-.16-2c.48,0,.93,0,1.47,0,.95,0,9.38-.07,10.2-.08C301.31,7.35,302.06,7.32,302.44,7.3ZM291.21,5.42a11.3,11.3,0,0,1-.15-2c.53,0,.8.05,1.36.06,1,0,5.36,0,6.18-.08.55,0,1-.06,1.35-.09a11.86,11.86,0,0,1,.09,2c-.67,0-6.32,0-7.39.06Zm9.73,1.24a11,11,0,0,0-.83-2,9.51,9.51,0,0,1,1-.36,11.32,11.32,0,0,1,.84,2A3,3,0,0,1,300.94,6.66Zm2.72-1a3.47,3.47,0,0,1-1,.36,9.78,9.78,0,0,0-.83-2,5.45,5.45,0,0,1,1-.37A7.87,7.87,0,0,1,303.66,5.69Z"/><path class="cls-2" d="M318.17,6.12l1.54,0A7.85,7.85,0,0,1,319.77,8l-1.44,0-1.62,0c0,4.21-1.15,6.73-5.21,8.44a6.23,6.23,0,0,1-1.78-1.8,7.25,7.25,0,0,0,1.94-.62c2.08-1.09,3-2.62,3-6l-3.69,0V11.7a12.59,12.59,0,0,1-2.13,0c0-.23.06-1,.08-1.5s0-1.32,0-2.13h-1.45c-.45,0-1.09,0-1.52,0a8.32,8.32,0,0,1-.16-2c.46,0,.91,0,1.47.07h1.65V4.63c0-.49-.05-1.07-.1-1.53.56,0,1.63,0,2.16.1,0,.35,0,1.58,0,3l3.68,0c0-.69,0-1.33,0-1.74s0-1-.1-1.54c.61,0,1.7,0,2.26.1,0,.77,0,2,0,3.14Zm0-.54a12.06,12.06,0,0,0-.8-2,5.7,5.7,0,0,1,.94-.36,9.74,9.74,0,0,1,.83,2A2.82,2.82,0,0,1,318.14,5.58ZM319.79,5A13.48,13.48,0,0,0,319,3a6.25,6.25,0,0,1,.95-.32,8.7,8.7,0,0,1,.81,1.93A3,3,0,0,1,319.79,5Z"/><path class="cls-2" d="M331.3,7.49c0,4.63,0,7,0,7,0,.55,0,1.37.06,1.85a12.82,12.82,0,0,1-2.48,0c.05-.41.08-1,.11-1.82,0-1.45.07-3.19,0-5.53a27.65,27.65,0,0,1-4.57,2.07,7.41,7.41,0,0,1-1.55-2,17.57,17.57,0,0,0,5.83-2.33A14.65,14.65,0,0,0,333,2.65a6.82,6.82,0,0,1,1.55,1.73A18.39,18.39,0,0,1,331.3,7.49Z"/><path class="cls-2" d="M344.2,5.91a8.28,8.28,0,0,1-1.25,2,25.26,25.26,0,0,0-4.27-2.56,18.57,18.57,0,0,1,1.15-1.93A23.53,23.53,0,0,1,344.2,5.91Zm-.26,6.35a13.74,13.74,0,0,0,5.85-6.46,6.26,6.26,0,0,1,1.64,1.82,16.82,16.82,0,0,1-6.32,6.54,20.32,20.32,0,0,1-4.72,2A6.11,6.11,0,0,1,339,14,14.46,14.46,0,0,0,343.94,12.26Z"/><path class="cls-2" d="M369.18,11v1.76H363V14.8c0,1.76-.83,2.06-4.16,2.06A7.56,7.56,0,0,0,358,15c.66,0,1.38.05,1.89.05,1,0,1.07,0,1.07-.32v-2h-6.19V11H361V9.85l.95.05A10.39,10.39,0,0,0,363.11,9h-5.46V7.32h7.27l.31-.1,1.45.86a.59.59,0,0,1-.35.23A16.92,16.92,0,0,1,363.08,11ZM356.89,6V8.26h-1.81V4.33h2.11a11.79,11.79,0,0,0-1.12-1.66L357.7,2a9.26,9.26,0,0,1,1.54,2.19l-.42.19h2.34a15.37,15.37,0,0,0-1-2l1.7-.62a10.56,10.56,0,0,1,1.31,2.42l-.53.21h2.08a15.72,15.72,0,0,0,1.46-2.44c2.14.76,2.19.78,2.24.81a.45.45,0,0,1-.46.16,14.79,14.79,0,0,1-1.06,1.47H369V8.26h-1.89V6Z"/><path class="cls-2" d="M376.41,8.62c.48.44,1.92,1.92,2.22,2.3l-1.09,1.52a17.51,17.51,0,0,0-1.13-1.85v6.25h-1.88V11a14.36,14.36,0,0,1-1.76,3.31,9.9,9.9,0,0,0-.89-1.82,15.39,15.39,0,0,0,2.3-4.31h-2V6.39h2.38V4.51c-.65.17-1.32.32-2,.44A5.28,5.28,0,0,0,372,3.56a20.63,20.63,0,0,0,5.17-1.77l1.54,1.39a.61.61,0,0,1-.4.08,13.91,13.91,0,0,1-1.89.72V6.39h1.95V8.18h-1.95Zm10.74,3.76-2.07.36v4.1h-1.95V13.09l-4.64.83-.31-1.82,4.95-.89V1.86l2.38.12c0,.16-.12.26-.43.31v8.59l1.75-.32Zm-5.85-1.74a13.56,13.56,0,0,0-2.62-2.54L380,7a14.7,14.7,0,0,1,2.7,2.39Zm-.92-7.87a13.38,13.38,0,0,1,2.48,2.44l-1.48,1.15A13.49,13.49,0,0,0,379,3.8Z"/><path class="cls-2" d="M395.06,10.44a33.39,33.39,0,0,0-2.33,5.69,7.49,7.49,0,0,1-1.67-.16,21.12,21.12,0,0,1-.46-4.74,54.3,54.3,0,0,1,.45-6.63c.06-.52.14-1.26.17-1.79a8,8,0,0,1,2.18.45,40.93,40.93,0,0,0-.82,5.89,16.26,16.26,0,0,0,0,2.22c0,.25.1.24.19.05.2-.43.55-1.31.85-2.06A4.44,4.44,0,0,1,395.06,10.44Zm9.53,2.69a4.9,4.9,0,0,1-.69,2,8.37,8.37,0,0,0-2-1.5c-.06,1.39-.75,2.5-3.06,2.5-2.13,0-3.52-1.07-3.52-2.6,0-1.31.9-2.44,3.2-2.44a11.06,11.06,0,0,1,1.33.08c-.05-1.21-.13-2.71-.16-3.94-1.28.06-2.53.06-3.47,0a6.57,6.57,0,0,1-.35-2,20.83,20.83,0,0,0,3.82.14c0-1.18,0-2.14,0-2.65a10.85,10.85,0,0,1,2.11.24c-.07.75-.11,1.5-.13,2.25A12.23,12.23,0,0,0,404,4.84a5.74,5.74,0,0,1,0,1.9,14.71,14.71,0,0,1-2.3.38c0,1.79.13,3.26.21,4.57A9.71,9.71,0,0,1,404.59,13.13ZM400,12.92a6.18,6.18,0,0,0-1.46-.18c-.94,0-1.35.31-1.35.78s.58.85,1.45.85C399.69,14.37,400,13.86,400,12.92Z"/><path class="cls-2" d="M99.46,44v3H93v3.5c0,3.14-1.35,3.5-7.11,3.5a11.76,11.76,0,0,0-1.11-3.17c1.62.09,3.51.09,4,.09s.67-.12.67-.54V47H79.61a20.66,20.66,0,0,1,4,3.65L80.69,52.8a22.67,22.67,0,0,0-4.32-4.25L78.53,47H72.05V44H89.42V42.39H75.29V32.13H84V30.75H72.65V27.82H84v-2l4.35.24c0,.3-.24.48-.81.57v1.19H99v2.93H87.5v1.38h9.15V42.39H93.73c0,.27-.23.48-.77.57v1ZM78.65,34.55v1.56H84V34.55Zm0,3.86v1.53H84V38.41Zm14.46-3.86H87.5v1.56h5.61Zm0,5.39V38.41H87.5v1.53Z"/><path class="cls-2" d="M117.35,27V38.65h-8V54H105.8V27ZM114,29.92h-4.59v1.55H114Zm-4.59,5.86H114V34.07h-4.59ZM131.3,27V49.66c0,3.86-1.53,4.34-8,4.34A13.14,13.14,0,0,0,122,50.32c1.29.09,2.7.09,3.69.09,1.76,0,2,0,2-.81V38.74h-8.22V27Zm-3.63,2.91h-4.8v1.55h4.8Zm-4.8,5.92h4.8V34.07h-4.8Z"/><path class="cls-2" d="M160.63,38.68c.06,1.44.19,2.81.27,4.1a23.47,23.47,0,0,0,1.26-3.62l3.39.9q-.13.36-.72.36a28.68,28.68,0,0,1-3.33,7.24c.39,2.06.84,3.32,1.41,3.32.39,0,.69-1.23.78-3.77a6.71,6.71,0,0,0,2.07,1.88c-.48,3.8-1.23,4.94-3.18,4.94-.74,0-2.16-.15-3.3-3.5A18.78,18.78,0,0,1,155.17,54a17.08,17.08,0,0,0-1.85-2.25,15.68,15.68,0,0,0,2.12-1.46H151v1.85h-2.73V39.82h8.12v9.6a16.55,16.55,0,0,0,2-2.36,76.68,76.68,0,0,1-.81-8.38H147.11V35.9h1.95a17,17,0,0,0-.72-3.86l1.89-.45h-2.52V30.13h-1.17V54h-3V48.67c-1.95.51-3.81,1-5.13,1.26a.69.69,0,0,1-.48.51l-1.08-3.59,1.77-.3V30.13H137V27h11v2h2.73V25.79l3.81.21c0,.27-.21.45-.72.54V29h3v2.63h-2.69l2.73.6c-.06.21-.27.33-.69.36-.31,1-.79,2.33-1.21,3.35h2.49c-.11-3.26-.15-6.7-.15-10.08l3.87.24c0,.27-.27.42-.78.51l0,1.58,2.1-1.08a18.75,18.75,0,0,1,2.94,4.82L163,33.27a22.59,22.59,0,0,0-2.55-4.61c0,2.42,0,4.88.09,7.24h4.8v2.78Zm-17.09-5.32V30.13h-2v3.23Zm0,6.16V36.26h-2v3.26Zm-2,6.55,2-.36V42.42h-2Zm11.31-10.5c.33-1.14.69-2.78.9-4h-3.12a13.65,13.65,0,0,1,.87,3.95l-1.41.36h3.83Zm.75,6.73H151v1.53h2.61ZM151,47.81h2.61V46.19H151Z"/><path class="cls-2" d="M182.75,37.81a2.21,2.21,0,0,0-1.59-.65,2,2,0,0,0-1.35.71A76.59,76.59,0,0,1,173.15,45a9.11,9.11,0,0,1-3.39-3,30.47,30.47,0,0,0,2.94-2.33c1.86-1.68,3.54-3.65,5.13-5.33A4.4,4.4,0,0,1,181,32.79a4.9,4.9,0,0,1,3.45,1.34c1.56,1.32,3,2.79,4.92,4.49a86.38,86.38,0,0,0,8.72,7,7,7,0,0,1-2.84,3.5c-2-1.52-4.92-4.1-7.59-6.61Z"/><path class="cls-2" d="M229.72,40.45c0,6.61-3.66,11.19-10.67,12.29a11.83,11.83,0,0,1-2.19-3.92,15.36,15.36,0,0,0,2.81-.39c3.19-.71,5.94-3.17,5.94-8,0-4.52-2.91-7.45-7.23-7.87a48.75,48.75,0,0,1-1.13,8.2c-1.38,5.92-3.54,10.17-7.47,10.17-3.18,0-6.27-4.1-6.27-9.22,0-7.3,5.82-12.74,13.74-12.74C224.35,29,229.72,33.45,229.72,40.45ZM213.5,40a44.84,44.84,0,0,0,1-7.15,9,9,0,0,0-7.08,8.61c0,3.17,1.38,4.91,2.52,4.91C211.37,46.34,212.57,43.89,213.5,40Z"/><path class="cls-2" d="M241,45.44c-.12.3-.39.36-.72.33a19.4,19.4,0,0,1-3.15,6.7,20.52,20.52,0,0,0-2.31-2.24,15.16,15.16,0,0,0,2.34-5.86Zm9.39-15.88v3.32H235.16V29.56H241V25.79l4.47.21c0,.33-.24.48-.81.6v3ZM258.94,50c0,.9,0,1.14.52,1.14.84,0,1,0,1.11-.12.35-.36.35-2.73.35-4.22a8.37,8.37,0,0,0,2.55,1.38c-.09,4-.33,5.89-3.24,5.89h-1.77a3.21,3.21,0,0,1-2.1-.78c-.56-.51-.77-1.2-.77-3.38V44.28a20.36,20.36,0,0,1-5.46,9.81A14.24,14.24,0,0,0,247.07,52a14.42,14.42,0,0,0,2.55-3l-2.4,1.29a26.5,26.5,0,0,0-2.61-4.64v4.79c0,2.9-1.05,3.59-5.07,3.59a11.7,11.7,0,0,0-1-3.29c.93,0,1.89,0,2.19,0s.42-.12.42-.39V43.47h-4.2v-9.1h11.79v9.1h-4.08v2.15l2.79-1.34A24.4,24.4,0,0,1,250,48.37c2.24-3.67,2.94-8,3.15-11.69H250V33.27h3.27V25.79l4.32.21c0,.3-.27.48-.82.57v6.7h6.55v3.41h-6.63c0,.45,0,.86-.06,1.31,1.14.09,2.12.12,3.11.18,0,.3-.24.48-.78.54ZM240.23,37.43v3h4.89v-3Zm19.94-11a16.33,16.33,0,0,1,3.13,4.78l-3,1.47a17.14,17.14,0,0,0-2.92-5Z"/><path class="cls-2" d="M291.44,38.68c.06,1.44.18,2.81.27,4.1A25.76,25.76,0,0,0,293,39.16l3.4.9c-.1.24-.34.36-.73.36a29,29,0,0,1-3.32,7.24c.38,2.06.84,3.32,1.4,3.32.4,0,.69-1.23.79-3.77a6.6,6.6,0,0,0,2.07,1.88c-.48,3.8-1.23,4.94-3.19,4.94-.75,0-2.15-.15-3.29-3.5A19.26,19.26,0,0,1,286,54a18,18,0,0,0-1.86-2.25,15.77,15.77,0,0,0,2.13-1.46h-4.44v1.85h-2.73V39.82h8.13v9.6a17.21,17.21,0,0,0,2-2.36,76.68,76.68,0,0,1-.81-8.38H277.91V35.9h1.95a17,17,0,0,0-.72-3.86l1.89-.45h-2.52V30.13h-1.17V54h-3V48.67c-1.95.51-3.81,1-5.13,1.26a.69.69,0,0,1-.48.51l-1.08-3.59,1.77-.3V30.13H267.8V27h11v2h2.73V25.79l3.81.21c0,.27-.21.45-.72.54V29h3.06v2.63H285l2.73.6c-.06.21-.27.33-.69.36-.3,1-.78,2.33-1.2,3.35h2.49c-.12-3.26-.15-6.7-.15-10.08l3.87.24c0,.27-.27.42-.79.51l0,1.58,2.1-1.08a19,19,0,0,1,2.93,4.82l-2.49,1.38a22.5,22.5,0,0,0-2.54-4.61c0,2.42,0,4.88.09,7.24h4.79v2.78Zm-17.1-5.32V30.13h-2v3.23Zm0,6.16V36.26h-2v3.26Zm-2,6.55,2-.36V42.42h-2Zm11.31-10.5c.33-1.14.69-2.78.9-4h-3.12a13.65,13.65,0,0,1,.87,3.95l-1.41.36h3.84Zm.75,6.73h-2.61v1.53h2.61Zm-2.61,5.51h2.61V46.19h-2.61Z"/><path class="cls-2" d="M324.74,45.68c0,5-4,7.72-9.78,7.72-4.23,0-8-2-8-6.4a26.43,26.43,0,0,1,.33-3.83,36.2,36.2,0,0,1-4.92-.84,13.45,13.45,0,0,1,0-3.8,30.31,30.31,0,0,0,5.43,1.11c.21-1.29.42-2.69.63-4.25a35.17,35.17,0,0,1-4.68-.81,12.43,12.43,0,0,1,.06-3.65,22.48,22.48,0,0,0,5,1.08c.06-.63.12-1.29.18-2a25.27,25.27,0,0,0,0-3.41,19,19,0,0,1,4.14.65c-.09,1.62-.27,3.32-.51,5a27,27,0,0,0,4.68-.18,14,14,0,0,1-.42,3.56,35,35,0,0,1-4.71,0c-.24,1.5-.45,2.93-.66,4.25a28.62,28.62,0,0,0,5.52-.21,14.19,14.19,0,0,1-.48,3.68,48.2,48.2,0,0,1-5.55,0,20.61,20.61,0,0,0-.24,2.63c0,2.1,1.14,3.62,4.11,3.62,3.6,0,5.76-1.64,5.76-4.31a6.39,6.39,0,0,0-2.31-4.81,16.06,16.06,0,0,1,3.72-1.5A10.21,10.21,0,0,1,324.74,45.68Z"/><path class="cls-2" d="M338,40l.75-.06,1.83.21-.09,1c-.33,7.51-.69,10.51-1.56,11.55S337.07,54,334.73,54c-.57,0-1.17,0-1.77,0a8.06,8.06,0,0,0-1-3.26c1.35.12,2.64.12,3.3.12a1,1,0,0,0,.84-.36c.48-.54.81-2.51,1.05-7.36h-2.94c0,.42-.09.84-.15,1.2L331,43.83c.42-2.64.81-6.76,1-10h5.16V30.16h-5.94V26.84h9.36v11H337.1V37h-2.28L334.55,40Zm15.47,9.09c-.38-.6-.77-1.16-1.16-1.67l2.84-1.32a25,25,0,0,1,4,6.52l-3.09,1.5a11.94,11.94,0,0,0-.87-2.1c-4.76.39-9.59.69-12.8.87a.61.61,0,0,1-.57.45l-1.08-3.89c1.89,0,4.35-.09,7.08-.18V46.13h-5.4v-8.7h5.4V34.94c-2,.12-3.93.18-5.43.24a.57.57,0,0,1-.54.45l-1-3.77h2.61a36.74,36.74,0,0,0,3-6.07L350.66,27c-.12.24-.42.36-.87.39a40.45,40.45,0,0,1-2.61,4.43l6.12-.09c-.51-.69-1.05-1.37-1.59-2l2.94-1.41a27.51,27.51,0,0,1,4.65,6.34l-3.21,1.56a12.5,12.5,0,0,0-.84-1.68c-1.54.09-3,.15-4.53.24v0l1.32.06c0,.3-.24.45-.78.54v2h5.63v8.7h-5.63v3Zm-7.94-6h2.25V40.42h-2.25Zm8.07-2.72h-2.37v2.72h2.37Z"/><path class="cls-2" d="M369.41,39.49c.45,4.25,1.53,7.45,2.88,7.45,1.11,0,1.65-3.29,1.92-6.19A12.52,12.52,0,0,1,378,42.84c-1.11,6.55-3.06,8.83-5.58,8.83-2.94,0-6-2.7-7-11.61-.42-3.83-.63-7.15-.75-9.57a22.4,22.4,0,0,1,4.38.41C369,32.28,369.14,36.74,369.41,39.49Zm21.8,4.7a12,12,0,0,1-3.8,2,24.71,24.71,0,0,0-5.7-12.23,21.68,21.68,0,0,1,3.33-2C388.19,35.09,390.83,40.84,391.21,44.19Z"/><path class="cls-2" d="M398.86,48.73a2.87,2.87,0,1,1,5.73,0,2.87,2.87,0,1,1-5.73,0Zm1.2-5.08-.75-15.41h5l-.72,15.41Z"/></svg>