<svg id="レイヤー_1" data-name="レイヤー 1" xmlns="http://www.w3.org/2000/svg" viewBox="0 0 82 62"><defs><style>.cls-1{fill:#00a0e9;}</style></defs><title>icon11</title><g id="レイヤー_2" data-name="レイヤー 2"><g id="レイヤー_1-2" data-name="レイヤー 1-2"><path class="cls-1" d="M12.08,38.76a25.39,25.39,0,0,0,4.75,2.58l1-2.38a22.33,22.33,0,0,1-4.28-2.3Z"/><path class="cls-1" d="M63.35,30.49V30.4A28.25,28.25,0,0,0,35.12,2.29H35A28.25,28.25,0,0,0,6.9,30.43v.14A28.25,28.25,0,0,0,35,58.84h.16A28.26,28.26,0,0,0,63.37,30.56h0S63.36,30.51,63.35,30.49Zm-3.51-6.75c-2.77-2.51-7-4.54-12.17-5.82a2.3,2.3,0,0,0-.1-.51l-1,.25a52.85,52.85,0,0,0-11.49-1.23,53.62,53.62,0,0,0-9.79.89C27.4,9.85,31.16,4.9,35,4.86a5.56,5.56,0,0,1,2.75.8l.35-.6A25.67,25.67,0,0,1,59.8,23.74ZM28.3,5.8c-2.5,2.77-4.52,7-5.8,12.13-5.12,1.28-9.35,3.31-12.11,5.81A25.71,25.71,0,0,1,28.3,5.8ZM9.67,33.63l.6-.35a5.46,5.46,0,0,1-.8-2.75c0-3.89,5-7.66,12.44-9.77a53.94,53.94,0,0,0,.32,21.32l-.25,1,.5.1c1.28,5.15,3.31,9.41,5.82,12.19A25.67,25.67,0,0,1,9.67,33.63ZM38.52,56l-.45-.7a5.62,5.62,0,0,1-3,.94c-3.9,0-7.68-5-9.79-12.57.63.12,1.22.28,1.87.37l.36-2.54c-1-.15-1.94-.38-2.9-.58a51.7,51.7,0,0,1,0-20.88,51.91,51.91,0,0,1,20.85,0c.2,1,.43,1.9.57,2.92l2.55-.37c-.1-.65-.26-1.24-.37-1.87,7.52,2.12,12.51,5.9,12.54,9.8a5.62,5.62,0,0,1-.94,3l.7.45A25.68,25.68,0,0,1,38.52,56Z"/><path class="cls-1" d="M52,39.12l1,2.39A26.16,26.16,0,0,0,57.77,39l-1.42-2.14A24,24,0,0,1,52,39.12Z"/><path class="cls-1" d="M35.14,42.06c-.9,0-1.77,0-2.64-.06l-.12,2.57c.91,0,1.82.06,2.76.06h2.52l-.11-2.57C36.75,42,36,42.06,35.14,42.06Z"/><path class="cls-1" d="M46.52,28c0,.86.06,1.73.06,2.64v2.41l2.57.11V30.64c0-.84,0-1.86-.06-2.76Z"/><path class="cls-1" d="M43.49,13.25l2.37-1a24.65,24.65,0,0,0-2.57-4.77L41.19,9A23.91,23.91,0,0,1,43.49,13.25Z"/><path class="cls-1" d="M46.1,37.83c-.14,1.09-.38,2.11-.59,3.15-1,.21-2.06.45-3.15.6l.35,2.55c1.57-.22,3.07-.53,4.54-.87l.41.1v-.18h.19l-.11-.41c.35-1.47.65-3,.87-4.55Z"/><path class="cls-1" d="M41.42,51.84l2.13,1.43A26.15,26.15,0,0,0,46,48.47l-2.38-1A24.5,24.5,0,0,1,41.42,51.84Z"/></g></g></svg>