<svg id="レイヤー_1" data-name="レイヤー 1" xmlns="http://www.w3.org/2000/svg" viewBox="0 0 82 62"><defs><style>.cls-1{fill:#00a0e9;}</style></defs><title>icon12</title><g id="レイヤー_2" data-name="レイヤー 2"><g id="レイヤー_1-2" data-name="レイヤー 1-2"><path class="cls-1" d="M71.18,34.8H66.31V25.12a1.77,1.77,0,0,0-1.75-1.75H45.18a1.77,1.77,0,0,0-1.75,1.75V34.8H38.57a1.77,1.77,0,0,0-1.75,1.75V52.92a.71.71,0,0,0,.66.76h3.44v5.63h7.53V53.68H61.37v5.63H68.9V53.68h3.34A.71.71,0,0,0,73,53V36.55A1.85,1.85,0,0,0,71.18,34.8Zm-26.3,4.94H64.79v5H44.88Zm.3-14.84H64.56a.24.24,0,0,1,.23.22v13.1H44.88V25.12C44.88,25,45,24.9,45.18,24.9Zm1.67,32.89H42.37V53.68h4.48Zm20.45,0H62.81V53.68H67.3Zm4.1-5.63H38.26V36.55a.26.26,0,0,1,.23-.23h4.87v10h23v-10h4.87a.24.24,0,0,1,.22.23Z"/><path class="cls-1" d="M19.26,10.88h6.38l-2-9.74H13.1l-2,9.74h6.53V20.94H5.73V58.1H8.54V60h1.52V58.1H26.71V60h1.52V58.1H31V20.94H19.26ZM14.39,2.66h8.06l1.37,6.7H13ZM29.52,43.48H7.25V33.81H29.6v9.67ZM7.25,56.65V45H29.6V56.65ZM29.52,32.28H7.25V22.46H29.6v9.82Z"/><rect class="cls-1" x="16.37" y="37.76" width="3.95" height="1.52"/><rect class="cls-1" x="16.37" y="26.65" width="3.95" height="1.52"/><rect class="cls-1" x="16.37" y="47.89" width="3.95" height="1.52"/></g></g></svg>