<svg id="レイヤー_1" data-name="レイヤー 1" xmlns="http://www.w3.org/2000/svg" viewBox="0 0 82 62"><defs><style>.cls-1{fill:#00a0e9;}</style></defs><title>icon3</title><g id="レイヤー_2" data-name="レイヤー 2"><g id="レイヤー_1-2" data-name="レイヤー 1-2"><path class="cls-1" d="M21,53.17,10,56.31l3.13-11,38.93-39a.78.78,0,0,1,1.1,0h0L59.92,13a.8.8,0,0,1,0,1.11L57.8,16.28,59.49,18a.8.8,0,0,1,0,1.11L47.3,31.31a.77.77,0,0,1-1.09,0h0l-1.11-1.1a.78.78,0,0,1,0-1.1h0q-12,12-24.07,24.11Zm15.2-28.7,5.62,5.62L55.61,16.3l1.11-1.11L51.1,9.56Zm4.51,6.73-5.62-5.62L15.4,45.33,21,51Zm16-13.8-9.42,9.44a.78.78,0,0,1,1.1,0h0l.56.55,8.86-8.88L56.73,17.4Zm-9.42,9.44L45.1,29.06a.78.78,0,0,1,1.1,0h0l.55.55,1.11-1.11-.55-.5a.8.8,0,0,1,0-1.11ZM14.45,46.59l-1,3.67L16.09,53l3.66-1Z"/></g></g></svg>