<?xml version="1.0" encoding="utf-8"?>
<!-- Generator: Adobe Illustrator 16.0.0, SVG Export Plug-In . SVG Version: 6.00 Build 0)  -->
<!DOCTYPE svg PUBLIC "-//W3C//DTD SVG 1.1//EN" "http://www.w3.org/Graphics/SVG/1.1/DTD/svg11.dtd">
<svg version="1.1" id="レイヤー_1" xmlns="http://www.w3.org/2000/svg" xmlns:xlink="http://www.w3.org/1999/xlink" x="0px"
	 y="0px" width="16px" height="16px" viewBox="0 0 16 16" enable-background="new 0 0 16 16" xml:space="preserve">
<path fill="#FFFFFF" d="M15.6,13.31h-2.797v-9.92c0-0.699-0.538-1.269-1.199-1.269H4.411c-0.661,0-1.199,0.569-1.199,1.269v9.92
	H0.414c-0.221,0-0.399,0.18-0.399,0.399v0.8c0,0.221,0.179,0.4,0.399,0.4H15.6c0.222,0,0.4-0.18,0.4-0.4v-0.8
	C16,13.489,15.821,13.31,15.6,13.31z M10.405,9.313c-0.442,0-0.8-0.358-0.8-0.799c0-0.441,0.357-0.799,0.8-0.799
	c0.44,0,0.799,0.358,0.799,0.799C11.204,8.955,10.847,9.313,10.405,9.313z"/>
</svg>
