<svg id="レイヤー_1" data-name="レイヤー 1" xmlns="http://www.w3.org/2000/svg" viewBox="0 0 92 86"><defs><style>.cls-1{fill:#00488c;}</style></defs><title>mark1</title><g id="レイヤー_2" data-name="レイヤー 2"><g id="レイヤー_1-2" data-name="レイヤー 1-2"><path class="cls-1" d="M5,43A41,41,0,1,1,46,84,41,41,0,0,1,5,43ZM35.41,17.62s4.18,9,5.79.8l8.68.16c3.37,7.71,5.78-1.44,5.78-1.44L59,16.81s7.4-2.73-.48-4.81l-3-.81s-2.09-14.29-6.43-.32H42c-3.53-14.13-6.27.8-6.27.8l-3.21.81c-7.87,2.89,0,4.66,0,4.66ZM40.73,29.2h9.64c5.45.46,13.16-4.52,0-6.6H40.88C35.73,22.76,27.86,27.58,40.73,29.2ZM36.06,38l-1.77,3.7s-3.7,5.62,6.27,6H52.14c9.79-.17,5.13-6.92,5.13-6.92l-1.61-2.89c2.25,1.12,25.39-4.34-1.77-7.07L39,31C9.22,33.68,38.15,39.63,36.06,38Zm7.88,3.72H47.8s4.82-1.44,0-3.37H44.1c-5.62,2.27-.16,3.39-.16,3.39Zm-9.81,16.2c-10.77,2.25-3.7,5.94-1,5.94s.81,2.73.81,2.73-10.61,25.06,5.94,4.18l3.54-5.46,5.94.16L52.28,70s16.07,21,6.11-3.7c0,0-1.77-2.73,1.61-2.57s8.68-3.69-.48-5.94l-6.59-1.12L48.59,51c-2.73-3.37-5.14.32-5.14.32L38.79,57Z"/></g></g></svg>