<?xml version="1.0" encoding="UTF-8"?>
<!-- Generator: Adobe Illustrator 21.1.0, SVG Export Plug-In . SVG Version: 6.00 Build 0)  -->
<svg version="1.1" id="レイヤー_1" xmlns="http://www.w3.org/2000/svg" xmlns:xlink="http://www.w3.org/1999/xlink" x="0px" y="0px" width="32px" height="31px" viewBox="0 0 32 31" style="enable-background:new 0 0 32 31;" xml:space="preserve">
<style type="text/css">
	.st0{fill:#FFFFFF;}
</style>
<g>
	<path class="st0" d="M16,4.2c3.7,0,4.1,0,5.6,0.1c1.3,0.1,2.1,0.3,2.6,0.5c0.6,0.2,1.1,0.5,1.6,1c0.5,0.5,0.8,0.9,1,1.6   c0.2,0.5,0.4,1.2,0.5,2.6c0.1,1.5,0.1,1.9,0.1,5.6s0,4.1-0.1,5.6c-0.1,1.3-0.3,2.1-0.5,2.6c-0.2,0.6-0.5,1.1-1,1.6   c-0.5,0.5-0.9,0.8-1.6,1c-0.5,0.2-1.2,0.4-2.6,0.5c-1.5,0.1-1.9,0.1-5.6,0.1s-4.1,0-5.6-0.1c-1.3-0.1-2.1-0.3-2.6-0.5   c-0.6-0.2-1.1-0.5-1.6-1c-0.5-0.5-0.8-0.9-1-1.6c-0.2-0.5-0.4-1.2-0.5-2.6c-0.1-1.5-0.1-1.9-0.1-5.6s0-4.1,0.1-5.6   c0.1-1.3,0.3-2.1,0.5-2.6c0.2-0.6,0.5-1.1,1-1.6c0.5-0.5,0.9-0.8,1.6-1c0.5-0.2,1.2-0.4,2.6-0.5C11.9,4.2,12.3,4.2,16,4.2 M16,1.7   c-3.7,0-4.2,0-5.7,0.1C8.9,1.9,7.9,2.1,7,2.5C6.1,2.8,5.3,3.3,4.6,4.1C3.8,4.8,3.3,5.6,3,6.5C2.6,7.4,2.4,8.4,2.3,9.8   c-0.1,1.5-0.1,1.9-0.1,5.7c0,3.7,0,4.2,0.1,5.7c0.1,1.5,0.3,2.5,0.6,3.3c0.4,0.9,0.8,1.7,1.6,2.4c0.8,0.8,1.5,1.2,2.4,1.6   c0.9,0.3,1.9,0.6,3.3,0.6c1.5,0.1,1.9,0.1,5.7,0.1s4.2,0,5.7-0.1c1.5-0.1,2.5-0.3,3.3-0.6c0.9-0.4,1.7-0.8,2.4-1.6   c0.8-0.8,1.2-1.5,1.6-2.4c0.3-0.9,0.6-1.9,0.6-3.3c0.1-1.5,0.1-1.9,0.1-5.7s0-4.2-0.1-5.7c-0.1-1.5-0.3-2.5-0.6-3.3   c-0.4-0.9-0.8-1.7-1.6-2.4c-0.8-0.8-1.5-1.2-2.4-1.6c-0.9-0.3-1.9-0.6-3.3-0.6C20.2,1.8,19.7,1.7,16,1.7L16,1.7z"/>
	<path class="st0" d="M16,8.4c-3.9,0-7.1,3.2-7.1,7.1s3.2,7.1,7.1,7.1s7.1-3.2,7.1-7.1S19.9,8.4,16,8.4z M16,20.1   c-2.5,0-4.6-2.1-4.6-4.6c0-2.5,2.1-4.6,4.6-4.6s4.6,2.1,4.6,4.6C20.6,18,18.5,20.1,16,20.1z"/>
	<circle class="st0" cx="23.3" cy="8.2" r="1.7"/>
</g>
</svg>