<?xml version="1.0" encoding="UTF-8"?>
<!-- Generator: Adobe Illustrator 21.1.0, SVG Export Plug-In . SVG Version: 6.00 Build 0)  -->
<svg version="1.1" id="Layer_1" xmlns="http://www.w3.org/2000/svg" xmlns:xlink="http://www.w3.org/1999/xlink" x="0px" y="0px" width="32px" height="33px" viewBox="0 0 32 33" style="enable-background:new 0 0 32 33;" xml:space="preserve">
<style type="text/css">
	.st0{fill:#FFFFFF;}
</style>
<path class="st0" d="M31.3,8.7c-0.4-1.4-1.5-2.5-2.8-2.8C26,5.2,16,5.2,16,5.2S6,5.2,3.5,5.9C2.1,6.3,1,7.4,0.7,8.7  C0,11.3,0,16.5,0,16.5s0,5.2,0.7,7.8c0.4,1.4,1.5,2.5,2.8,2.8C6,27.8,16,27.8,16,27.8s10,0,12.5-0.7c1.4-0.4,2.5-1.5,2.8-2.8  c0.7-2.5,0.7-7.8,0.7-7.8S32,11.3,31.3,8.7z M12.7,21.3v-9.5l8.4,4.8L12.7,21.3z"/>
</svg>