<?xml version="1.0" encoding="UTF-8"?>
<!-- Generator: Adobe Illustrator 21.1.0, SVG Export Plug-In . SVG Version: 6.00 Build 0)  -->
<svg version="1.1" id="レイヤー_1" xmlns="http://www.w3.org/2000/svg" xmlns:xlink="http://www.w3.org/1999/xlink" x="0px" y="0px" width="32px" height="31px" viewBox="0 0 32 31" style="enable-background:new 0 0 32 31;" xml:space="preserve">
<style type="text/css">
	.st0{fill:#FFFFFF;}
</style>
<path class="st0" d="M31.9,13.2c0-7.1-7.2-12.9-16-12.9C7.2,0.3,0,6.1,0,13.2C0,19.6,5.7,25,13.3,26c0.5,0.1,1.2,0.3,1.4,0.8  c0.2,0.4,0.1,1,0.1,1.4c0,0-0.2,1.1-0.2,1.4c-0.1,0.4-0.3,1.6,1.4,0.9c1.7-0.7,9.2-5.4,12.5-9.3h0C30.8,18.7,31.9,16.1,31.9,13.2z   M10.3,17.1c0,0.2-0.1,0.3-0.3,0.3H5.5h0c-0.1,0-0.2,0-0.2-0.1c0,0,0,0,0,0c0,0,0,0,0,0c-0.1-0.1-0.1-0.1-0.1-0.2v0v-7  c0-0.2,0.1-0.3,0.3-0.3h1.1C6.8,9.8,7,9.9,7,10.1v5.5h3c0.2,0,0.3,0.1,0.3,0.3V17.1z M13,17.1c0,0.2-0.1,0.3-0.3,0.3h-1.1  c-0.2,0-0.3-0.1-0.3-0.3v-7c0-0.2,0.1-0.3,0.3-0.3h1.1c0.2,0,0.3,0.1,0.3,0.3V17.1z M20.7,17.1c0,0.2-0.1,0.3-0.3,0.3h-1.1  c0,0-0.1,0-0.1,0c0,0,0,0,0,0c0,0,0,0,0,0c0,0,0,0,0,0c0,0,0,0,0,0c0,0,0,0,0,0c0,0,0,0,0,0c0,0,0,0,0,0c0,0,0,0,0,0  c0,0-0.1,0-0.1-0.1l-3.2-4.3v4.1c0,0.2-0.1,0.3-0.3,0.3h-1.1c-0.2,0-0.3-0.1-0.3-0.3v-7c0-0.2,0.1-0.3,0.3-0.3h1.1c0,0,0,0,0,0  c0,0,0,0,0,0s0,0,0,0c0,0,0,0,0,0c0,0,0,0,0,0c0,0,0,0,0,0c0,0,0,0,0,0c0,0,0,0,0,0c0,0,0,0,0,0c0,0,0,0,0,0c0,0,0,0,0,0  c0,0,0,0,0,0c0,0,0,0,0,0c0,0,0,0,0,0c0,0,0,0,0,0c0,0,0,0,0,0c0,0,0,0,0,0c0,0,0,0,0,0c0,0,0,0,0,0l3.2,4.3v-4.1  c0-0.2,0.1-0.3,0.3-0.3h1.1c0.2,0,0.3,0.1,0.3,0.3V17.1z M26.9,11.2c0,0.2-0.1,0.3-0.3,0.3h-3v1.2h3c0.2,0,0.3,0.1,0.3,0.3v1.1  c0,0.2-0.1,0.3-0.3,0.3h-3v1.2h3c0.2,0,0.3,0.1,0.3,0.3v1.1c0,0.2-0.1,0.3-0.3,0.3h-4.5h0c-0.1,0-0.2,0-0.2-0.1c0,0,0,0,0,0  c0,0,0,0,0,0c-0.1-0.1-0.1-0.1-0.1-0.2v0v-7v0c0-0.1,0-0.2,0.1-0.2c0,0,0,0,0,0c0,0,0,0,0,0C22,9.8,22,9.8,22.1,9.8h0h4.5  c0.2,0,0.3,0.1,0.3,0.3V11.2z"/>
</svg>